<svg id="Capa_1" enable-background="new 0 0 512 512" height="512" viewBox="0 0 512 512" width="512" xmlns="http://www.w3.org/2000/svg"><g><g><g><path d="m138.039 342.726c-3.838 0-7.574-1.432-10.437-4.071-19.465-17.932-34.789-39.118-45.546-62.968-11.149-24.719-16.801-51.059-16.801-78.289 0-106.9 88.768-193.87 197.879-193.87 4.792 0 9.31 2.226 12.217 6.019s3.87 8.719 2.604 13.32l-41.01 149.107c-.293 1.065-.7 2.094-1.215 3.07l-84.084 159.492c-2.222 4.215-6.288 7.16-11.001 7.968-.867.149-1.739.222-2.606.222z" fill="#38336b"/><path d="m275.351 9.548c-2.907-3.793-7.425-6.019-12.217-6.019-2.71 0-5.404.069-8.088.175v102.461l22.91-83.297c1.265-4.601.302-9.527-2.605-13.32z" fill="#2e2654"/></g><g><g><path d="m136.706 379.402c-2.237 0-4.198-1.425-4.879-3.547-8.913-27.754-13.432-56.74-13.432-86.153 0-36.107 3.881-88.931 22.372-135.53 17.552-44.236 44.758-74.636 80.862-90.356l4.677-2.036 1.184-4.943c3.828-15.986 13.111-30.461 26.136-40.758 13.116-10.369 29.542-16.079 46.248-16.079 2.824 0 5.122 2.288 5.122 5.1v47.702l7.413 2.122c33.781 9.671 59.906 38.107 66.557 72.443l.887 4.573 57.005 32.766c7.428 4.27 12.742 11.163 14.962 19.41 2.219 8.248 1.079 16.864-3.208 24.259l-26.255 45.274c-5.715 9.854-16.399 15.975-27.881 15.976-5.591.001-11.117-1.478-15.983-4.275l-56.991-32.757-4.421 1.523c-6.387 2.2-13.032 3.71-19.751 4.489l-12.879 1.492 4.436 12.128c6.251 17.089 16.159 32.248 29.449 45.059l.337.326.365.293c2.395 1.919 14.98 12.165 27.513 25.387 19.183 20.234 28.909 37.396 28.909 51.011 0 2.809-2.292 5.095-5.112 5.1 0 0-.009 0-.01 0z" fill="#524798"/><path d="m451.82 184.117c-2.22-8.247-7.533-15.14-14.962-19.41l-57.005-32.766-.887-4.573c-6.651-34.337-32.776-62.772-66.557-72.443l-7.413-2.123v-47.702c0-2.812-2.298-5.1-5.122-5.1-16.113 0-31.955 5.325-44.829 15.005v364.396l115.294-.001h.01c2.82-.005 5.112-2.291 5.112-5.1 0-13.615-9.727-30.777-28.909-51.011-12.533-13.221-25.118-23.467-27.513-25.386l-.365-.293-.337-.326c-13.29-12.811-23.198-27.97-29.449-45.059l-4.436-12.128 12.879-1.492c6.719-.779 13.364-2.289 19.751-4.489l4.421-1.523 56.991 32.757c4.865 2.797 10.392 4.276 15.982 4.275 11.482-.001 22.166-6.122 27.881-15.976l26.255-45.274c4.288-7.395 5.427-16.01 3.208-24.258z" fill="#453d81"/></g><g><path d="m285.759 239.843c-.439 0-.88-.019-1.325-.057-27.914-2.373-54.146-16.15-71.969-37.8-5.38-6.535-4.42-16.174 2.144-21.531 6.566-5.355 16.247-4.4 21.627 2.134 12.781 15.525 30.827 25.011 50.814 26.71 8.456.719 14.726 8.127 14.004 16.545-.685 7.977-7.4 13.999-15.295 13.999z" fill="#453d81"/><path d="m287.049 209.3c-11.529-.98-22.404-4.565-32.003-10.391v33.955c9.362 3.693 19.263 6.062 29.388 6.923.445.038.886.057 1.325.057 7.895 0 14.61-6.022 15.294-13.998.722-8.42-5.548-15.827-14.004-16.546z" fill="#38336b"/></g></g></g><g><g><path d="m94.929 450.805c-2.824 0-5.122-2.288-5.122-5.1v-56.105c0-11.248 9.192-20.398 20.49-20.398h290.711c11.298 0 20.49 9.15 20.49 20.398v56.106c0 2.812-2.298 5.1-5.122 5.1h-321.447z" fill="#38336b"/><path d="m401.008 369.201h-145.962v81.603h161.329c2.824 0 5.122-2.288 5.122-5.1v-56.104c0-11.248-9.191-20.399-20.489-20.399z" fill="#2e2654"/></g><g><path d="m64.195 512c-2.824 0-5.122-2.288-5.122-5.1v-45.906c0-11.248 9.191-20.398 20.49-20.398h352.18c11.298 0 20.49 9.15 20.49 20.398v45.906c0 2.812-2.298 5.1-5.122 5.1z" fill="#524798"/><path d="m431.742 440.596h-176.696v71.404h192.063c2.824 0 5.122-2.288 5.122-5.1v-45.906c.001-11.248-9.191-20.398-20.489-20.398z" fill="#453d81"/></g></g></g></svg>