<svg id="Capa_1" enable-background="new 0 0 496.971 496.971" height="512" viewBox="0 0 496.971 496.971" width="512" xmlns="http://www.w3.org/2000/svg"><g><g><path d="m254.912 351.792h176c-41.176-99.718-27.294-195.365-27.294-195.365l-136.471 1.882z" fill="#738c96"/><path d="m417.399 147.518-89.174-9.87-89.174 9.87c1.948 6.965 3.549 13.61 4.844 20.001 13.319 65.727-6.31 104.092-26.345 175.715l46.88 1.88c7.092-10.888 18.327-18.95 31.327-22.036 6.876-1.632 11.784-7.718 11.605-14.783-1.548-60.911-13.634-106.568-30.45-140.776h115.773c-13.062 68.216 8.8 119.024 27.324 175.715l10.905 8.558 9.096-8.558c-20.291-62.096-44.595-117.128-22.611-195.716z" fill="#607882"/><path d="m422.206 142.309-7.411-52.588-191.87 12.749v25.047z" fill="#87a0af"/><path d="m413.522 94.78v25.237c0 4.142-3.358 7.5-7.5 7.5h-183.097v4.985c0 8.293 7.219 15.016 16.125 15.016h178.349c8.905 0 16.125-6.723 16.125-15.016v-30.032z" fill="#738c96"/><path d="m446.559 75.603-16.913-57.011h-24.532c-4.147 0-7.508 3.362-7.508 7.508v21.31h-43.361l-20.001-28.818h-24.532c-4.147 0-7.508 3.362-7.508 7.508v21.31h-43.361l-20.001-28.818h-24.532c-4.147 0-7.508 3.362-7.508 7.508v56.368l194.582 16.076z" fill="#87a0af"/><g fill="#738c96"><path d="m258.842 47.41v-21.31c0-4.147-3.361-7.508-7.508-7.508h-12.493v21.318c0 4.142 3.358 7.5 7.5 7.5z"/><path d="m354.245 47.41v-21.31c0-4.147-3.361-7.508-7.508-7.508h-12.493v21.318c0 4.142 3.358 7.5 7.5 7.5z"/><path d="m442.14 18.592h-12.493v56.376c0 4.142-3.358 7.5-7.5 7.5h-215.346v4.985c0 8.293 7.219 15.016 16.125 15.016h210.598c8.905 0 16.125-6.723 16.125-15.016v-61.353c-.001-4.147-3.363-7.508-7.509-7.508z"/></g><path d="m237.439 374.315 213.356 1.641-15.771-32.722h-169.312z" fill="#87a0af"/><path d="m440.009 343.234h-4.985v17.547c0 4.142-3.358 7.5-7.5 7.5h-174.703c2.427-2.042 4.232-4.849 5.038-8.113 1.524-6.166 4.231-11.887 7.853-16.934h-48.164c-8.905 0-16.125 6.723-16.125 15.016v30.032l122.807 17.058 130.794-17.058v-30.032c.001-8.293-6.722-15.016-15.015-15.016z" fill="#738c96"/><path d="m469.47 388.282h-232.031l-18.527 32.851 235.765 5.647 24.353-15.973z" fill="#87a0af"/><path d="m474.471 388.282h-5.001v21.547c0 1.933-1.567 3.5-3.5 3.5h-198.405c-2.745-3.093-6.745-5.046-11.209-5.046h-18.916v-20.001h-55.461c-8.284 0-15 6.716-15 15v22.548c0 4.142 3.358 7.5 7.5 7.5h307.494c4.142 0 7.5-3.358 7.5-7.5v-22.548c-.002-8.284-6.718-15-15.002-15z" fill="#738c96"/><path d="m99.193 370.793v17.489l102.231 10.733 7.841-42.588z" fill="#9bb9c3"/><path d="m217.438 351.792-59.122-9.953-59.123 9.953v19.001h98.243v28.222l20.002-10.733z" fill="#87a0af"/><path d="m277.265 277.368c-4-119.529-45.745-169.847-76.47-199.867-18.657-14.321-36.642-22.203-49.614-26.462-9.712-3.188-19.7 4.025-19.7 14.247v35.608c-69.8 30.827-118.724 120.619-118.724 120.619-6.45 11.173-6.927 24.844-1.442 36.39 28.303 28.172 64.303-15.123 64.303-15.123l52.286 5.706s-32.772 32.158-48.313 83.305c0 0 34.615 14.754 110.615 13.107 19.965-.433 87.296-60.467 87.059-67.53z" fill="#d2e4e7"/><path d="m200.796 77.501c32.641 34.931 62.084 93.346 64.562 190.792.18 7.065-4.728 13.151-11.605 14.783-18.46 4.382-33.374 18.792-37.896 37.09-1.675 6.78-7.63 11.625-14.614 11.625h-121.652c-.083.272-.172.537-.254.811-2.864 9.576 4.409 19.191 14.404 19.191h129.503c6.984 0 12.938-4.845 14.614-11.625 4.522-18.298 19.436-32.708 37.896-37.09 6.876-1.632 11.784-7.718 11.605-14.783-3.029-119.132-46.357-179.932-86.563-210.794z" fill="#b4d2d7"/><path d="m142.372 228.484h-73.432c-3.197 0-6.069 2.017-7.082 5.05-2.177 6.513-6.11 12.568-11.802 17.423-10.875 9.277-25.824 11.604-38.741 6.945 2.399 5.049 5.93 9.693 10.613 13.541 14.509 11.921 35.797 11.714 50.097-.457 7.161-6.095 11.544-14.085 13.155-22.501h42.725c4.979-5.711 11.043-10.236 16.309-13.527 2.989-1.868 1.684-6.474-1.842-6.474z" fill="#b4d2d7"/><path d="m231.369 388.282h-151.092c-8.293 0-15.016 6.723-15.016 15.016v10.031l179.299 14.156z" fill="#d2e4e7"/><path d="m236.354 388.282h-4.985v17.547c0 4.142-3.358 7.5-7.5 7.5h-158.608v20.001l93.055 12.684 93.055-12.684v-30.032c-.001-8.293-6.724-15.016-15.017-15.016z" fill="#b4d2d7"/><path d="m280.795 452.897-17.347-19.567h-215.266c-8.284 0-15 6.716-15 15v10.047l207.789 14.814z" fill="#d2e4e7"/><path d="m268.449 433.331h-5.001v21.547c0 1.933-1.567 3.5-3.5 3.5h-226.766v12.501c0 4.142 3.358 7.5 7.5 7.5h235.266c4.142 0 7.5-3.358 7.5-7.5v-22.548c.001-8.284-6.715-15-14.999-15z" fill="#b4d2d7"/></g><g><path d="m474.471 380.782h-11.946v-22.532c0-10.459-7.169-19.275-16.852-21.793-1.686-5.094-3.394-10.155-5.059-15.086-9.993-29.599-19.432-57.557-22.959-88.078-.475-4.115-4.196-7.064-8.311-6.589-4.115.476-7.065 4.196-6.589 8.312 3.709 32.095 13.394 60.782 23.648 91.154 1.062 3.145 2.142 6.343 3.221 9.564h-182.38c5.313-12.47 16.606-22.123 30.243-25.36 10.331-2.451 17.636-11.817 17.37-22.271-1.422-55.923-11.648-99.36-26.296-133.086h139.148c-4.297 17.907-6.433 35.307-6.492 52.913-.014 4.143 3.333 7.512 7.475 7.525h.026c4.13 0 7.485-3.342 7.5-7.475.06-17.803 2.4-35.416 7.13-53.688 10.156-2.52 17.677-11.334 17.677-21.792v-23.7c9.36-2.995 16.125-11.429 16.125-21.347v-61.353c0-8.275-6.733-15.008-15.008-15.008h-37.025c-8.275 0-15.008 6.732-15.008 15.008v13.81h-28.361v-13.81c0-8.275-6.732-15.008-15.008-15.008h-37.025c-8.275 0-15.008 6.732-15.008 15.008v13.81h-28.361v-13.81c0-8.275-6.732-15.008-15.008-15.008h-37.025c-8.275 0-15.008 6.732-15.008 15.008v41.077c-17.49-12.354-33.929-19.374-45.78-23.264-6.948-2.282-14.326-1.132-20.242 3.154-5.909 4.279-9.298 10.92-9.298 18.219v30.809c-68.441 32.914-115.206 117.061-117.77 121.749-11.324 19.703-6.833 44.579 10.697 59.183 17.184 14.319 42.984 14.161 60.012-.362 6.583-5.613 11.36-12.678 14.033-20.679h20.406c-11.493 14.424-28.998 40.315-39.21 74.466-2.041 6.824-.764 14.024 3.504 19.755 3.888 5.221 9.651 8.419 16.037 8.986v21.59h-11.417c-12.416 0-22.516 10.101-22.516 22.516v22.532h-9.578c-12.407 0-22.5 10.094-22.5 22.5v22.549c0 8.271 6.729 15 15 15h235.266c8.271 0 15-6.729 15-15v-22.55c0-2.629-.458-5.153-1.29-7.5h192.313c8.271 0 15-6.729 15-15v-22.548c-.001-12.406-10.094-22.5-22.501-22.5zm-57.072-240.764h-155.951c-5.794-11.206-12.086-21.172-18.661-30.048h183.237v22.532c-.001 4.145-3.87 7.516-8.625 7.516zm-203.09-113.926 37.033.008v21.31c0 4.143 3.358 7.5 7.5 7.5h43.361c4.142 0 7.5-3.357 7.5-7.5l.008-21.317 37.033.008v21.31c0 4.143 3.358 7.5 7.5 7.5h43.361c4.142 0 7.5-3.357 7.5-7.5l.008-21.317 37.034.008v61.354c0 4.145-3.869 7.517-8.625 7.517h-203c-5.346-5.927-10.785-11.238-16.221-15.988zm-126.622 315.155c-1.409-1.892-1.833-4.26-1.164-6.498 12.491-41.77 37.333-70.885 44.599-78.771 26.511-.395 50.346-16.259 60.917-40.643l11.394-26.278c1.647-3.801-.098-8.217-3.898-9.864-3.804-1.651-8.217.098-9.864 3.897l-11.394 26.278c-8.327 19.207-27.233 31.617-48.167 31.617h-44.93c-3.598 0-6.689 2.556-7.366 6.09-1.365 7.127-5.038 13.413-10.624 18.177-11.543 9.847-29.03 9.956-40.676.25-11.93-9.938-14.984-26.862-7.261-40.239.031-.054.061-.107.091-.162.477-.875 48.474-87.891 115.168-117.347 2.717-1.199 4.47-3.89 4.47-6.86v-35.608c0-2.433 1.128-4.646 3.096-6.07 1.975-1.43 4.443-1.813 6.765-1.051 37.95 12.458 126.686 59.839 131.019 230.319.088 3.459-2.313 6.459-5.839 7.296-21.245 5.042-38.298 21.759-43.445 42.587-.862 3.488-3.877 5.925-7.333 5.925h-129.503c-2.407 0-4.614-1.109-6.055-3.045zm19.006 18.045h103.245v21.49h-103.245zm169.256 89.038v22.549h-235.266v-22.549c0-4.136 3.364-7.5 7.5-7.5h47.2c4.142 0 7.5-3.357 7.5-7.5s-3.358-7.5-7.5-7.5h-22.622v-22.532c0-4.145 3.372-7.516 7.516-7.516h156.078c4.145 0 7.516 3.371 7.516 7.516v22.532h-118.486c-4.142 0-7.5 3.357-7.5 7.5s3.358 7.5 7.5 7.5h143.064c4.135 0 7.5 3.365 7.5 7.5zm206.022-22.5h-213.522-9.578v-22.532c0-2.635-.459-5.164-1.295-7.516h131.454c4.142 0 7.5-3.357 7.5-7.5s-3.358-7.5-7.5-7.5h-164.092v-21.562c6.353-.479 12.061-3.632 15.903-8.485h199.168c4.145 0 7.516 3.371 7.516 7.516v22.532h-28.493c-4.142 0-7.5 3.357-7.5 7.5s3.358 7.5 7.5 7.5h55.439c4.135 0 7.5 3.364 7.5 7.5z"/><path d="m110.48 153.02c-4.142 0-7.5 3.357-7.5 7.5v18.373c0 4.143 3.358 7.5 7.5 7.5s7.5-3.357 7.5-7.5v-18.373c0-4.143-3.358-7.5-7.5-7.5z"/></g></g></svg>