<svg id="Layer_1" enable-background="new 0 0 53 53" height="512" viewBox="0 0 53 53" width="512" xmlns="http://www.w3.org/2000/svg" xmlns:xlink="http://www.w3.org/1999/xlink"><linearGradient id="lg1"><stop offset="0" stop-color="#fef328"/><stop offset=".8864868" stop-color="#ff7f02"/></linearGradient><linearGradient id="SVGID_1_" gradientUnits="userSpaceOnUse" x1="4.53" x2="46.916" xlink:href="#lg1" y1="24.868" y2="24.868"/><linearGradient id="SVGID_2_" gradientUnits="userSpaceOnUse" x1="4.547" x2="46.934" y1="24.868" y2="24.868"><stop offset=".1369368" stop-color="#ed971a"/><stop offset=".8486485" stop-color="#fef328"/></linearGradient><linearGradient id="lg2"><stop offset="0" stop-color="#f16522"/><stop offset=".9999998" stop-color="#ed971a"/></linearGradient><linearGradient id="SVGID_3_" gradientUnits="userSpaceOnUse" x1="25.733" x2="33.336" xlink:href="#lg2" y1="30.353" y2="30.353"/><linearGradient id="SVGID_4_" gradientTransform="matrix(-1 0 0 1 186.689 0)" gradientUnits="userSpaceOnUse" x1="147.104" x2="174.81" xlink:href="#lg1" y1="31.662" y2="31.662"/><linearGradient id="SVGID_5_" gradientUnits="userSpaceOnUse" x1="18.13" x2="25.733" xlink:href="#lg2" y1="30.353" y2="30.353"/><linearGradient id="SVGID_6_" gradientUnits="userSpaceOnUse" x1="25.73" x2="18.514" y1="31.662" y2="31.662"><stop offset="0" stop-color="#fef328"/><stop offset=".1202446" stop-color="#fee825"/><stop offset=".3301624" stop-color="#fccb1e"/><stop offset=".6048346" stop-color="#fb9d13"/><stop offset=".9306121" stop-color="#f85c04"/><stop offset=".9423425" stop-color="#f85a03"/></linearGradient><linearGradient id="SVGID_7_" gradientUnits="userSpaceOnUse" x1="4.539" x2="46.925" y1="30.533" y2="30.533"><stop offset=".4036041" stop-color="#fef328"/><stop offset=".9423422" stop-color="#fca81d"/></linearGradient><linearGradient id="SVGID_8_" gradientUnits="userSpaceOnUse" x1="14.744" x2="45.121" y1="26.209" y2="31.02"><stop offset=".6990994" stop-color="#f85a03"/><stop offset=".9507808" stop-color="#fb9b19"/><stop offset="1" stop-color="#fca81d"/></linearGradient><linearGradient id="SVGID_9_" gradientUnits="userSpaceOnUse" x1="30.736" x2="42.048" xlink:href="#lg2" y1="34.955" y2="34.955"/><linearGradient id="lg3"><stop offset="0" stop-color="#fef328"/><stop offset=".2087703" stop-color="#fee826"/><stop offset=".5730875" stop-color="#fdcb22"/><stop offset=".9423422" stop-color="#fca81d"/></linearGradient><linearGradient id="SVGID_10_" gradientUnits="userSpaceOnUse" x1="30.736" x2="41.571" xlink:href="#lg3" y1="35.581" y2="35.581"/><linearGradient id="SVGID_11_" gradientTransform="matrix(-1 0 0 1 158.259 0)" gradientUnits="userSpaceOnUse" x1="111.334" x2="153.721" xlink:href="#lg1" y1="30.533" y2="30.533"/><linearGradient id="SVGID_12_" gradientTransform="matrix(-1 0 0 1 158.259 0)" gradientUnits="userSpaceOnUse" x1="105.507" x2="153.721" y1="30.533" y2="30.533"><stop offset="0" stop-color="#f85a03"/><stop offset="1" stop-color="#fca81d"/></linearGradient><linearGradient id="SVGID_13_" gradientTransform="matrix(-1 0 0 1 158.259 0)" gradientUnits="userSpaceOnUse" x1="114.416" x2="148.844" xlink:href="#lg2" y1="34.955" y2="34.955"/><linearGradient id="SVGID_14_" gradientTransform="matrix(-1 0 0 1 172.098 0)" gradientUnits="userSpaceOnUse" x1="151.37" x2="162.205" xlink:href="#lg3" y1="35.581" y2="35.581"/><linearGradient id="SVGID_15_" gradientUnits="userSpaceOnUse" x1="25.776" x2="25.776" xlink:href="#lg2" y1="40.799" y2="46.679"/><linearGradient id="lg4"><stop offset=".0000001" stop-color="#fffd83"/><stop offset=".1748026" stop-color="#fffd87" stop-opacity=".825"/><stop offset=".3556452" stop-color="#fffd94" stop-opacity=".644"/><stop offset=".5392992" stop-color="#fffea8" stop-opacity=".461"/><stop offset=".7248362" stop-color="#fffec5" stop-opacity=".275"/><stop offset=".9100889" stop-color="#ffffea" stop-opacity=".09"/><stop offset="1" stop-color="#fff" stop-opacity="0"/></linearGradient><radialGradient id="SVGID_16_" cx="-49.051" cy="86.489" gradientTransform="matrix(1 0 0 .866 74.783 -44.154)" gradientUnits="userSpaceOnUse" r="6.546" xlink:href="#lg4"/><radialGradient id="SVGID_17_" cx="-49.051" cy="489.774" gradientTransform="matrix(1 0 0 .446 74.783 -203.015)" gradientUnits="userSpaceOnUse" r="6.546" xlink:href="#lg4"/><radialGradient id="SVGID_18_" cx="39.61" cy="34.955" gradientUnits="userSpaceOnUse" r="4.898" xlink:href="#lg4"/><radialGradient id="SVGID_19_" cx="44.487" cy="24.049" gradientUnits="userSpaceOnUse" r="2.895" xlink:href="#lg4"/><radialGradient id="SVGID_20_" cx="211.285" cy="34.919" gradientTransform="matrix(-1 0 0 1 223.119 0)" gradientUnits="userSpaceOnUse" r="4.898" xlink:href="#lg4"/><radialGradient id="SVGID_21_" cx="216.162" cy="24.014" gradientTransform="matrix(-1 0 0 1 223.119 0)" gradientUnits="userSpaceOnUse" r="2.895" xlink:href="#lg4"/><linearGradient id="SVGID_22_" gradientUnits="userSpaceOnUse" x1="22.506" x2="28.953" xlink:href="#lg1" y1="8.295" y2="8.295"/><linearGradient id="SVGID_23_" gradientTransform="matrix(0 1 -1 0 -233.54 -420.223)" gradientUnits="userSpaceOnUse" x1="426.093" x2="431.366" xlink:href="#lg1" y1="-259.27" y2="-259.27"/><linearGradient id="SVGID_24_" gradientUnits="userSpaceOnUse" x1="43.85" x2="48.961" xlink:href="#lg1" y1="20.221" y2="20.221"/><linearGradient id="SVGID_25_" gradientTransform="matrix(0 1 -1 0 -233.54 -420.223)" gradientUnits="userSpaceOnUse" x1="438.521" x2="442.702" xlink:href="#lg1" y1="-279.946" y2="-279.946"/><linearGradient id="SVGID_26_" gradientUnits="userSpaceOnUse" x1="2.5" x2="7.612" xlink:href="#lg1" y1="20.221" y2="20.221"/><linearGradient id="SVGID_27_" gradientTransform="matrix(0 1 -1 0 -233.54 -420.223)" gradientUnits="userSpaceOnUse" x1="438.521" x2="442.702" xlink:href="#lg1" y1="-238.596" y2="-238.596"/><g id="_x34_6"><path d="m47.8800049 24.0179558-3.1799927 16.8699951 1.1099854.5499878 1.3599854 1.0999756c.0300293.0300293.0700073.0599976.1099854.0800171.7200316.539978 1.1900023 1.4000244 1.1900023 2.3699951 0 1.6325874-1.3585777 2.9400024-2.9400024 2.9400024h-.289978c.0499878 0 .0999756 0 .1500244-.0100098h-36.2300416c.0499878.0100098.1000366.0100098.1500244.0100098h-.290039c-1.5018139 0-2.9299927-1.2254677-2.9299927-2.9400024 0-1.6300049 1.3099976-2.9500122 2.9299927-2.9500122h1.0500488l-2.0700073-11.0199585c.3999634-3.9000244-.75-7.9899902-3.4500122-10.7900391.75-1.0499878 2.0800171-2.0099487 2.0800171-2.0099487l1.3899536 1.1199951.2200317.1699829c.5599976.460022.9099731 1.1699829.9099731 1.9500122 0 .5899658-.1900024 1.1300049-.5299683 1.5700073l8.0599976 6.8499756 9.0999756-17.4899902c-1.0199585-.5300293-1.7299805-1.6199951-1.7299805-2.8599854 0-1.7800288 3.7999878-3.6600337 3.7999878-3.6600337l1.2200317.9899902.0599976.0400391.3299561.2699585c.6400147.5900259 1.0400391 1.4299913 1.0400391 2.360045 0 1.2399902-.710022 2.3299561-1.7399902 2.8599854v.0100098l9.1199951 17.4799805 8.0499878-6.8499756c-.3400269-.4400024-.539978-.9800415-.539978-1.5700073-.0000001-1.3800041 2.6099853-3.2300407 2.6099853-3.2300407l1.5700073 1.2600098.039978.0300293c.5499878.4699707.8900147 1.1699829.8900147 1.9400024 0 1.4099731-1.1400146 2.5599976-2.5499878 2.5599976z" fill="#f16522"/><g><g><g><g><g><path d="m36.332489 28.6367798-10.6010799-20.339324v33.1416616h5.0041237z" fill="url(#SVGID_1_)"/></g><path d="m25.7314091 8.2974558-10.5923062 20.339324-.0000629-.000063 5.5883694 12.8024006h5.0039997z" fill="url(#SVGID_2_)"/><g><path d="m33.3354416 35.4873199-2.5980282 5.9517975h-5.0046883v-22.1726074z" fill="url(#SVGID_3_)"/><path d="m32.9496841 36.3710442-2.2122707 5.0680732h-5.0046883v-19.5541935z" fill="url(#SVGID_4_)"/><path d="m18.1293831 35.4922066 7.603342-16.2256966v22.1726074h-5.0034351z" fill="url(#SVGID_5_)"/><path d="m25.7291775 21.886631v19.5515251h-5.0066109l-2.20895-5.0671119z" fill="url(#SVGID_6_)"/></g><g><path d="m46.9247932 19.6277142-10.5923042 9.0090656-5.5969562 12.8023376h6.4348964l4.8772126-12.968235z" fill="url(#SVGID_7_)"/><path d="m46.9247932 19.6277142-4.8771514 8.8431682-4.8772126 12.968235h5.6486664l4.1057625-21.8115291z" fill="url(#SVGID_8_)"/><path d="m42.0476418 28.4708824-8.7093811 7.0257111-.0028191-.0043869-2.5999088 5.9469108h6.4349117z" fill="url(#SVGID_9_)"/><path d="m41.5702667 29.7230511-4.4030609 11.715105h-6.4314194l2.2163582-5.0659752z" fill="url(#SVGID_10_)"/></g><g><path d="m4.5381494 19.6277142 10.6009535 9.0090656 5.5883065 12.8023376h-6.4348936l-4.8772145-12.968235z" fill="url(#SVGID_11_)"/><path d="m4.5381494 19.6277142 4.8771519 8.8431682 4.8772145 12.968235h-5.6486674l-4.1057615-21.8115291z" fill="url(#SVGID_12_)"/><path d="m9.4153013 28.4708824 8.7093821 7.0257111.0028209-.0043869 2.5999051 5.9469108h-6.4349118z" fill="url(#SVGID_13_)"/></g><path d="m9.89293 29.7230511 4.4030609 11.715105h6.4314185l-2.2163563-5.0659752z" fill="url(#SVGID_14_)"/><path d="m46.9226913 43.7393074c0 1.6924706-1.399498 2.9400558-2.9399872 2.9400558h-36.4151744c-1.6213346 0-2.9400539-1.3187218-2.9400539-2.9400558 0-.8106651.335073-1.5456619.8646984-2.0752869s1.2646885-.8647003 2.0753555-.8647003h36.4151764c1.6213321 0 2.9399852 1.3186531 2.9399852 2.9399872z" fill="url(#SVGID_15_)"/><g><path d="m46.9258156 43.7412643c0 1.6235237-1.3504791 2.9423447-2.9423447 2.9423447h-.2903519c1.5492325 0 2.893959-1.203392 2.893959-2.7584457 0-1.5195808-1.2969894-2.3616371-2.893959-2.3616371h-35.9278306c-1.5970311 0-2.8939619.8420563-2.8939619 2.3616371 0 .754921.3193588 1.451828.8517418 1.9454575.5226359.4936295 1.2388601.8129883 2.0422201.8129883-.1547379-.0286522-1.3227673.1678123-2.3616381-.8710594-.5420122-.5323257-.8614302-1.2582359-.8614302-2.0712852 0-1.6260376 1.3163071-2.9423447 2.9327149-2.9423447h36.5085373c1.6163469-.0000001 2.9423433 1.3163069 2.9423433 2.9423445z" fill="#fffd83"/></g><g><path d="m25.7313957 22.7006588c.2597122 4.0179138.2797832 11.7292728.0000267 16.0242901-.2793998-4.2895317-.2599582-12.0023823-.0000267-16.0242901z" fill="url(#SVGID_16_)"/></g><g><path d="m25.7313957 11.1423721c.259737 2.068881.2797508 6.0392628.0000267 8.2503719-.2793827-2.2083988-.2599697-6.1795234-.0000267-8.2503719z" fill="url(#SVGID_17_)"/></g><path d="m37.1704292 41.4391174c1.1898575-2.369278 4.1996422-10.3508911 4.8772125-12.968235-1.2165374 2.4181175-4.2115898 10.4044304-4.8772125 12.968235z" fill="url(#SVGID_18_)"/><path d="m46.4637184 20.463728c-.9022408 2.120739-2.607872 5.2289829-3.9550095 7.1711388.9230347-2.1735612 2.64114-5.2742368 3.9550095-7.1711388z" fill="url(#SVGID_19_)"/><g><path d="m14.272912 41.4035797c-1.1898584-2.369278-4.1996441-10.3508949-4.8772144-12.9682388.7321443 1.4552879 4.2115927 10.4044304 4.8772144 12.9682388z" fill="url(#SVGID_20_)"/><path d="m4.9796228 20.4281864c.9022403 2.1207409 2.6078715 5.2289829 3.9550104 7.1711407-.9230346-2.173563-2.6411399-5.2742386-3.9550104-7.1711407z" fill="url(#SVGID_21_)"/></g><g><path d="m42.816452 41.4365501 3.337986-20.1337146-10.3501892 8.5391521-10.0749416-19.4537334-10.0567475 19.4537334-10.3683819-8.5391521 3.3379302 20.1337146-4.1061859-21.8115367 10.6031179 9.0117034 10.5902672-20.3413486 10.6031818 20.3414116 10.5902023-9.0117664z" fill="#fef328"/></g></g><g><circle cx="25.729" cy="8.295" fill="url(#SVGID_22_)" r="3.223"/><circle cx="25.729" cy="8.506" fill="url(#SVGID_23_)" r="2.636"/></g></g><g><g><g><circle cx="46.405" cy="20.221" fill="url(#SVGID_24_)" r="2.556"/><circle cx="46.405" cy="20.388" fill="url(#SVGID_25_)" r="2.09"/></g></g><g><g><circle cx="5.056" cy="20.221" fill="url(#SVGID_26_)" r="2.556"/><circle cx="5.056" cy="20.388" fill="url(#SVGID_27_)" r="2.09"/></g></g></g></g></g></g></svg>