<svg id="Layer_5" enable-background="new 0 0 62 62" height="512" viewBox="0 0 62 62" width="512" xmlns="http://www.w3.org/2000/svg"><g><g><g><path d="m51 57v4h-50v-4c0-1.1.9-2 2-2h12 4 12 12.79 5.21c1.1 0 2 .9 2 2z" fill="#ccd1d9"/></g><g><path d="m26.5 42.6 2.5 8.4h-8l2.5-8.4c.44.25.95.4 1.5.4s1.06-.15 1.5-.4z" fill="#cf9e76"/></g><g><path d="m11 37 2 14h-8l2-14z" fill="#cf9e76"/></g><g><path d="m15 53v2h-12v-2c0-1.1.9-2 2-2h8c1.1 0 2 .9 2 2z" fill="#d3a06c"/></g><g><path d="m31 53v2h-12v-2c0-1.1.9-2 2-2h8c1.1 0 2 .9 2 2z" fill="#d3a06c"/></g><g><path d="m26.5 42.6c-.44.25-.95.4-1.5.4s-1.06-.15-1.5-.4c-.9-.52-1.5-1.49-1.5-2.6 0-1.66 1.34-3 3-3s3 1.34 3 3c0 1.11-.6 2.08-1.5 2.6z" fill="#d3a06c"/></g><g><path d="m50.06 51.94c-3.11-.42-5.58-2.89-6-6l2.94-2.94.47-.47c.81-.81 1.76-1.44 2.8-1.87.43-.18.88-.33 1.34-.43.64-.15 1.29-.23 1.96-.23 4.1 0 7.43 3.33 7.43 7.43v13.57h-10v-4c0-1.1-.9-2-2-2h-5.21c2.06 0 4.03-.82 5.48-2.27z" fill="#75b1f2"/></g><g><path d="m44.06 45.94c.42 3.11 2.89 5.58 6 6l-.79.79c-1.45 1.45-3.42 2.27-5.48 2.27-2.94 0-5.62-1.66-6.93-4.28l-2.97-5.93c-.58-1.18-.89-2.47-.89-3.79 0-.83.34-1.58.88-2.12s1.29-.88 2.12-.88c.18 0 .35.02.52.05.41.07.79.22 1.13.44.81.54 1.35 1.46 1.35 2.51v1.33.67l3 5z" fill="#f0d0b4"/></g><g><path d="m46 40-3.16 2.37c-.54.41-1.21.63-1.89.63-.72 0-1.4-.25-1.95-.67v-1.33c0-1.05-.54-1.97-1.35-2.51-.34-.22-.72-.37-1.13-.44l-.52-1.05-3-1c.29-.58.43-1.2.43-1.83 0-.72-.19-1.45-.58-2.09l-.39-.65c-.86-1.43-.64-3.25.54-4.43l8.52-3.38c.34-.14.64-.36.87-.62h2.17c.86 0 1.62.55 1.9 1.37l.54 1.63c.31-.1.62-.15.93-.15 1.3 0 2.5.88 2.84 2.22l.02.1c.14.54.12 1.11-.06 1.64l-.73 2.19c0 1.76.21 3.5.62 5.19.26 1.04.59 2.05.99 3.04-.46.1-.91.25-1.34.43-1.04.43-1.99 1.06-2.8 1.87l-.47.47z" fill="#f0d0b4"/></g><g><path d="m42.39 23c-.23.26-.53.48-.87.62l-8.52 3.38-2.01 1.34c-.65.43-1.4.66-2.18.66-1.15 0-2.24-.5-2.99-1.37-1.24-1.45-1.85-3.22-1.85-5 0-2.07.84-4.14 2.48-5.66l1.43-1.32c3.93-3.63 9.09-5.65 14.45-5.65 1.11 0 2.22.13 3.3.38.05.01.11.02.19.04 1.88.48 3.63 1.33 5.18 2.47 1.11.8 2.11 1.77 2.98 2.86l.02.03c1.9 2.49 3 5.58 3 8.89v.12c0 3.97-1.61 7.77-4.45 10.53l-1.93 1.87c-.41-1.69-.62-3.43-.62-5.19l.73-2.19c.18-.53.2-1.1.06-1.64l-.02-.1c-.34-1.34-1.54-2.22-2.84-2.22-.31 0-.62.05-.93.15l-.54-1.63c-.28-.82-1.04-1.37-1.9-1.37z" fill="#656d78"/></g><g><circle cx="51" cy="21" fill="#ff826e" r="2"/></g></g><g><path d="m53.57 39c-.44 0-.872.04-1.301.098-.193-.532-.369-1.068-.517-1.611l1.491-1.447c3.024-2.935 4.757-7.033 4.757-11.246v-.124c0-3.46-1.108-6.744-3.204-9.495l-1.592 1.212c1.829 2.4 2.796 5.265 2.796 8.283v.124c0 3.675-1.513 7.25-4.149 9.81l-.586.569c-.153-.994-.256-1.996-.264-3.012l.679-2.036c.236-.712.266-1.471.083-2.196l-.025-.104c-.265-1.058-.965-1.966-1.921-2.491-.658-.361-1.406-.523-2.143-.476l-.27-.807c-.409-1.227-1.552-2.051-2.845-2.051h-.617c.035-.196.058-.396.058-.6 0-1.875-1.525-3.4-3.4-3.4h-1.6v2h1.6c.772 0 1.4.628 1.4 1.4 0 .567-.338 1.074-.846 1.286l-8.715 3.461-.076.075-1.927 1.285c-1.196.796-2.918.561-3.855-.532-2.352-2.745-2.114-6.815.543-9.267l1.435-1.324c3.76-3.472 8.651-5.384 13.77-5.384 1.033 0 2.067.118 3.074.35.754.174 1.498.414 2.211.712l.771-1.845c-.816-.342-1.669-.616-2.533-.816-1.154-.266-2.339-.401-3.523-.401-5.624 0-10.996 2.101-15.128 5.915l-1.435 1.324c-3.45 3.185-3.76 8.473-.703 12.039.94 1.094 2.305 1.722 3.746 1.722.747 0 1.476-.171 2.142-.492-.01.834.193 1.676.647 2.432l.395.657c.544.906.586 2.011.113 2.956l-.516 1.031 2.603.868c-1.296.663-2.193 1.996-2.193 3.548 0 1.462.346 2.927 1 4.236l2.964 5.927c.558 1.117 1.328 2.075 2.247 2.837h-6.211v-1c0-1.382-.945-2.538-2.219-2.884l-2.121-7.151c.816-.733 1.34-1.785 1.34-2.965 0-2.206-1.794-4-4-4s-4 1.794-4 4c0 1.18.524 2.232 1.339 2.965l-2.121 7.152c-1.273.345-2.218 1.501-2.218 2.883v1h-2v-1c0-1.343-.892-2.469-2.111-2.85l-1.797-12.578 3.908-1.954v-5.618h-2v4.382l-3.236 1.618h-3.528l-3.236-1.618v-4.382h-2v5.618l3.908 1.954-1.797 12.578c-1.218.381-2.111 1.507-2.111 2.85v1.184c-1.161.414-2 1.514-2 2.816v5h62v-14.57c0-4.648-3.781-8.43-8.43-8.43zm-20.257-8.089c-.588-.979-.474-2.212.265-3.064l8.331-3.309c.326-.136.621-.319.881-.538h1.769c.431 0 .813.275.949.684l.859 2.582.949-.316c.517-.173 1.062-.123 1.538.139.476.261.811.695.942 1.224l.026.105c.089.355.074.727-.041 1.076l-.781 2.344v.162c0 2.598.461 5.136 1.319 7.573-1.035.371-2.005.911-2.867 1.624l-.398-1.197.894-2.684-1.896-.633-.901 2.704-2.91 2.182c-.638.478-1.528.518-2.24.175v-.744c0-.577-.128-1.122-.349-1.618.586-.147 1.151-.382 1.665-.724.983-.655 1.73-1.632 2.104-2.752l.529-1.589-1.898-.632-.529 1.589c-.232.699-.699 1.31-1.314 1.72-.675.449-1.481.627-2.284.522-.222-.123-.455-.224-.7-.303l-.515-1.029-2.42-.807c.313-1.282.116-2.644-.582-3.808zm8.886 15.476-1.442-2.404c.064.004.127.017.192.017.893 0 1.777-.295 2.491-.831l2.05-1.537.366 1.098zm-4.446 3.882-2.964-5.926c-.517-1.034-.789-2.19-.789-3.343 0-1.103.897-2 2-2s2 .897 2 2v2.277l3 5v2.723h2v-2.586l.554-.554c.807 2.098 2.462 3.758 4.556 4.574-1.211 1.012-2.722 1.566-4.32 1.566-2.573 0-4.887-1.43-6.037-3.731zm-12.753-12.269c1.103 0 2 .897 2 2s-.897 2-2 2-2-.897-2-2 .897-2 2-2zm0 6c.293 0 .577-.036.853-.096l1.807 6.096h-5.32l1.808-6.096c.275.06.559.096.852.096zm-5 9c0-.551.448-1 1-1h8c.552 0 1 .449 1 1v1h-10zm-8.153-3h-5.694l1.714-12h2.265zm-6.847 2h8c.552 0 1 .449 1 1v1h-10v-1c0-.551.448-1 1-1zm45 8h-48v-3c0-.551.448-1 1-1h46c.552 0 1 .449 1 1zm10 0h-8v-3c0-1.545-1.179-2.807-2.682-2.968.228-.186.448-.384.659-.595l4.73-4.73-1.414-1.414-3.553 3.553c-2.296-.494-4.092-2.29-4.586-4.586l3.028-3.028c1.438-1.439 3.352-2.232 5.388-2.232 3.545 0 6.43 2.884 6.43 6.43z"/><circle cx="37" cy="30" r="1"/><path d="m47 5.174c0-1.75 1.424-3.174 3.174-3.174h1.652c1.75 0 3.174 1.424 3.174 3.174 0 1.306-.783 2.462-1.995 2.947l-3.005 1.202v6.677h2v-5.323l1.747-.699c1.977-.79 3.253-2.676 3.253-4.804 0-2.853-2.321-5.174-5.174-5.174h-1.652c-2.853 0-5.174 2.321-5.174 5.174v.826h2z"/><path d="m48 21c0 1.654 1.346 3 3 3s3-1.346 3-3-1.346-3-3-3-3 1.346-3 3zm4 0c0 .551-.448 1-1 1s-1-.449-1-1 .448-1 1-1 1 .449 1 1z"/><path d="m6 30h2v4h-2z"/><path d="m10 30h2v4h-2z"/></g></g></svg>