<svg id="Flat_Gradient" viewBox="0 0 64 64" xmlns="http://www.w3.org/2000/svg" xmlns:xlink="http://www.w3.org/1999/xlink"><linearGradient id="linear-gradient" gradientUnits="userSpaceOnUse" x1="13" x2="50.998" y1="55.5" y2="55.5"><stop offset="0" stop-color="#00c0ff"/><stop offset="1" stop-color="#5558ff"/></linearGradient><linearGradient id="linear-gradient-2" x1="11" x2="32.699" xlink:href="#linear-gradient" y1="25.04" y2="25.04"/><linearGradient id="linear-gradient-3" x1="17" x2="53" xlink:href="#linear-gradient" y1="26.5" y2="26.5"/><path d="m46.9981 51.00044h-29.99841c-2.2099 0-3.99982 1.78992-3.99982 3.99982v3.99982c0 .54993.45001.99994.99994.99994h35.99817c.54993 0 .99994-.45001.99994-.99994v-3.99982c0-2.2099-1.78992-3.99982-3.99982-3.99982z" fill="url(#linear-gradient)"/><path d="m14.99981 24.35426c0-8.20953 6.63965-14.90918 14.82928-14.99927.72382-1.07727 1.9472-3.12732 2.86975-3.99969-11.53949-1.04218-21.63721 7.19592-21.69885 18.99896v16.65918c0 .29999.13.57996.35999.7699l3.63983 3.02991v-20.45898z" fill="url(#linear-gradient-2)"/><path d="m52.23785 25.18428-11.62939-13.04932 2.3999-6.78967c.10992-.29999.05994-.63995-.12-.90997-.42767-.66016-1.60553-.35474-2.30988-.41998-3.03967-.01636-5.85547 1.55646-7.51965 4.05988 0-.00006-2.1499 3.27972-2.1499 3.27972-7.48212-.45221-13.93848 5.46039-13.90918 12.99939-.00006-.00006-.00006 24.64612-.00006 24.64612h29.99841v-2.69733c0-.43994-.28003-.81995-.68994-.94995-3.52979-1.15991-6.34967-3.94971-7.53961-7.46954l-1.48993-4.4198c-5.01819.43805-9.42389-2.40387-10.15704-7.53992-.1355-1.29523 1.79419-1.54791 1.98389-.25146.3728 2.84619 2.5531 5.13422 5.35333 5.6615.71808.24915 7.26263.08722 8.14954.13007.32043.00287.64075.17358.82996.43994l.96991 1.43988c1.10016 1.72528 3.8299 1.74542 4.94818.03217.00006.00006 3.11139-4.49194 3.11139-4.49194.79004-1.13995.69-2.65985-.22992-3.69977z" fill="url(#linear-gradient-3)"/></svg>