<svg id="Capa_1" enable-background="new 0 0 512 512" height="512" viewBox="0 0 512 512" width="512" xmlns="http://www.w3.org/2000/svg"><g><circle cx="344.858" cy="145" r="15"/><path d="m429.858 422.097v-7.097c0-30.327-24.673-55-55-55h-5v-3.524c0-43.103-17.746-85.035-48.687-115.044-2.277-2.209-2.596-4.824-2.583-6.186.014-1.362.382-3.971 2.701-6.136 2.583-2.412 6.444-2.971 9.606-1.39l70.93 35.465c14.663 7.331 32.741 3.361 42.983-9.441l19.697-24.622c10.346-12.931 10.159-31.55-.442-44.271l-86.067-103.281v-66.57c0-5.831-3.379-11.133-8.664-13.596-5.287-2.464-11.519-1.639-15.983 2.111l-41.811 35.12c-23.139-12.639-49.733-18.501-76.014-16.602-30.384 2.194-59.237 14.702-81.244 35.221-19.82 18.479-36.662 40.012-50.058 64.001-23.192 41.531-35.788 90.238-37.439 144.767-.187 6.163 3.417 11.812 9.084 14.241l51.356 22.01c.023.351.041.699.066 1.05 1.633 23.318 5.193 43.104 8.218 56.676h-.648c-30.327 0-55 24.673-55 55v7.096c-23.057 6.547-40 27.777-40 52.904v22c0 8.284 6.716 15 15 15h400c8.284 0 15-6.716 15-15v-22c-.001-25.125-16.944-46.355-40.001-52.902zm-299.442-286.214c11.873-21.264 26.785-40.335 44.322-56.686 26.169-24.4 62.323-32.877 96.083-24.546-51.522 20.111-89.856 52.235-114.216 95.858-18.652 33.401-28.857 73.996-30.068 118.833l-29.32-12.566c2.656-45.541 13.806-86.166 33.199-120.893zm52.383 29.252c25.893-46.369 70.922-77.854 133.835-93.583 2.211-.553 4.266-1.602 6.01-3.067l25.353-21.295v39.81c0 3.509 1.23 6.907 3.477 9.603l89.546 107.456c1.514 1.817 1.54 4.476.062 6.324l-19.697 24.622c-1.463 1.829-4.045 2.397-6.142 1.349l-70.93-35.465c-14.312-7.156-31.793-4.629-43.492 6.291-7.672 7.161-12.129 17.286-12.229 27.78s4.162 20.702 11.695 28.008c25.148 24.392 39.572 58.475 39.572 93.509v3.523h-173.522c-7.461-30.461-24.464-121.578 16.462-194.865zm-47.941 224.865h240c13.785 0 25 11.215 25 25v5h-290v-5c0-13.785 11.215-25 25-25zm305 92h-370v-7c0-13.785 11.215-25 25-25h320c13.785 0 25 11.215 25 25z"/></g></svg>