<svg id="Capa_1" enable-background="new 0 0 512 512" viewBox="0 0 512 512" xmlns="http://www.w3.org/2000/svg"><g><path d="m428.005 415.283v-.319c0-24.323-5.685-48.711-16.44-70.526-10.755-21.816-26.638-41.176-45.931-55.987l-56.223-43.163c-6.888-5.288-11.001-13.63-11.001-22.315v-6.481h90.132c26.437 0 47.945-21.508 47.945-47.945v-42.297l-116.133-60.92v-65.33h-68.824c-97.966 0-177.667 79.701-177.667 177.666v174.928h59.161v59.413h-45.753l-42.968 42.967v57.026h423.393v-57.026zm-324.144-92.687v-144.93c0-76.185 57.994-139.075 132.152-146.854-2.993 6.65-4.581 13.913-4.581 21.424v8.813c-56.212 9.421-98.408 58.118-98.408 116.569v144.978zm59.161-144.978c0-47.25 36.94-85.958 84.097-88.121l14.312-.657v-36.604c0-5.94 2.313-11.524 6.513-15.724s9.784-6.513 15.724-6.513h6.687v53.469l116.133 60.919v24.159c0 9.896-8.051 17.948-17.947 17.948l-116.078-.016c-13.251 0-24.031-10.781-24.031-24.032v-12.129h-29.998v12.129c0 28.428 22.073 51.781 49.978 53.862v6.665c0 17.946 8.498 35.183 22.733 46.11l56.223 43.163c30.926 23.742 49.688 60.856 50.596 99.762h-234.942zm274.676 304.384h-363.396v-14.602l25.395-25.395h312.607l25.395 25.395v14.602z"/></g><g/><g/><g/><g/><g/><g/><g/><g/><g/><g/><g/><g/><g/><g/><g/></svg>