<svg id="Capa_1" enable-background="new 0 0 512 512" height="512" viewBox="0 0 512 512" width="512" xmlns="http://www.w3.org/2000/svg"><g><path d="m157.604 143.293c-4.374 0-8.206 2.8-9.534 6.967-14.959 46.91-34.805 109.144-49.714 155.897-.967 3.032-.423 6.375 1.455 8.944 1.877 2.569 4.898 4.103 8.08 4.103h296.219c3.182 0 6.202-1.534 8.08-4.103 1.877-2.569 2.421-5.913 1.455-8.945l-9.217-28.904c-.001-.003-.002-.006-.003-.01-14.193-44.505-26.339-82.594-40.494-126.982-1.328-4.167-5.16-6.968-9.534-6.968h-196.793zm-27.14 111.546h37.855l-3.288 17.182h-40.047zm10.263-32.182h33.75l-3.288 17.182h-35.942zm10.263-32.182h29.645l-3.288 17.182h-31.837zm73.822 17.182h-32.193l3.288-17.182h30.001zm-35.063 15h34.107l-1.096 17.182h-36.299zm49.138 0h34.227l1.096 17.182h-36.419zm50.353 17.182-1.096-17.182h34.106l3.288 17.182zm26.853-49.364 3.288 17.182h-32.193l-1.096-17.182zm-45.032 0 1.096 17.182h-32.314l1.096-17.182zm-44.196-15h-28.088l3.288-17.182h25.896zm-43.273 79.364h38.211l-1.096 17.182h-40.403zm53.242 0h38.332l1.096 17.182h-40.524zm54.459 17.182-1.096-17.182h38.211l3.288 17.182zm55.675 0-3.288-17.182h37.855l5.479 17.182zm-6.157-32.182-3.288-17.182h33.75l5.479 17.182zm25.679-32.182h-31.836l-3.288-17.182h29.645zm-56.554-49.364 3.288 17.182h-28.088l-1.096-17.182zm-40.928 0 1.096 17.182h-28.209l1.096-17.182zm-107.756 0h25.54l-3.288 17.182h-27.731zm-41.05 128.728h41.96l-3.288 17.183h-44.152zm57.232 0h42.316l-1.096 17.183h-44.508zm56.252 17.183 1.096-17.183h42.438l1.096 17.183zm59.659 0-1.096-17.183h42.316l3.288 17.183zm59.781 0-3.288-17.183h41.96l5.479 17.183zm-2.378-145.911 5.479 17.182h-27.731l-3.288-17.182z"/><path d="m10.978 393.476h490.044c6.053 0 10.978-4.925 10.978-10.979v-8.056c0-11.893-8.131-21.921-19.125-24.82-2.585-17.001-4.215-34.272-4.849-51.39l-1.006-31.729c8.542-3.144 14.651-11.363 14.651-20.983 0-3.642-.876-7.083-2.427-10.124 2.799-2.275 4.591-5.744 4.591-9.624v-37.898c0-6.836-5.562-12.398-12.398-12.398h-68.835c-6.836 0-12.398 5.562-12.398 12.398v25.972l-27.631-86.648c-1.654-5.188-6.424-8.673-11.869-8.673h-98.276c-4.142 0-7.5 3.358-7.5 7.5s3.358 7.5 7.5 7.5h96.418l56.524 177.256c-.395 6.067-.913 12.137-1.551 18.193h-23.747c-4.142 0-7.5 3.358-7.5 7.5s3.358 7.5 7.5 7.5h21.913c-.262 1.886-.536 3.768-.822 5.648-10.994 2.899-19.125 12.928-19.125 24.82v4.035h-292.078v-4.035c0-11.893-8.131-21.921-19.125-24.82-.286-1.88-.56-3.762-.822-5.648h275.06c4.142 0 7.5-3.358 7.5-7.5s-3.358-7.5-7.5-7.5h-276.893c-.639-6.056-1.157-12.126-1.551-18.193l56.524-177.256h94.276c4.142 0 7.5-3.358 7.5-7.5s-3.358-7.5-7.5-7.5h-96.133c-5.445 0-10.215 3.485-11.869 8.673l-37.715 118.268c-1.982-1.68-4.26-3.021-6.743-3.933 6.135-7.011 9.858-16.183 9.858-26.209 0-21.972-17.875-39.847-39.847-39.847s-39.847 17.875-39.847 39.847c0 10.026 3.723 19.199 9.858 26.209-8.548 3.141-14.662 11.363-14.662 20.987 0 9.559 6.032 17.735 14.49 20.923l-.836 14.598c-.237 4.135 2.924 7.68 7.059 7.917 4.123.234 7.679-2.91 7.917-7.059l.803-14.029h30.439l.799 13.952c.617 16.597 2.14 33.375 4.547 49.956h-41.13c.731-5.03 1.383-10.084 1.946-15.106.462-4.116-2.5-7.828-6.616-8.29-4.115-.461-7.828 2.5-8.29 6.616-.658 5.862-1.44 11.769-2.331 17.625-10.995 2.898-19.126 12.927-19.126 24.819v8.056c0 6.054 4.925 10.979 10.978 10.979zm475.694-147.957c0 4.047-3.287 7.34-7.332 7.349-44.289 0-42.666 0-44.639 0-4.045-.009-7.333-3.302-7.333-7.349 0-4.053 3.297-7.35 7.35-7.35h44.604c4.053 0 7.35 3.297 7.35 7.35zm-59.652 20.983-.002.066-.024-.076c.008.004.017.007.026.01zm13.985 32.205.978-30.838h30.073l.979 30.877c.617 16.68 2.145 33.469 4.55 50.03h-41.131c2.406-16.565 3.934-33.384 4.551-50.069zm-15.8-108.232h11.724v12.066c0 4.142 3.358 7.5 7.5 7.5s7.5-3.358 7.5-7.5v-12.066h10.184v12.066c0 4.142 3.358 7.5 7.5 7.5s7.5-3.358 7.5-7.5v-12.066h11.724v32.694h-63.631v-32.694zm-8.165 183.966c0-5.864 4.763-10.664 10.674-10.664h58.661c5.862.021 10.626 4.797 10.626 10.665v4.035h-79.96v-4.036zm-384.362-104.572c-4.053 0-7.35-3.297-7.35-7.35s3.297-7.35 7.35-7.35h44.604c4.053 0 7.35 3.297 7.35 7.35 0 4.049-3.291 7.344-7.34 7.349-25.207.001-19.042.001-44.614.001zm22.302-79.394c13.701 0 24.847 11.146 24.847 24.847s-11.146 24.847-24.847 24.847-24.847-11.146-24.847-24.847 11.146-24.847 24.847-24.847zm-39.98 183.966c0-5.864 4.763-10.664 10.674-10.664h58.612c5.911 0 10.674 4.8 10.674 10.664v4.035h-79.96z"/></g></svg>