<svg clip-rule="evenodd" fill-rule="evenodd" height="512" image-rendering="optimizeQuality" shape-rendering="geometricPrecision" text-rendering="geometricPrecision" viewBox="0 0 1.70666 1.70666" width="512" xmlns="http://www.w3.org/2000/svg" xmlns:xlink="http://www.w3.org/1999/xlink"><linearGradient id="id0" gradientUnits="userSpaceOnUse" x1=".853" x2=".853" y1="0" y2="1.707"><stop offset="0" stop-color="#66c"/><stop offset=".509804" stop-color="#f0f"/><stop offset="1" stop-color="#f60"/></linearGradient><g id="Layer_x0020_1"><circle cx=".853" cy=".853" fill="url(#id0)" r=".853"/><path d="m.993291.694417.0106969.0668583h.0494055c.0259882 0 .047378.0213898.047378.0473819v.0524173c0 .0259921-.0213898.0473819-.047378.0473819h-.0258583l.0412323.257705h.0232244c.0471299 0 .0796693.0455039.0672362.0890236h.00603937c.019248 0 .0367323.0078622.0493898.0205157v.00009843c.0126535.0126575.0205157.0301102.0205157.0492913v.00000394c0 .019248-.0078622.0367323-.0205157.0493898-.0126575.0126535-.0301417.0205157-.0493898.0205157h-.623874c-.019248 0-.0367323-.0078622-.0493898-.0205157-.0126535-.0126575-.0205157-.0301417-.0205157-.0493898v-.00000394c0-.0191811.0078622-.0366339.0205157-.0492913v-.00009843c.0126575-.0126535.0301417-.0205157.0493898-.0205157h.00603937c-.0127598-.0446654.0214173-.0890236.0672362-.0890236h.0232244l.0412323-.257705h-.0258583c-.0259882 0-.047378-.0213898-.047378-.0473819v-.0524173c0-.0259921.0213898-.0473819.047378-.0473819h.0494055l.0106969-.0668583h-.0031811c-.0434882 0-.0791339-.0356181-.0791339-.0791339v-.128091c0-.0217835.00889764-.0415787.0232244-.0559094.0143307-.0143268.034122-.0232244.0559094-.0232244h.0558819v-.0490157c0-.0259921.0213898-.0473819.0473819-.0473819h.0797559c.0259921 0 .0473819.0213898.0473819.0473819v.0490157h.0558819c.0217874 0 .0415787.00889764.0559094.0232244.0143268.0143307.0232244.034126.0232244.0559094v.128091c0 .0216969-.00891732.0414724-.0232756.0558543l.00005118.00005118c-.0143307.0143307-.034122.0232283-.0559094.0232283h-.0031811zm-.336622.117642v.0456142h.393323v-.0456142c-.131106 0-.262217 0-.393323 0zm.160185-.404h.0729528v-.0456142h-.0729528zm-.106665.0507795c-.00777165 0-.0148583.00320079-.0200079.00834646-.00514567.00514961-.00834646.0122362-.00834646.0200079v.128091c0 .0156102.0127402.0283504.0283543.0283504h.011311.021563.220535.021563.011311c.00777165 0 .0148583-.00319685.0200079-.00834646h.00009449c.00509055-.00508661.00825197-.0121693.00825197-.0200039v-.128091c0-.00777165-.00320079-.0148583-.00834646-.0200079-.00514961-.00514567-.0122362-.00834646-.0200079-.00834646-.0954252 0-.190858 0-.286283 0zm-.168795.885378h.623874c.0104685 0 .019122-.00865354.019122-.019122v-.00000394c0-.0105276-.00859055-.019122-.019122-.019122h-.0728268l-.00044882.00000394h-.477323l-.00044882-.00000394h-.0728268c-.00523228 0-.0100118.00216142-.0134882.00563386l-.00004724-.00004724c-.00344488.00347638-.00558661.00826378-.00558661.0135354v.00000394c0 .00523622.00216142.0100118.00563386.0134882.00347638.00347244.00825591.00563386.0134882.00563386zm.0730276-.0890315h.477819c.00517323-.00006299.00986614-.00219291.0132874-.00558268l-.00004724-.00004724c.00347244-.00347638.00563386-.00825197.00563386-.0134882v-.00000394c0-.00523228-.00216142-.0100118-.00563386-.0134843l.00004724-.00004724c-.00347638-.00344488-.00826378-.00558661-.0135354-.00558661h-.0150984-.029689-.387748-.029689-.0150984c-.0105236 0-.019122.00859055-.019122.0191181v.00000394c0 .0104409.00846063.0189882.018874.0191181zm.338307-.493909-.0106969-.0668583h-.177402l-.0106969.0668583h.198795zm.0647835.404886-.0412323-.257705h-.245898l-.0412323.257705h.328362z" fill="#fff" fill-rule="nonzero"/></g></svg>