<svg id="Layer_1" viewBox="0 0 512 512" xmlns="http://www.w3.org/2000/svg" data-name="Layer 1"><circle cx="399.868" cy="115.798" r="19.557" transform="matrix(.997 -.082 .082 .997 -8.189 33.375)"/><path d="m399.86792 259.32983c30.37622 0 55.08813-31.65479 55.08813-70.56421 0-26.04199-10.98975-49.47705-28.48828-61.7959-1.40796-.99121-3.34473-.46631-4.17261 1.0437-4.39502 8.01465-12.96362 13.33862-22.42725 13.33862s-18.03198-5.32397-22.427-13.33862c-.82812-1.51001-2.76465-2.03491-4.17285-1.0437-17.49829 12.31885-28.48804 35.75391-28.48804 61.7959 0 38.90942 24.71191 70.56421 55.08789 70.56421zm27.47681-113.87476c1.47363-1.25439 3.68164-1.07617 4.93457.39551 9.35742 10.98779 13.88574 26.74316 12.4248 43.22656-.16113 1.82031-1.68945 3.19092-3.48242 3.19092-.10352 0-.20801-.00439-.3125-.01367-1.92578-.1709-3.34863-1.87012-3.17773-3.79541 1.29688-14.62549-2.63281-28.50195-10.78223-38.07031-1.25293-1.47119-1.07617-3.68066.39551-4.93359z"/><path d="m156.29883 167.84131c.64551.51758 1.41895.76904 2.18652.76904 1.02588 0 2.04199-.44873 2.7334-1.31104 5.89893-7.35889 14.67822-11.57959 24.08643-11.57959 9.41504 0 18.19775 4.2207 24.09619 11.57959 1.2085 1.50781 3.41064 1.75049 4.91992.54199 1.5083-1.20898 1.75098-3.41162.54199-4.91992-7.23389-9.02539-18.00732-14.20166-29.55811-14.20166-11.54395 0-22.31348 5.17627-29.54834 14.20166-1.20898 1.5083-.96631 3.71094.54199 4.91992z"/><path d="m253.15674 254.71826c1.03418-1.63281.54834-3.79541-1.08496-4.8291-1.63281-1.03564-3.7959-.54834-4.8291 1.08496-4.25439 6.71924-11.24268 10.73047-18.69434 10.73047-7.45752 0-14.44922-4.01123-18.70361-10.73047-1.03418-1.6333-3.19678-2.11914-4.8291-1.08496-1.6333 1.03369-2.11914 3.19629-1.08496 4.8291 5.54443 8.75781 14.74756 13.98633 24.61768 13.98633 9.86426 0 19.06396-5.22852 24.6084-13.98633z"/><path d="m227.43701 241.7583c1.75293.58447 3.57324.86816 5.36914.86816 3.75195 0 7.39453-1.23975 10.0791-3.57129 3.68896-3.2041 5.16846-7.98242 4.16602-13.4541-.34912-1.90088-2.17383-3.16162-4.07373-2.81201-1.90137.34863-3.16016 2.17236-2.81201 4.07373.5542 3.02393-.0752 5.34814-1.87061 6.90723-2.104 1.82812-5.57861 2.37061-8.64404 1.34766-1.83398-.61328-3.81641.37988-4.42725 2.21338-.61133 1.83398.37988 3.81592 2.21338 4.42725z"/><path d="m99.70605 202.35986c-4.3833-3.58398-10.146-4.97852-15.8125-3.83203-1.89453.38379-3.11914 2.23096-2.73486 4.12549.38379 1.89453 2.23193 3.12061 4.12549 2.73486 3.54443-.71826 7.28076.1748 9.99121 2.39111 2.54492 2.08057 3.94629 5.08545 3.94629 8.46045 0 1.93311 1.56689 3.5 3.5 3.5s3.5-1.56689 3.5-3.5c0-5.51514-2.31396-10.44434-6.51562-13.87988z"/><path d="m461.27759 383.30469c.104-1.04541.17554-2.09717.17554-3.16113 0-14.94922-10.33252-28.69287-27.66309-36.85767-1.76196-16.44458-2.78516-36.36792-2.88818-57.79272 23.02612-6.07837 38.54248-18.80396 38.54248-33.85986 0-6.61328-3.0752-13.06836-8.89258-18.66602-1.3916-1.33984-3.60742-1.29834-4.94922.09521-1.33984 1.39258-1.29688 3.6084.0957 4.94873 4.47656 4.30762 6.74609 8.89062 6.74609 13.62207 0 16.63574-28.65625 30.68994-62.57617 30.68994s-62.57617-14.0542-62.57617-30.68994c0-4.73145 2.26953-9.31445 6.74609-13.62207 1.39258-1.34033 1.43555-3.55615.0957-4.94873-1.3418-1.39355-3.55762-1.43506-4.94922-.09521-5.81738 5.59766-8.89258 12.05273-8.89258 18.66602 0 15.05591 15.51636 27.78149 38.54224 33.85986-.10327 21.42358-1.12695 41.34814-2.88892 57.79297-17.3335 8.16553-27.66211 21.89844-27.66211 36.85742 0 .5188.02979 1.03247.05469 1.54688-13.7981 16.21118-21.39844 36.84302-21.39844 58.1377v18.73584c0 2.396.67358 4.70996 1.9082 6.69336-.7749.64771-1.58374 1.25806-2.42578 1.82031-14.6792 9.79468-36.93652 17.08691-63.4668 21.29272 11.70776-24.40161 19.56348-50.01196 23.36719-76.20581 1.11719-7.68896-3.04102-15.34717-10.1123-18.62354l-13.2002-6.11621c7.92285-3.82227 13.44629-8.20703 17.1582-13.61768 13.28345 11.31323 26.49585 23.30688 35.08789 31.87451.68359.68115 1.57715 1.02148 2.47168 1.02148.89746 0 1.79492-.34326 2.47852-1.02881 1.36523-1.36865 1.36133-3.58496-.00684-4.94971-8.99829-8.97168-22.95923-21.61938-36.8147-33.36816 1.29956-5.01172-.40698-10.44482-4.61401-13.92285-13.05933-10.79443-27.25439-22.08252-41.25146-33.15967 18.32886-1.89502 36.40527-10.73291 50.521-24.9126 16.80371-16.88135 26.05762-39.09033 26.05762-62.53662v-.00049l-.00073-5.56445h4.9187c6.73535 0 12.21484-5.479 12.21484-12.21387v-28.2334c0-6.73486-5.47949-12.21387-12.21484-12.21387h-4.92651l-.0061-41.55322c-.00195-9.75977-4.34082-18.89355-11.90527-25.06055-7.54297-6.1499-17.33496-8.5542-26.85254-6.59619-23.11084 4.74902-47.63086 4.51465-70.63672-.68994-13.01367-2.94531-26.79688-.37012-37.81689 7.06152-11.04736 7.44971-18.31104 18.78369-20.45264 31.91357-1.32959 8.15039-1.84326 16.32666-2.29639 23.54004-1.20459 19.17822-2.46777 27.60303-9.50684 27.79346-3.05469.08838-6.0249-1.55615-7.79785-4.27393-7.45947-11.43994-17.90625-17.00928-28.65137-15.27051-.48657.07861-.96716.1814-1.44653.28882-.56433-8.31982-1.79761-17.67529-3.09497-27.50757-3.7959-28.77686-8.09863-61.39307 4.4707-72.84473 4.96338-4.52295 12.45508-5.56201 22.90527-3.1792 1.19043.27051 2.4375-.09814 3.28809-.97363.85107-.87598 1.18408-2.13232.87842-3.31494-2.7334-10.57324.74561-20.85059 8.65674-25.57373 8.21484-4.90527 18.71533-2.64893 28.08789 6.03613.95703.88672 2.32812 1.16797 3.55762.72803 1.229-.43945 2.11133-1.52588 2.28857-2.81885 1.35449-9.85791 5.95996-16.90869 12.63623-19.34521 7.24609-2.64502 16.09717.28711 24.92334 8.25586.87207.78711 2.08105 1.08496 3.21826.79102 1.1377-.29297 2.05273-1.13721 2.43555-2.24805 2.43115-7.04688 9.83887-10.229 16.10254-10.25684h.09326c7.35889 0 13.11182 3.83984 15.39941 10.28613.40234 1.13379 1.3584 1.98145 2.53223 2.24463 1.17285.26367 2.40039-.09473 3.24902-.94824 6.29346-6.33496 16.16748-8.89111 22.47119-5.81641 6.66699 3.24756 7.11914 11.49707 6.3252 17.8457-.1543 1.23486.35742 2.4585 1.34668 3.21436.98828.75732 2.30566.92871 3.4541.4585 8.85742-3.63428 16.92383-3.1084 22.13184 1.44238 5.34473 4.66943 7.11914 12.90088 4.74512 22.01904-.25684.98682-.07129 2.03613.50977 2.87451.58008.83838 1.49707 1.38135 2.51074 1.48828 5.4082.56836 8.82715 4.21094 10.74219 7.1665 5.60547 8.64893 6.31934 23.12988 1.81934 36.89355-.60059 1.83691.40234 3.81348 2.23926 4.41406 1.83398.59912 3.81348-.40137 4.41504-2.23877 5.20898-15.93506 4.21387-32.36377-2.59961-42.87598-3.1416-4.84668-7.27441-8.09912-12.0957-9.55957 1.70508-10.33301-1.05664-19.6665-7.68066-25.45312-6.1709-5.39258-14.81152-6.90625-24.24609-4.3916-.04102-12.44629-6.41309-17.57471-10.55078-19.59082-7.76221-3.78223-18.6167-1.98779-26.84912 4.0376-4.1167-6.62061-11.44678-10.52051-19.99365-10.51074-8.66162.03809-16.38428 4.14258-20.54688 10.58252-9.75781-7.50977-19.75488-9.89355-28.50146-6.7002-7.69092 2.80664-13.32764 9.6333-15.97119 19.11523-8.92041-6.28027-20.83545-9.68896-31.7876-3.1499-9.23779 5.51514-14.04053 16.39453-12.79785 28.104-10.22119-1.40479-18.29785.52637-24.05664 5.77295-15.27344 13.91553-10.91309 46.96973-6.6958 78.93506 1.39746 10.59521 2.71094 20.61255 3.17285 29.2124-5.75378 3.20068-10.20874 8.49756-11.80273 14.5459-3.91943 14.8916-1.84082 38.77588 6.80566 48.44824 6.49756 7.28467 15.26465 11.57227 23.32861 11.4502 4.58447-.06494 8.8584-1.48828 12.61475-4.16699 4.52075 19.37964 15.61694 36.87598 31.81714 50.12939-.94653 4.42676-1.6958 8.67651-2.25659 12.76123-5.43555 5.20581-10.2771 10.44336-14.54883 15.75415-39.59839 21.45093-82.09387 49.92749-97.62939 98.40259-4.47119 13.95166-.02832 28.95752 11.31787 38.229 26.60156 21.73682 78.48486 36.36328 138.78662 39.12451 6.72998.30859 13.36084.45996 19.8877.45996 51.90918 0 96.65674-9.61328 122.12744-26.60986 1.09033-.72778 2.13525-1.52197 3.13574-2.36523 18.06055 18.21704 46.12061 28.96484 76.19238 28.96484 32.45605 0 62.42969-12.44824 80.17969-33.29883 1.92383-2.25977 2.98242-5.16406 2.98242-8.17871v-16.45459c0-21.46265-7.62671-42.01709-21.51929-58.26318zm-152.26196-201.70605c2.875 0 5.21484 2.33887 5.21484 5.21387v28.2334c0 2.875-2.33984 5.21387-5.21484 5.21387h-4.91992l-.00562-38.66113h4.92554zm-11.91992 38.66113h-34.51953c-2.875 0-5.21387-2.33887-5.21387-5.21387v-28.2334c0-2.875 2.33887-5.21387 5.21387-5.21387h4.99976c-2.06323 2.24756-3.37769 5.63623-3.37769 9.42847 0 6.76733 4.18359 12.25366 9.34424 12.25366s9.34424-5.48633 9.34424-12.25366c0-3.79224-1.3147-7.18091-3.37793-9.42847h17.5813l.00562 38.66113zm-155.98682-56.60693c.44287-7.05176.94482-15.04395 2.21875-22.85205 1.82764-11.20508 8.02734-20.87793 17.45752-27.23682 9.56543-6.45117 21.05811-8.59424 32.3584-6.03809 23.97314 5.42432 49.51123 5.66797 73.58984.71924 7.45996-1.53271 15.11719.35107 21.02148 5.16553 5.92676 4.83154 9.32715 11.98877 9.32812 19.63574l.00342 23.82007c-5.34473-3.85229-11.79639-5.98413-18.52002-5.98413-9.66699 0-18.68555 4.33447-24.74316 11.89209-1.20898 1.5083-.96631 3.71094.54199 4.91992.646.51758 1.41895.76904 2.18652.76904 1.02539 0 2.04199-.44873 2.7334-1.31104 4.72168-5.89111 11.75-9.27002 19.28125-9.27002 7.10449 0 13.82324 3.0481 18.52148 8.36938l.00122 8.34692h-34.51294c-6.73486 0-12.21387 5.479-12.21387 12.21387v15.36499c-7.6167.78711-15.31079.78833-22.9292.00049v-15.36548c0-6.73486-5.479-12.21387-12.21387-12.21387h-46.44043c-6.73486 0-12.21387 5.479-12.21387 12.21387v8.49463c-8.89038.28613-16.40137.10547-22.45801-1.18115 5.44775-5.82031 6.18799-17.51562 7.00195-30.47314zm42.29419 39.62793c5.16064 0 9.34424-5.48633 9.34424-12.25366 0-3.79224-1.3147-7.18091-3.37769-9.42847h25.84961c2.875 0 5.21387 2.33887 5.21387 5.21387v28.2334c0 2.875-2.33887 5.21387-5.21387 5.21387h-46.44043c-2.875 0-5.21387-2.33887-5.21387-5.21387v-28.2334c0-2.875 2.33887-5.21387 5.21387-5.21387h8.65771c-2.06323 2.24756-3.37793 5.63623-3.37793 9.42847 0 6.76733 4.18359 12.25366 9.34448 12.25366zm-66.90698 33.99951c-.21191-1.35449-1.1958-2.46045-2.51611-2.8291-.31152-.08691-.62793-.12891-.94141-.12891-1.01611 0-2.00146.44336-2.67676 1.24512-3.43799 4.08057-7.56641 6.18311-12.27051 6.24951-6.0835.13184-12.84033-3.31934-18.00879-9.11279-6.35986-7.11475-8.96436-27.9209-5.25781-42.00342 1.59375-6.04785 7.67383-11.23193 14.45752-12.32764 8.00684-1.29199 15.70557 3.0332 21.67236 12.18408 2.91321 4.4668 7.78955 7.26172 12.90674 7.44141.02979.01611.05396.03809.08447.05322 6.73145 3.34766 15.08447 4.37842 25.75488 4.37842 2.18726 0 4.47607-.04443 6.86426-.12012v12.73584c0 6.73486 5.479 12.21387 12.21387 12.21387h46.44043c6.73486 0 12.21387-5.479 12.21387-12.21387v-5.82886c3.81104.37012 7.63843.56323 11.46631.56323 3.82715 0 7.65332-.19507 11.46289-.56543v5.83105c0 6.73486 5.479 12.21387 12.21387 12.21387h34.52075l.00073 5.56494c-.00098 21.58105-8.53125 42.03906-24.01953 57.59814-14.7041 14.77246-34.00146 23.24463-52.94189 23.24463-53.9707 0-96.58887-31.41162-103.64014-76.38721zm85.74341 82.20654c1.67163 11.79028 5.81763 21.69019 9.83813 31.27686 1.05322 2.51074 2.04785 4.88232 2.98975 7.27002 1.97266 4.99951 1.20264 10.53223-2.06055 14.80078-3.2373 4.23584-8.33301 6.4126-13.62061 5.82812-21.19775-2.3501-35.64307-9.27783-44.16162-21.18018-9.39258-13.12256-11.49707-32.14868-6.4209-58.04858 15.13721 10.57666 33.59399 17.46021 53.43579 20.05298zm-62.94897-.94629c-.47925 9.0166.15601 17.08301 1.89087 24.26904-5.08569-4.37231-12.29443-5.42725-18.44287-3.15015 4.479-7.17871 9.97266-14.18335 16.552-21.1189zm39.32129 173.51709c-57.97412-2.65479-109.57959-17.04395-134.67773-37.55273-9.10352-7.43848-12.66797-19.47803-9.08105-30.67188 13.15063-41.03296 47.17383-67.30664 81.54663-87.24561-2.86658 4.65942-5.34119 9.39673-7.43726 14.23877-4.34229 10.03125-.44727 21.64453 9.05957 27.01318 4.83374 2.73022 10.34277 5.29248 16.90991 7.85303l-1.08765.37939c-4.91943 1.71582-8.5918 5.56445-10.07568 10.55908-1.4834 4.99463-.50732 10.22412 2.67822 14.34717l62.91382 81.43408c-3.55981-.07153-7.14429-.18921-10.74878-.35449zm52.62305-1.02002c-6.41113.57031-12.99585.97412-19.71436 1.21021-6.80249-22.18042-18.61621-48.16943-31.11963-75.65161-2.63818-5.79932-5.32568-11.70654-8.02979-17.71387-.79395-1.76318-2.8667-2.54785-4.62793-1.75488-1.7627.79297-2.54834 2.86523-1.75488 4.62793 2.70752 6.01611 5.39893 11.93213 8.04102 17.73926 12.05322 26.49268 23.46875 51.59229 30.22437 72.94043-1.98608.03271-3.98389.04883-5.98999.052l-66.27783-85.78833c-1.79248-2.3208-2.3418-5.26367-1.50684-8.07471s2.90186-4.97705 5.67041-5.94287l9.2312-3.21924c.98242.30835 1.99048.46533 2.99243.46533 2.44678 0 4.85156-.89746 6.71533-2.58887l11.8728-10.77441c8.59985 4.63184 19.16479 7.67139 31.65356 9.05566.83447.09277 1.66406.13818 2.48828.13818 5.76782-.00049 11.2168-2.23999 15.32251-6.26172 15.24561 31.28125 20.22607 68.77393 14.80933 111.5415zm7.14185-.7168c5.45239-45.01855-.3811-84.45435-17.35425-117.26929 2.59668-5.47485 2.84912-11.77612.55664-17.58716-.96973-2.45703-2.02539-4.97412-3.04639-7.4082-3.63818-8.67505-7.3811-17.61963-9.08911-27.80493 2.38672.18384 4.79224.29175 7.20776.35181 16.04004 12.68311 32.62305 25.79736 47.65918 38.22559 2.3877 1.97412 3.16699 5.33789 1.81641 8.07178-3.53223 7.15771-10.61572 12.4375-22.96826 17.11914-1.31689.49951-2.20654 1.73975-2.25684 3.14746-.05078 1.4082.74805 2.70898 2.02588 3.30127l20.33887 9.42432c4.28418 1.98438 6.80371 6.6167 6.12793 11.26562-3.92261 27.0127-12.28027 53.39478-24.83545 78.4248-2.03809.26465-4.10205.5083-6.18237.73779zm129.21118-114.99316c4.98975-18.26758 7.97803-50.35156 8.23608-88.23511 7.46265 1.44507 15.55249 2.23071 24.04419 2.23071s16.58105-.78564 24.0437-2.23047c.25684 37.88306 3.24512 69.96191 8.23657 88.23486 1.36523 4.99902-.5 10.21289-4.64258 12.97363-7.43945 4.9585-17.25488 7.68896-27.6377 7.68896-10.38379 0-20.19922-2.73047-27.6377-7.68848-4.14258-2.76123-6.00781-7.9751-4.64258-12.97412zm-2.64917-23.62939c-.6665 5.00146-1.41016 9.58325-2.22437 13.67578-2.21875-2.93579-5.99561-4.57471-9.63916-4.26685 3.11914-3.52734 7.11572-6.70996 11.86353-9.40894zm110.85815 106.32422c0 1.35352-.46582 2.64697-1.3125 3.6416-16.4375 19.30859-44.41895 30.83594-74.84961 30.83594-30.05469 0-57.84766-11.30908-74.34668-30.25293-.86914-.99805-1.34863-2.30615-1.34863-3.68311v-17.01855c13.25098 20.56738 42.49194 34.18848 75.69531 34.18848 23.11035 0 44.56348-6.47656 60.40723-18.23633 1.55176-1.15234 1.87695-3.34424.72461-4.89648-1.15039-1.55127-3.34375-1.87744-4.89648-.72461-14.43359 10.71338-34.93066 16.85742-56.23535 16.85742-35.0498 0-66.25684-16.78906-74.20117-39.92041-.1355-.39453-.34448-.73975-.5918-1.04688 1.97388-13.36816 7.20166-26.08936 15.25439-37.01196 6.65039 19.21387 30.92065 33.50171 59.77197 33.50171 28.27344 0 52.14209-13.72314 59.34619-32.35522 10.73853 14.27539 16.58252 31.62427 16.58252 49.66675v16.45459z"/></svg>