<svg id="Layer_1" enable-background="new 0 0 512 512" viewBox="0 0 512 512" xmlns="http://www.w3.org/2000/svg"><g id="XMLID_1_"><g id="XMLID_4219_"><path id="XMLID_1588_" d="m455 383-38 32h-57l-33-32 14-232 28-32h46l26 32z" fill="#c4c1ab"/><path id="XMLID_1582_" d="m474.6 415-40.6 60h-98.5l-28.1-60 12-32h143.2z" fill="#747e6c"/><path id="XMLID_2535_" d="m327 383h38.3l6.9-187.8c.5-12.4 10.6-22.2 23-22.2h47.1l-1.3-22-26-32h-46l-28 32z" fill="#747e6c"/><path id="XMLID_1586_" d="m204.6 415v60h-167.2v-60l12-32v-28h143.2v28z" fill="#323d2c"/><path id="XMLID_1578_" d="m43.4 399h155.2l-5.6-16v-28h-144v28z" fill="#1c2617"/><path id="XMLID_1589_" d="m455 151h-135l-12-32 35-60h90.5l40.5 60z" fill="#c4c1ab"/><path id="XMLID_1587_" d="m21 415h200v92h-200z" fill="#485143"/><path id="XMLID_1415_" d="m21 415h200v92h-200z" fill="#485143"/><path id="XMLID_1577_" d="m21 415h39.3v92h-39.3z" fill="#323d2c"/><path id="XMLID_1585_" d="m439 5v50h-30v-50h-36v50h-30v-50h-35v114h166v-114z" fill="#ebeadf"/><path id="XMLID_1584_" d="m5 507h232v-16c0-8.8-7.2-16-16-16h-200c-8.8 0-16 7.2-16 16z" fill="#1c2617"/><path id="XMLID_1607_" d="m43.4 507h193.6v-16c0-8.8-7.2-16-16-16h-161.6c-8.8 0-16 7.2-16 16z" fill="#323d2c"/><path id="XMLID_1583_" d="m291 415h200v92h-200z" fill="#c4c1ab"/><path id="XMLID_1299_" d="m343 415h148v60h-148z" fill="#ebeadf"/><path id="XMLID_2501_" d="m474.6 415h-131.6l12.1-32h107.5z" fill="#c4c1ab"/><path id="XMLID_1581_" d="m275 507h232v-16c0-8.8-7.2-16-16-16h-200c-8.8 0-16 7.2-16 16z" fill="#747e6c"/><path id="XMLID_609_" d="m327 507h180v-16c0-8.8-7.2-16-16-16h-148c-8.8 0-16 7.2-16 16z" fill="#c4c1ab"/><path id="XMLID_1580_" d="m221 265.4h-108v-200c59.6 0 108 48.4 108 108z" fill="#485143"/><path id="XMLID_1579_" d="m192.6 383h-171.6v-44l44.8-110.4v-28.4h-60.8v-35l64.2-42 11.5-28.9h32.3c43.9 0 79.6 35.6 79.6 79.6z" fill="#323d2c"/><path id="XMLID_1414_" d="m65.8 200.2c14-.1 27.1-6.8 35.4-18l3.7-4.9v46.7l-44.6 113.7v45.3h-39.3v-44l44.8-110.4z" fill="#1c2617"/><path id="XMLID_1416_" d="m159.5 165.4c8.3 0 15 6.7 15 15v70c0 8.3-6.7 15-15 15-8.3 0-15-6.7-15-15v-70c0-8.3 6.7-15 15-15z" fill="#485143"/><g fill="#c4c1ab"><path id="XMLID_2531_" d="m373 5h18v50h-18z"/><path id="XMLID_2536_" d="m308 5h18v114h-18z"/><path id="XMLID_2537_" d="m439 5h17.5v50h-17.5z"/></g></g><g id="XMLID_3894_"><g id="XMLID_4_"><path id="XMLID_3553_" d="m455 388h-128c-1.4 0-2.7-.6-3.6-1.6s-1.4-2.4-1.4-3.7l13.7-226.7h-15.7c-2.1 0-4-1.3-4.7-3.2l-12-32c-.6-1.5-.4-3.3.6-4.6.9-1.3 2.5-2.2 4.1-2.2h166c1.8 0 3.5 1 4.3 2.5.9 1.6.9 3.5 0 5l-19 32c-.9 1.5-2.5 2.4-4.3 2.4h-8.7l13.7 226.8c.1 1.4-.4 2.7-1.4 3.7-.9 1-2.2 1.6-3.6 1.6zm-122.7-10h117.4l-13.7-226.7c-.1-1.4.4-2.7 1.4-3.7.9-1 2.3-1.6 3.6-1.6h11.2l13.1-22h-150l8.3 22h97.4v10h-75.3z" fill="#060d1a"/></g><g id="XMLID_411_"><path id="XMLID_3550_" d="m221 480h-200c-2.8 0-5-2.2-5-5v-60c0-2.8 2.2-5 5-5h200c2.8 0 5 2.2 5 5v60c0 2.8-2.2 5-5 5zm-195-10h190v-50h-190z" fill="#060d1a"/></g><g id="XMLID_410_"><path id="XMLID_3547_" d="m204.6 420h-167.2c-1.6 0-3.2-.8-4.1-2.2-.9-1.3-1.1-3.1-.6-4.6l12.1-32c.7-1.9 2.6-3.2 4.7-3.2h143.1c2.1 0 3.9 1.3 4.7 3.2l12.1 32c.6 1.5.4 3.3-.6 4.6-1 1.4-2.5 2.2-4.2 2.2zm-160-10h152.8l-8.3-22h-136.2z" fill="#060d1a"/></g><g id="XMLID_405_"><path id="XMLID_3544_" d="m474 124h-166c-2.8 0-5-2.2-5-5v-114c0-2.8 2.2-5 5-5h35c2.8 0 5 2.2 5 5v45h20v-45c0-2.8 2.2-5 5-5h36c2.8 0 5 2.2 5 5v45h20v-45c0-2.8 2.2-5 5-5h35c2.8 0 5 2.2 5 5v114c0 2.8-2.2 5-5 5zm-161-10h156v-104h-25v45c0 2.8-2.2 5-5 5h-30c-2.8 0-5-2.2-5-5v-45h-26v45c0 2.8-2.2 5-5 5h-30c-2.8 0-5-2.2-5-5v-45h-25z" fill="#060d1a"/></g><g id="XMLID_26_"><path id="XMLID_3541_" d="m237 512h-232c-2.8 0-5-2.2-5-5v-16c0-11.6 9.4-21 21-21h200c11.6 0 21 9.4 21 21v16c0 2.8-2.2 5-5 5zm-227-10h222v-11c0-6.1-4.9-11-11-11h-200c-6.1 0-11 4.9-11 11z" fill="#060d1a"/></g><g id="XMLID_414_"><path id="XMLID_3537_" d="m491 480h-200c-2.8 0-5-2.2-5-5v-60c0-2.8 2.2-5 5-5h200c2.8 0 5 2.2 5 5v60c0 2.8-2.2 5-5 5zm-195-10h190v-50h-190z" fill="#060d1a"/></g><g id="XMLID_413_"><path id="XMLID_3534_" d="m474.6 420h-167.2c-1.6 0-3.2-.8-4.1-2.2-.9-1.3-1.1-3.1-.6-4.6l12.1-32c.7-1.9 2.6-3.2 4.7-3.2h143.1c2.1 0 3.9 1.3 4.7 3.2l12.1 32c.6 1.5.4 3.3-.6 4.6-1 1.4-2.5 2.2-4.2 2.2zm-160-10h152.8l-8.3-22h-136.2z" fill="#060d1a"/></g><g id="XMLID_408_"><path id="XMLID_3531_" d="m507 512h-232c-2.8 0-5-2.2-5-5v-16c0-11.6 9.4-21 21-21h200c11.6 0 21 9.4 21 21v16c0 2.8-2.2 5-5 5zm-227-10h222v-11c0-6.1-4.9-11-11-11h-200c-6.1 0-11 4.9-11 11z" fill="#060d1a"/></g><g id="XMLID_416_"><g id="XMLID_415_"><path id="XMLID_738_" d="m66 205v-10c12.2 0 23.8-5.8 31.1-15.6l3.8-5.1 8 6-3.8 5.1c-9.1 12.2-23.8 19.6-39.1 19.6z" fill="#060d1a"/></g><g id="XMLID_770_"><path id="XMLID_728_" d="m192.6 388h-171.6c-2.8 0-5-2.2-5-5v-44c0-.6.1-1.3.4-1.9l44.4-109.4v-22.4h-55.8c-1.3 0-2.6-.5-3.5-1.5-.9-.9-1.5-2.2-1.5-3.5v-35c0-1.7.9-3.3 2.3-4.2l62.9-41.1 10.9-27.4c.8-1.9 2.6-3.1 4.6-3.1h27.3v-24c0-2.8 2.2-5 5-5 62.3 0 113 50.7 113 113v92c0 2.8-2.2 5-5 5h-28.3c-2.7 0-4.9-2.2-5-4.9l-.1-4.6v-.1-86.8c0-41.1-33.4-74.6-74.6-74.6h-28.9l-10.3 25.7c-.4 1-1 1.8-1.9 2.3l-62 40.5v27.3h55.8c1.3 0 2.6.5 3.5 1.5.9.9 1.5 2.2 1.5 3.5v28.4c0 .6-.1 1.3-.4 1.9l-44.3 109.4v38h161.6v-92.6h10v97.6c0 2.8-2.3 5-5 5zm5-127.6h18.4v-87c0-55.1-43.5-100.3-98-102.9v19c44.3 2.6 79.6 39.5 79.6 84.4z" fill="#060d1a"/></g></g></g></g></svg>