<svg id="Layer_1" enable-background="new 0 0 64 64" viewBox="0 0 64 64" xmlns="http://www.w3.org/2000/svg"><g><path d="m44 55.1h-.1v-2.5c0-1.8-1.4-3.2-3.2-3.2h-.5c-2.7-7.2-3.8-17.2-4-24.1h1.2c1.2 0 2.1-.9 2.1-2.1v-2.4c0-1.2-1-2.1-2.1-2.1h-.5v-5.6c0-1.3-1.1-2.4-2.4-2.4h-1.8v-3.3h4.2c.4 0 .8-.3.8-.8 0-.4-.3-.8-.8-.8h-4.2v-3c.1-.4-.3-.8-.7-.8s-.8.3-.8.8v3.1h-4.2c-.4 0-.8.3-.8.8 0 .4.3.8.8.8h4.2v3.4h-1.8c-1.3 0-2.3 1.1-2.3 2.4v5.6h-.5c-1.2 0-2.1 1-2.1 2.1v2.4c0 1.2.9 2.1 2.1 2.1h1.2c-.2 6.8-1.4 16.9-4 24.1h-.5c-1.8 0-3.2 1.4-3.2 3.2v2.5h-.1c-1.2 0-2.2 1-2.2 2.2v2.6c0 1.2 1 2.2 2.2 2.2h24c1.2 0 2.2-1 2.2-2.2v-2.6c0-1.5-1-2.4-2.2-2.4zm-17.4-31.2c-.3 0-.6-.3-.6-.6v-2.4c0-.3.3-.6.6-.6h10.7c.3 0 .6.3.6.6v2.4c0 .3-.3.6-.6.6h-1.8s-.1 0-.2 0h-6.7-.1zm15.8 31.2h-20.8v-2.5c0-.9.8-1.7 1.7-1.7h17.3c.9 0 1.7.8 1.7 1.7v2.5z"/><path d="m61.6 38.4h-.3v-1.3c0-1.8-1.5-3.3-3.3-3.3h-.3c-.5-1-.7-5.7-.5-9.9h.8c1.4 0 2.6-1.2 2.6-2.6s-1.2-2.6-2.6-2.6h-.2c.5-.8.7-1.8.7-2.7 0-3.1-2.5-5.6-5.6-5.6s-5.6 2.5-5.6 5.6c0 1 .3 1.9.8 2.7h-.2c-1.4 0-2.6 1.2-2.6 2.6s1.1 2.6 2.6 2.6h.8c.1 4.3 0 9-.5 9.9-1.8 0-3.2 1.5-3.2 3.3v1.3h-.3c-1.2 0-2.1.9-2.1 2.1v1.9c0 1.2 1 2.1 2.1 2.1h17.2c1.2 0 2.1-.9 2.1-2.1v-1.9c-.2-1.2-1.2-2.1-2.4-2.1zm-13.8-16c-.6 0-1.1-.5-1.1-1.1s.5-1.1 1.1-1.1h10.2c.6 0 1.1.5 1.1 1.1s-.5 1.1-1.1 1.1zm12 16h-13.5v-1.3c0-1 .8-1.8 1.8-1.8h9.9c1 0 1.8.8 1.8 1.8z"/><path d="m19.5 38.4h-.3v-1.3c0-1.8-1.5-3.3-3.3-3.3h-.3c-.5-1-.7-5.7-.5-9.9h.8c1.4 0 2.6-1.2 2.6-2.6s-1.2-2.6-2.6-2.6h-.2c.5-.8.7-1.8.7-2.7 0-3.1-2.5-5.6-5.6-5.6s-5.6 2.5-5.6 5.6c0 1 .3 1.9.7 2.7h-.2c-1.4 0-2.6 1.2-2.6 2.6s1.2 2.6 2.6 2.6h.8c.1 4.3 0 9-.5 9.9-1.8 0-3.2 1.5-3.2 3.3v1.3h-.4c-1.2 0-2.1.9-2.1 2.1v1.9c0 1.2.9 2.1 2.1 2.1h17.2c1.2 0 2.1-.9 2.1-2.1v-1.9c-.1-1.2-1-2.1-2.2-2.1zm-13.8-16c-.6 0-1.1-.5-1.1-1.1s.5-1.1 1.1-1.1h10.2c.6 0 1.1.5 1.1 1.1s-.5 1.1-1.1 1.1zm12 16h-13.5v-1.3c0-1 .8-1.8 1.8-1.8h9.9c1 0 1.8.8 1.8 1.8z"/></g></svg>