<svg id="Layer_1" enable-background="new 0 0 512 512" viewBox="0 0 512 512" xmlns="http://www.w3.org/2000/svg"><g id="XMLID_1_"><g id="XMLID_3894_"><g id="XMLID_4_"><path id="XMLID_3553_" d="m455 388h-128c-1.4 0-2.7-.6-3.6-1.6s-1.4-2.4-1.4-3.7l13.7-226.7h-15.7c-2.1 0-4-1.3-4.7-3.2l-12-32c-.6-1.5-.4-3.3.6-4.6.9-1.3 2.5-2.2 4.1-2.2h166c1.8 0 3.5 1 4.3 2.5.9 1.6.9 3.5 0 5l-19 32c-.9 1.5-2.5 2.4-4.3 2.4h-8.7l13.7 226.8c.1 1.4-.4 2.7-1.4 3.7-.9 1-2.2 1.6-3.6 1.6zm-122.7-10h117.4l-13.7-226.7c-.1-1.4.4-2.7 1.4-3.7.9-1 2.3-1.6 3.6-1.6h11.2l13.1-22h-150l8.3 22h97.4v10h-75.3z" fill="#0d0d0d"/></g><g id="XMLID_411_"><path id="XMLID_3550_" d="m221 480h-200c-2.8 0-5-2.2-5-5v-60c0-2.8 2.2-5 5-5h200c2.8 0 5 2.2 5 5v60c0 2.8-2.2 5-5 5zm-195-10h190v-50h-190z" fill="#0d0d0d"/></g><g id="XMLID_410_"><path id="XMLID_3547_" d="m204.6 420h-167.2c-1.6 0-3.2-.8-4.1-2.2-.9-1.3-1.1-3.1-.6-4.6l12.1-32c.7-1.9 2.6-3.2 4.7-3.2h143.1c2.1 0 3.9 1.3 4.7 3.2l12.1 32c.6 1.5.4 3.3-.6 4.6-1 1.4-2.5 2.2-4.2 2.2zm-160-10h152.8l-8.3-22h-136.2z" fill="#0d0d0d"/></g><g id="XMLID_405_"><path id="XMLID_3544_" d="m474 124h-166c-2.8 0-5-2.2-5-5v-114c0-2.8 2.2-5 5-5h35c2.8 0 5 2.2 5 5v45h20v-45c0-2.8 2.2-5 5-5h36c2.8 0 5 2.2 5 5v45h20v-45c0-2.8 2.2-5 5-5h35c2.8 0 5 2.2 5 5v114c0 2.8-2.2 5-5 5zm-161-10h156v-104h-25v45c0 2.8-2.2 5-5 5h-30c-2.8 0-5-2.2-5-5v-45h-26v45c0 2.8-2.2 5-5 5h-30c-2.8 0-5-2.2-5-5v-45h-25z" fill="#0d0d0d"/></g><g id="XMLID_26_"><path id="XMLID_3541_" d="m237 512h-232c-2.8 0-5-2.2-5-5v-16c0-11.6 9.4-21 21-21h200c11.6 0 21 9.4 21 21v16c0 2.8-2.2 5-5 5zm-227-10h222v-11c0-6.1-4.9-11-11-11h-200c-6.1 0-11 4.9-11 11z" fill="#0d0d0d"/></g><g id="XMLID_414_"><path id="XMLID_3537_" d="m491 480h-200c-2.8 0-5-2.2-5-5v-60c0-2.8 2.2-5 5-5h200c2.8 0 5 2.2 5 5v60c0 2.8-2.2 5-5 5zm-195-10h190v-50h-190z" fill="#0d0d0d"/></g><g id="XMLID_413_"><path id="XMLID_3534_" d="m474.6 420h-167.2c-1.6 0-3.2-.8-4.1-2.2-.9-1.3-1.1-3.1-.6-4.6l12.1-32c.7-1.9 2.6-3.2 4.7-3.2h143.1c2.1 0 3.9 1.3 4.7 3.2l12.1 32c.6 1.5.4 3.3-.6 4.6-1 1.4-2.5 2.2-4.2 2.2zm-160-10h152.8l-8.3-22h-136.2z" fill="#0d0d0d"/></g><g id="XMLID_408_"><path id="XMLID_3531_" d="m507 512h-232c-2.8 0-5-2.2-5-5v-16c0-11.6 9.4-21 21-21h200c11.6 0 21 9.4 21 21v16c0 2.8-2.2 5-5 5zm-227-10h222v-11c0-6.1-4.9-11-11-11h-200c-6.1 0-11 4.9-11 11z" fill="#0d0d0d"/></g><g id="XMLID_416_"><g id="XMLID_415_"><path id="XMLID_738_" d="m66 205v-10c12.2 0 23.8-5.8 31.1-15.6l3.8-5.1 8 6-3.8 5.1c-9.1 12.2-23.8 19.6-39.1 19.6z" fill="#0d0d0d"/></g><g id="XMLID_770_"><path id="XMLID_728_" d="m192.6 388h-171.6c-2.8 0-5-2.2-5-5v-44c0-.6.1-1.3.4-1.9l44.4-109.4v-22.4h-55.8c-1.3 0-2.6-.5-3.5-1.5-.9-.9-1.5-2.2-1.5-3.5v-35c0-1.7.9-3.3 2.3-4.2l62.9-41.1 10.9-27.4c.8-1.9 2.6-3.1 4.6-3.1h27.3v-24c0-2.8 2.2-5 5-5 62.3 0 113 50.7 113 113v92c0 2.8-2.2 5-5 5h-28.3c-2.7 0-4.9-2.2-5-4.9l-.1-4.6v-.1-86.8c0-41.1-33.4-74.6-74.6-74.6h-28.9l-10.3 25.7c-.4 1-1 1.8-1.9 2.3l-62 40.5v27.3h55.8c1.3 0 2.6.5 3.5 1.5.9.9 1.5 2.2 1.5 3.5v28.4c0 .6-.1 1.3-.4 1.9l-44.3 109.4v38h161.6v-92.6h10v97.6c0 2.8-2.3 5-5 5zm5-127.6h18.4v-87c0-55.1-43.5-100.3-98-102.9v19c44.3 2.6 79.6 39.5 79.6 84.4z" fill="#0d0d0d"/></g></g></g></g></svg>