<svg id="Layer_1" viewBox="0 0 512 512" xmlns="http://www.w3.org/2000/svg" data-name="Layer 1"><g fill="#3fc3fc"><path d="m486.888 167.132c0-15.433-12.555-27.987-27.988-27.987s-27.987 12.555-27.987 27.987 12.555 27.987 27.987 27.987 27.988-12.555 27.988-27.987z"/><path d="m256 22c-15.432 0-27.987 12.555-27.987 27.987s12.555 27.987 27.987 27.987 27.988-12.555 27.988-27.987-12.555-27.987-27.988-27.987z"/><path d="m430.913 401.42c0 15.433 12.555 27.987 27.987 27.987s27.988-12.555 27.988-27.987-12.555-27.987-27.988-27.987-27.987 12.555-27.987 27.987z"/><path d="m140.367 458.457v22.037c0 5.152 3.653 9.506 7.977 9.506h191.128c4.323 0 7.976-4.354 7.976-9.506v-22.037c0-5.152-3.653-9.505-7.976-9.505h-191.129c-4.324 0-7.977 4.353-7.977 9.505z"/><path d="m53.1 139.145c-15.433 0-27.988 12.555-27.988 27.987s12.555 27.987 27.988 27.987 27.987-12.555 27.987-27.987-12.555-27.987-27.987-27.987z"/><path d="m25.112 401.42c0 15.433 12.555 27.987 27.988 27.987s27.987-12.555 27.987-27.987-12.555-27.987-27.987-27.987-27.988 12.555-27.988 27.987z"/></g><path d="m300.948 221.715c9.315-13.413 12.61-29.936 9.041-46.085-.712-3.227-3.899-5.271-7.128-4.569-26.613 5.761-48.736 24.633-58.751 49.773-26.72-1.743-49.26 5.011-65.406 19.625-17.109 15.486-26.152 38.826-26.152 67.495v128.998h-4.209c-11.015 0-19.977 9.647-19.977 21.505v22.037c0 11.858 8.961 21.506 19.977 21.506h191.128c11.015 0 19.976-9.647 19.976-21.506v-22.037c0-11.857-8.961-21.505-19.976-21.505h-4.209v-17.71c0-2.139-1.139-4.116-2.988-5.189-24.646-14.303-43.27-36.769-52.2-62.6 11.652 1.526 23.552.175 34.607-3.969 5.825 7.558 14.3 12.604 23.92 14.098 11.411 1.771 22.803-1.708 31.254-9.548.612-.567 1.099-1.257 1.429-2.023l11.857-27.502c.892-2.068.55-4.461-.884-6.197-11.578-14.014-38.928-45.833-81.311-94.597zm38.523 227.237c4.323 0 7.976 4.353 7.976 9.505v22.037c0 5.152-3.653 9.506-7.976 9.506h-191.128c-4.324 0-7.977-4.354-7.977-9.506v-22.037c0-5.152 3.653-9.505 7.977-9.505zm21.323-104.918c-5.638 4.765-12.988 6.833-20.351 5.69-7.764-1.206-14.429-5.809-18.287-12.628-1.536-2.715-4.895-3.8-7.726-2.499-12.825 5.889-27.342 7.054-40.927 3.303-12.065-5.429-29.876-20.361-36.52-33.473-1.498-2.957-5.109-4.137-8.064-2.64-2.956 1.497-4.138 5.107-2.64 8.063 7.491 14.782 26.093 30.881 40.113 37.95 8.377 30.616 28.891 57.609 56.869 74.843v14.308h-158.709v-128.998c0-25.187 7.678-45.449 22.205-58.599 14.495-13.119 35.528-18.722 60.823-16.196 2.795.267 5.406-1.416 6.291-4.081 7.071-21.315 24.142-37.953 45.351-44.648 1.039 12.145-2.688 24.158-10.616 33.711-1.877 2.263-1.839 5.551.089 7.769 41.454 47.68 68.996 79.675 81.972 95.227z" fill="#195fae"/><path d="m498.888 167.132c0-22.049-17.938-39.987-39.988-39.987-12.617 0-23.88 5.88-31.214 15.037l-134.456-77.628c1.774-4.517 2.759-9.427 2.759-14.565 0-22.049-17.938-39.987-39.988-39.987s-39.987 17.938-39.987 39.987c0 5.138.985 10.048 2.759 14.565l-134.459 77.627c-7.334-9.157-18.597-15.037-31.214-15.037-22.049 0-39.988 17.938-39.988 39.987 0 20.01 14.775 36.632 33.988 39.536v155.216c-19.213 2.904-33.988 19.526-33.988 39.536 0 22.049 17.938 39.987 39.988 39.987s39.987-17.938 39.987-39.987c0-8.865-2.904-17.062-7.804-23.699l28.131-28.13c2.343-2.343 2.343-6.142 0-8.484-2.343-2.344-6.142-2.344-8.485 0l-28.13 28.13c-5.111-3.773-11.145-6.362-17.698-7.353v-155.215c6.554-.99 12.588-3.58 17.699-7.353l32.657 32.658c1.172 1.172 2.707 1.758 4.243 1.758s3.071-.586 4.243-1.758c2.343-2.343 2.343-6.142 0-8.484l-32.658-32.658c4.9-6.637 7.804-14.834 7.804-23.698 0-5.139-.985-10.049-2.759-14.566l134.455-77.63c7.334 9.157 18.598 15.038 31.215 15.038s23.881-5.88 31.215-15.037l134.456 77.628c-1.774 4.517-2.759 9.427-2.759 14.566 0 8.865 2.904 17.061 7.804 23.698l-32.658 32.658c-2.343 2.343-2.343 6.142 0 8.484 1.172 1.172 2.707 1.758 4.243 1.758s3.071-.586 4.243-1.758l32.657-32.658c5.11 3.773 11.145 6.363 17.698 7.353v155.216c-6.553.99-12.587 3.58-17.698 7.353l-28.13-28.13c-2.344-2.344-6.143-2.344-8.485 0-2.343 2.343-2.343 6.142 0 8.484l28.131 28.13c-4.901 6.637-7.804 14.834-7.804 23.699 0 22.049 17.938 39.987 39.987 39.987s39.988-17.938 39.988-39.987c0-20.01-14.775-36.632-33.988-39.536v-155.215c19.213-2.904 33.988-19.526 33.988-39.536zm-417.801 234.288c0 15.433-12.555 27.987-27.987 27.987s-27.988-12.555-27.988-27.987 12.555-27.987 27.988-27.987 27.987 12.555 27.987 27.987zm-27.987-206.301c-15.433 0-27.988-12.555-27.988-27.987s12.555-27.987 27.988-27.987 27.987 12.555 27.987 27.987-12.555 27.987-27.987 27.987zm202.9-117.145c-15.432 0-27.987-12.555-27.987-27.987s12.555-27.987 27.987-27.987 27.988 12.555 27.988 27.987-12.555 27.987-27.988 27.987zm230.888 323.445c0 15.433-12.555 27.987-27.988 27.987s-27.987-12.555-27.987-27.987 12.555-27.987 27.987-27.987 27.988 12.555 27.988 27.987zm-27.988-206.301c-15.432 0-27.987-12.555-27.987-27.987s12.555-27.987 27.987-27.987 27.988 12.555 27.988 27.987-12.555 27.987-27.988 27.987z" fill="#195fae"/></svg>