<svg id="Layer_1" viewBox="0 0 512 512" xmlns="http://www.w3.org/2000/svg" data-name="Layer 1"><path d="m158.545 430.954v-122.995c0-53.32 32.995-86.428 89.631-80.759 8.447-25.484 29.736-44.589 55.956-50.287 3.515 15.902-.51 32.542-10.914 45.071 44.419 51.08 72.567 83.792 84.416 98.135-7.909 18.34-11.849 27.524-11.849 27.524-14.91 13.805-38.863 10.091-48.841-7.597-14.825 6.803-30.869 7.654-45.468 3.515 7.88 31.748 29.509 59.272 57.799 75.685v11.707h-170.73z" fill="#283167" fill-rule="evenodd"/><path d="m148.34 442.945h191.14c7.682 0 13.975 6.973 13.975 15.505v22.054c0 8.504-6.293 15.505-13.975 15.505h-191.14c-7.682 0-13.975-7.001-13.975-15.505v-22.054c0-8.532 6.293-15.505 13.975-15.505z" fill="#283167" fill-rule="evenodd"/><path d="m47.087 355.808v-143.093c3.997.539 8.022.539 12.019 0v143.093c-3.997-.51-8.022-.51-12.019 0zm42.491-216.652 123.931-71.546c1.559 3.713 3.572 7.2 5.981 10.346l-123.902 71.546c-1.559-3.713-3.572-7.2-6.01-10.346zm208.913-71.546c41.301 23.868 82.602 47.679 123.902 71.546-2.409 3.146-4.422 6.633-5.981 10.346-41.329-23.839-82.602-47.707-123.902-71.546 2.409-3.146 4.422-6.633 5.981-10.346zm166.422 145.105v143.093c-3.997-.51-8.022-.51-12.019 0v-143.093c3.997.539 8.022.539 12.019 0z" fill="#ec504e"/><g fill="#283167"><path d="m81.102 364.935 23.839-23.839c2.324-2.324 6.123-2.324 8.476 0 2.324 2.353 2.324 6.151 0 8.504l-23.839 23.811c-2.438-3.175-5.301-6.038-8.476-8.476zm349.796-161.319-28.347 28.346c-2.353 2.353-6.151 2.353-8.504 0-2.324-2.324-2.324-6.123 0-8.476l28.375-28.375c2.438 3.203 5.301 6.038 8.476 8.504zm-8.476 169.795-23.839-23.811c-2.353-2.353-2.353-6.151 0-8.504 2.353-2.324 6.151-2.324 8.476 0l23.839 23.839c-3.175 2.438-6.038 5.301-8.476 8.476zm-332.844-178.299 28.375 28.375c2.324 2.353 2.324 6.151 0 8.476-2.353 2.353-6.151 2.353-8.504 0l-28.346-28.346c3.175-2.466 6.038-5.301 8.476-8.504z"/><path d="m458.904 367.43c18.765 0 33.988 15.222 33.988 33.988s-15.222 33.987-33.988 33.987-33.987-15.222-33.987-33.987 15.222-33.988 33.987-33.988zm-202.904-351.439c18.765 0 33.987 15.222 33.987 33.987s-15.222 33.988-33.987 33.988-33.988-15.222-33.988-33.988 15.222-33.987 33.988-33.987zm202.904 117.156c18.765 0 33.988 15.222 33.988 33.988s-15.222 33.987-33.988 33.987-33.987-15.222-33.987-33.987 15.222-33.988 33.987-33.988zm-405.808 0c18.765 0 33.987 15.222 33.987 33.988s-15.222 33.987-33.987 33.987-33.987-15.222-33.987-33.987 15.222-33.988 33.987-33.988zm0 234.283c18.765 0 33.987 15.222 33.987 33.988s-15.222 33.987-33.987 33.987-33.987-15.222-33.987-33.987 15.222-33.988 33.987-33.988z" fill-rule="evenodd"/></g></svg>