<svg id="Layer_1" enable-background="new 0 0 512 512" viewBox="0 0 512 512" xmlns="http://www.w3.org/2000/svg"><g><path d="m317.44 448.8v-13.86c0-42.44-23.23-81.47-60.52-101.72-19.558-10.623-35.398-27.208-45.35-47.1l-20.099-12.712-30.003 175.392z" fill="#0a2c33"/><path d="m294.52 127.35-36.27-49.65h-96.782l30.003 194.408 9.959-16.118 45.5.13 58.59 28.64h12.06c30.13 0 54.56-24.43 54.56-54.56v-15.21z" fill="#0a2c33"/><path d="m191.471 11.72c-18.691 0-34.701 6.92-46.451 18.11-11.76 11.19-19.25 26.65-19.25 43.73v4.34c-78.44 80.22-84.18 238.14-56.16 339.92l8.52 30.98h113.341v-175.392l-.577-.365.577-.934v-194.409z" fill="#0f424d"/><path d="m354.735 427.352h-163.264l-22.854 64.052h186.118z" fill="#145866"/><path d="m28.206 427.352h163.265v64.052h-163.265z" fill="#196e80"/><path d="m384.043 482h-192.572l-13.152 15 13.152 15h192.572z" fill="#0a2c33"/><path d="m0 482h191.471v30h-191.471z" fill="#0f424d"/><path d="m211.57 286.12h-6.88c-40.08 0-72.68-32.66-72.68-72.82h30c0 22.51 17.41 41.02 39.42 42.69l.67 3.08c2.02 9.46 5.21 18.55 9.47 27.05z" fill="#196e80"/><path d="m496.88 123.63v26.45c0 22.05-17.87 39.92-39.92 39.92l-17.96-86.872z" fill="#0a2c33"/><path d="m456.96 109.489v80.511c-22.05 0-39.92-17.87-39.92-39.92v-26.42z" fill="#0f424d"/><path d="m512 55.04c0 8.25-1.82 16.07-5.07 23.09-6.48 13.96-10.05 30.1-10.05 45.5h-39.92l-17.96-51.907 17.96-71.723c30.4 0 55.04 24.64 55.04 55.04z" fill="#fbc009"/><path d="m456.96 0v123.63l-39.92.03c0-15.51-3.08-30.96-9.77-44.95-3.9-8.16-5.85-17.42-5.24-27.2 1.8-28.72 25.99-51.42 54.76-51.51h.17z" fill="#f5e12e"/></g><g/><g/><g/><g/><g/><g/><g/><g/><g/><g/><g/><g/><g/><g/><g/></svg>