<svg id="Capa_1" enable-background="new 0 0 512.001 512.001" viewBox="0 0 512.001 512.001" xmlns="http://www.w3.org/2000/svg"><g><path clip-rule="evenodd" d="m183.556 123.302c0-43.403 35.511-78.913 78.913-78.913h36.492v-44.389h-36.492c-67.902 0-123.302 55.4-123.302 123.302 0 21.689 2.361 42.624 8.271 63.515h44.168c-4.07-15.196-8.05-33.698-8.05-63.515z" fill="#fff69b" fill-rule="evenodd"/><g fill="#020288"><path d="m489.288 388.723c-3.786-13.028-17.563-24.895-38.877-20.152l-.176.041-85.457 20.634c-1.419-6.303-4.827-11.919-9.836-16.105-5.873-4.908-13.242-7.226-20.771-6.533-5.014.464-21.951 2.341-39.883 4.328-17.046 1.889-34.673 3.843-39.503 4.288-10.021.928-24.188-1.322-39.19-3.701-25.879-4.105-55.209-8.759-84.225-2.293-34.672 7.726-60.347 29.477-78.491 66.495l-30.327 61.874c-2.431 4.959-.381 10.95 4.578 13.381 1.416.694 2.916 1.022 4.394 1.022 3.696 0 7.251-2.058 8.987-5.601l30.327-61.874c34.436-70.256 91.379-61.224 141.624-53.252 16.983 2.693 31.649 5.016 44.163 3.864 5.012-.463 21.942-2.34 39.866-4.326 17.054-1.89 34.688-3.844 39.52-4.29 2.18-.208 4.349.496 6.106 1.964 1.944 1.625 3.139 3.946 3.363 6.535.143 1.645.521 6.012-11.016 11.007-25.11 10.871-51.775 19.985-73.157 25.006-5.376 1.263-8.712 6.645-7.449 12.021s6.646 8.715 12.021 7.449c22.485-5.279 50.38-14.801 76.531-26.123 9.113-3.945 14.829-8.698 18.295-13.579l94.127-22.727c7.915-1.738 13.609.588 15.249 6.228 1.309 4.502-.468 10.163-7.376 12.68-7.44 2.606-25.192 9.873-47.65 19.065-29.748 12.176-66.771 27.33-96.25 38.384-36.031 13.51-46.207 15.131-83.77 13.34l-59.645-2.845c-3.6-.173-7.02 1.609-8.94 4.663l-10.749 17.083c-2.941 4.674-1.536 10.848 3.139 13.789 4.675 2.942 10.848 1.537 13.789-3.139l7.64-12.142 53.813 2.566c40.3 1.924 53.161-.123 91.744-14.59 29.759-11.158 66.935-26.374 96.806-38.602 21.366-8.745 39.819-16.299 46.732-18.716.032-.012.065-.022.098-.035 18.181-6.567 23.736-23.627 19.826-37.082z"/><path d="m175.552 287.182c5.522 0 10-4.478 10-10v-29.457h157.555v29.457c0 5.522 4.478 10 10 10s10-4.478 10-10v-39.457c0-5.523-4.478-10-10-10h-14.816c-2.112-33.979-25.273-52.734-42.4-66.601-7.329-5.935-14.349-11.619-17.613-16.875 14.861-3.136 24.544-4.435 33.749 4.769l10.386 10.386c4.729 4.729 10.968 7.448 17.567 7.654 7.041.225 13.726-2.471 18.833-7.578l16.646-16.646c10.118-10.119 9.79-26.3-.748-36.838l-23.505-23.504c-2.203-26.894-24.794-48.104-52.246-48.104h-36.491c-49.027 0-88.914 39.886-88.914 88.914 0 36.104 5.778 56.831 10.422 73.486 3.038 10.897 5.519 19.797 6.105 30.938h-14.53c-5.522 0-10 4.477-10 10v39.457c0 5.521 4.478 9.999 10 9.999zm27.691-95.765c-4.541-16.287-9.688-34.747-9.688-68.115 0-37.999 30.915-68.914 68.914-68.914h36.491c17.878 0 32.422 14.544 32.422 32.422 0 2.652 1.054 5.196 2.929 7.071l26.258 26.257c2.695 2.695 3.01 6.292.749 8.554l-16.647 16.647c-1.194 1.195-2.562 1.775-4.063 1.73-1.474-.046-2.95-.705-4.052-1.806l-10.386-10.387c-17.533-17.53-37.964-13.186-52.883-10.013-16.311 3.468-22.028 3.822-27.312-5.329-2.761-4.782-8.874-6.422-13.66-3.66-4.783 2.761-6.422 8.877-3.66 13.66 7.842 13.583 18.488 17.365 29.018 17.522 3.647 11.808 14.369 20.49 25.634 29.611 16.19 13.109 32.896 26.636 34.933 51.057h-108.137c-.61-13.885-3.655-24.811-6.86-36.307z"/><path d="m298.954 97.425h.007c5.522 0 9.996-4.477 9.996-10s-4.48-10-10.003-10-10 4.477-10 10 4.477 10 10 10z"/></g><path clip-rule="evenodd" d="m150.723 277.013h227.215v54.592h-227.215z" fill="#fff69b" fill-rule="evenodd"/></g><g/><g/><g/><g/><g/><g/><g/><g/><g/><g/><g/><g/><g/><g/><g/></svg>