<svg id="Layer_1" enable-background="new 0 0 56 56" height="512" viewBox="0 0 56 56" width="512" xmlns="http://www.w3.org/2000/svg"><g><path d="m44.55 42.28c-1.3-1.04-2.97-1.44-4.6-1.08l-1.92.42.16-1.61c.7-.12 1.42-.3 2.17-.55 1.16-.39 1.98-1.07 2.44-2.05.82-1.75.29-4.02-.32-5.68.2-.8-.04-1.69-.75-2.55.28-1.88-.39-3.54-1.99-4.94.02-2.12-1.04-3.61-3.16-4.47-.32-.81-1.31-1.78-2.39-2.06-.95-.24-1.84.06-2.51.85-.08.1-.2.22-.32.34v-1.23c1.16-.78 2.02-1.96 2.41-3.34.07.01.14.02.21.02 1.31 0 2.38-1.07 2.38-2.39 0-1.31-1.07-2.38-2.38-2.38-.21-3.1-2.81-5.58-5.98-5.58s-5.77 2.48-5.97 5.6c-1.31 0-2.38 1.07-2.38 2.38 0 1.32 1.07 2.39 2.38 2.39.07 0 .14-.01.21-.02.39 1.38 1.25 2.56 2.41 3.34v1.2c-2.63.26-6.21.97-8.11 2.92-3.17 3.23-3.73 12.48-3.75 12.88 0 .05-.1 4.52 4.87 5.08.04 0 .09 0 .13.01l.18 1.85-1.92-.42c-1.62-.36-3.3.04-4.6 1.08s-2.04 2.59-2.04 4.26c0 3.01 2.45 5.46 5.46 5.46h26.27c3.01 0 5.46-2.45 5.46-5.46-.01-1.67-.75-3.23-2.05-4.27zm-2.72-9.44-.03.06c.37 1.23.66 2.88.09 4.09-.35.72-.95 1.22-1.86 1.53-1.45.49-2.82.68-4.1.68-3.93 0-6.85-1.84-7.61-2.38.14-1.33.04-7.06.01-8.59.34-.07.56.01.7.11 1.07.64 1.49 3.28 1.56 4.25.02.16.1.3.24.39 1.67 1.05 3.77 1.53 5.72 1.53 2.24-.01 4.28-.62 5.28-1.67zm-1.1-3.94c-2.32.46-5.24 2.59-5.37 2.68-.22.16-.28.48-.11.7.14.18.47.27.7.11.03-.02 2.93-2.13 5.02-2.52.66.84.74 1.56.23 2.17-1.39 1.64-5.98 2.06-9.19.43 2.97-1.77 5.58-4.68 7.3-7.25 1.12 1.09 1.59 2.3 1.42 3.68zm-8.28-9.67c.42-.5.9-.68 1.49-.53.88.23 1.67 1.14 1.75 1.56.03.17.15.31.32.37 1.87.7 2.76 1.91 2.73 3.69-1.58 2.45-4.25 5.51-7.23 7.3-.15-.97-.48-2.46-1.22-3.44 1.66-1.48 3.05-3.24 4.03-5.23.12-.25.02-.55-.23-.67s-.55-.02-.67.23c-.93 1.89-2.26 3.56-3.84 4.96-.37-.22-.96-.42-1.76-.14-.34-.08-1.04-.16-1.76.29-1.08.68-1.71 2.29-1.87 4.76-.94.39-2.91 1.04-4 .61-.32-.12-.53-.32-.65-.63-.81-2 .53-3.62 1.8-4.64.34-.27 1.21-.89 2.33-1.68 3-2.14 7.57-5.39 8.78-6.81zm2.89-7.25c0 .76-.62 1.38-1.37 1.38-.01 0-.01 0-.02 0 .02-.21.03-2.75.03-2.75.76 0 1.36.61 1.36 1.37zm-13.31 1.38c-.76 0-1.37-.62-1.37-1.38 0-.75.61-1.36 1.36-1.37 0 0 .01 2.54.03 2.75-.01 0-.01 0-.02 0zm.99-.63v-2.74c0-2.75 2.23-4.99 4.98-4.99s4.98 2.23 4.98 4.98v2.74c0 2.75-2.24 4.98-4.98 4.98s-4.98-2.23-4.98-4.97zm4.98 5.98c.83 0 1.63-.17 2.35-.48v.77c0 .37-.1.72-.25 1.03-.47.39-1.01.81-1.59 1.25-.16.04-.33.07-.5.07-1.29 0-2.35-1.05-2.35-2.35v-.77c.71.31 1.51.48 2.34.48zm-14.22 16.02c.01-.09.56-9.27 3.47-12.23 1.69-1.74 5.05-2.38 7.53-2.62.32 1.17 1.25 2.08 2.43 2.36-1.44 1.06-2.95 2.14-4.13 2.98-1.12.8-2.01 1.43-2.37 1.72-2.17 1.74-2.92 3.8-2.11 5.79.23.57.64.97 1.22 1.19 1.85.73 4.93-.7 5.06-.76.17-.08.28-.24.29-.43.12-2.84.82-3.89 1.4-4.26.29-.19.56-.21.76-.2.03 1.59.13 7.34 0 8.49-.1.83-4.83 2.55-9.56 2.01-4.04-.45-3.99-3.9-3.99-4.04zm5.02 5.1c.23.01.45.04.69.04 3.32 0 7.06-.87 8.36-2.15.97.68 3.97 2.51 8.04 2.51.42 0 .84-.03 1.28-.07l-.17 1.7-5.4 1.19c-2.36.52-4.85.52-7.21 0l-5.39-1.19zm22.33 11.17h-26.26c-2.46 0-4.46-2-4.46-4.46 0-1.36.61-2.62 1.66-3.47.8-.64 2.5-1.18 3.75-.88l8.35 1.84c2.5.55 5.14.55 7.64 0l8.35-1.84c1.33-.29 2.69.03 3.75.88s1.66 2.12 1.66 3.47c.02 2.46-1.98 4.46-4.44 4.46z"/><path d="m21.75 45.97c2.04.86 4.14 1.29 6.25 1.29 2.1 0 4.2-.43 6.25-1.29.26-.11.38-.4.27-.66s-.4-.37-.66-.27c-3.89 1.64-7.83 1.64-11.71 0-.25-.11-.55.01-.66.27s.01.56.26.66z"/><path d="m37.69 46.31c-6.43 2.71-12.95 2.71-19.38 0-.25-.11-.55.01-.66.27s.01.55.27.66c3.3 1.39 6.69 2.08 10.08 2.08s6.78-.69 10.08-2.08c.26-.11.38-.4.27-.66s-.4-.38-.66-.27z"/></g></svg>