<svg id="icon" viewBox="0 0 64 64" xmlns="http://www.w3.org/2000/svg"><path d="m32 8c3.39 0 6.15 2.76 6.15 6.15.1 5-6.02 8-9.9 4.85-4.63-3.5-2.06-11.02 3.75-11zm-3.13 34.92c.43.03 1.41.49 1.52-.22.03-.22-.11-.44-.32-.51l-3.99-1.35c-.31.98-1.12 3.53-1.44 4.54 0 0 5.45 1.84 5.45 1.84.83.17 1.1-1.12.25-1.27 0 0-1.97-.37-1.97-.37-1.74-.36-1.27-2.97.5-2.66zm3.13-18.85c2.47 0 3.5-1.61 3.91-3.26-2.44 1.11-5.38 1.11-7.82 0 .41 1.65 1.44 3.26 3.91 3.26zm3.63 21.51-1.97.37c-.86.15-.57 1.48.28 1.26 0 0 5.41-1.84 5.42-1.83-.32-1.03-1.12-3.55-1.44-4.54l-3.99 1.35c-.36.11-.43.62-.13.83.33.23 1.2-.15 1.58-.13 1.63 0 1.84 2.38.25 2.69zm-17.27-3.24 5.36 2.65c.28-.89 1.14-3.62 1.43-4.55l-3.98-2.21c-.19-.12-.31-.36-.24-.58 0 0 2.27-7.93 2.27-7.93.18-.63 1.14-.36.96.27 0 0-1.92 6.72-1.92 6.72 7.37-4.59 10.79-9.18 12.37-12.3-3.18 1.74-7.18.06-7.62-4-4.37.18-8.09 3.21-9.15 7.5l-1.94 7.92c-.6 2.46.39 5.07 2.46 6.51zm27.06 13.66s-26.84 0-26.84 0c-8.09-.13-9.51-11.53-1.7-13.62.3.3.62.57.98.82 0 0 5.94 2.95 5.94 2.95.03.02.09.02.12.04 0 0 5.88 1.99 5.88 1.99 2.2.49 2.93-2.72.72-3.22 0 0-1.97-.37-1.97-.37-.3-.04-.4-.46-.14-.63.17-.18 1.03.12 1.24.12 1.77.31 2.45-2.24.74-2.83 0 0-4.39-1.49-4.39-1.49 0-.02-3.58-1.98-3.59-1.99 13.36-8.3 14.51-16.01 14.52-17.36 4.39.13 8.17 3.19 9.23 7.5l1.94 7.92c.6 2.46-.39 5.07-2.4 6.47l-5.42 2.69c-.29-.9-1.13-3.61-1.43-4.55l3.98-2.21c.2-.12.3-.36.24-.58 0 0-2.27-7.93-2.27-7.93-.18-.64-1.14-.36-.96.27l2.16 7.55s-4 2.2-4 2.22c0 0-4.39 1.49-4.39 1.49-1.71.58-1.03 3.15.74 2.83 0 0 .97-.18.97-.18.45-.09.58.62.13.69 0 0-1.97.37-1.97.37-2.2.48-1.47 3.77.75 3.21 0 0 5.85-1.98 5.85-1.98.03-.02.09-.02.12-.04l6-2.99c.34-.23.65-.49.94-.77 7.81 2.11 6.34 13.48-1.72 13.61zm-7.94-29.17c-.27-.05-.54.12-.59.39-.01.06-1.32 6.04-8.75 9.73-.59.31-.15 1.18.44.9 7.64-3.72 10.22-11.07 8.9-11.02zm6.57 21.89-5.55 2.41h-13s-5.55-2.41-5.55-2.41c-.62-.26-.99.65-.4.92l5.64 2.45c.07.03.13.04.2.04h13.22c.07 0 .13-.01.2-.04l5.64-2.45c.6-.27.19-1.17-.4-.92z"/></svg>