<svg id="Layer_2" enable-background="new 0 0 512 512" viewBox="0 0 512 512" xmlns="http://www.w3.org/2000/svg"><g style="fill:none;stroke:#474747;stroke-width:15;stroke-linecap:round;stroke-linejoin:round;stroke-miterlimit:10"><path d="m284.173 186.459s-14.023 38.611-88.879 93.364l-7.535 54.044 67.334.829c11.777.145 19.694 8.749 19.694 22.164v17.464h-105.431c-19.275 0-34.029-17.158-31.141-36.216l16.779-110.716c2.2-14.514 12.841-26.317 27.05-30.004l42.12-10.93"/><path d="m362.899 290.448 7.223 47.661c2.888 19.058-11.866 36.216-31.141 36.216h-37.205"/><path d="m117.29 379.086-27.548 8.498c-19.343 5.967-32.538 23.845-32.538 44.088 0 25.481 20.657 46.138 46.138 46.138h111.995c22.676 0 42.21-15.982 46.7-38.209l2.329-11.532h28.519c13.995 0 26.417-8.96 30.833-22.24"/><path d="m392.631 379.675 25.964 7.909c19.343 5.967 32.538 23.845 32.538 44.088 0 25.481-20.657 46.138-46.138 46.138h-123.027"/><path d="m324.62 198.736c-12.391 47.396-61.246 77.576-61.246 77.576"/><path d="m297.832 311.41s51-39.592 55.338-84.968c-2.2-14.514-12.668-25.367-26.877-29.054l-42.12-10.93"/><path d="m302.795 75.901v40.514c0 25.345-20.546 45.891-45.891 45.891-25.345 0-45.891-20.546-45.891-45.891v-40.514c0-25.345 20.546-45.891 45.891-45.891 25.345 0 45.891 20.546 45.891 45.891z"/><path d="m277.1 96.162h-8.881c-3.101 0-5.616 2.514-5.616 5.616v18.176"/><path d="m235.621 96.162h2.86"/></g></svg>