<svg id="Capa_1" enable-background="new 0 0 512 512" height="512" viewBox="0 0 512 512" width="512" xmlns="http://www.w3.org/2000/svg"><path id="XMLID_398_" d="m502 452h-45.978c6.263-8.352 9.978-18.719 9.978-29.938 0-27.57-22.43-50-50-50h-32.242c3.954-6.403 6.242-13.938 6.242-22v-11c0-5.522-4.478-10-10-10s-10 4.478-10 10v11c0 12.131-9.869 22-22 22h-57.667c-6.617 0-12-5.383-12-12s5.383-12 12-12h45.667c5.522 0 10-4.478 10-10v-75.5c0-5.522-4.478-10-10-10s-10 4.478-10 10v65.5h-35.667c-17.645 0-32 14.355-32 32 0 4.243.837 8.292 2.344 12h-27.357c-.255-13.543-8.421-25.574-20.98-30.769l-26.34-10.896v-26.196h13.299c63.25 0 115.099-49.727 118.517-112.139h6.184c25.364 0 46 20.636 46 46v11c0 5.523 4.478 10 10 10s10-4.477 10-10v-11c0-31.922-22.782-58.619-52.94-64.697 14.09-12.935 22.94-31.493 22.94-52.083 0-39.881-21.636-76.724-56.463-96.151l-41.306-23.042c-1.707-1.32-3.84-2.089-6.117-2.089h-.229c-2.276 0-4.41.769-6.117 2.089l-41.304 23.041c-34.828 19.428-56.464 56.271-56.464 96.152 0 20.59 8.85 39.148 22.94 52.083-30.158 6.079-52.94 32.775-52.94 64.698v112c0 8.062 2.288 15.597 6.242 22h-32.242c-27.57 0-50 22.43-50 50 0 11.219 3.715 21.586 9.978 29.938h-45.978c-5.522 0-10 4.478-10 10 0 27.57 22.43 50 50 50h412c27.57 0 50-22.43 50-50 0-5.523-4.478-10.001-10-10.001zm-56-29.937c0 15.921-12.468 28.979-28.152 29.938h-178.918c10.66-6.317 20.528-14.024 29.255-22.997 22.832-23.476 54.709-36.94 87.458-36.94h60.357c16.542-.001 30 13.457 30 29.999zm-156-284.063c0 18.748-15.252 34-34 34s-34-15.252-34-34v-12.692c0-18.748 15.252-34 34-34s34 15.252 34 34zm-118-16.718c0-32.636 17.705-62.787 46.207-78.686l37.793-21.081 37.794 21.083c28.501 15.898 46.206 46.048 46.206 78.684 0 24.783-17.872 45.457-41.402 49.845 7.135-9.154 11.402-20.648 11.402-33.127v-12.692c0-29.776-24.225-54-54-54s-54 24.224-54 54v12.692c0 12.479 4.267 23.973 11.402 33.128-23.53-4.389-41.402-25.063-41.402-49.846zm-30 228.781v-112c0-25.364 20.636-46 46-46h109.777c-3.39 51.375-46.26 92.139-98.478 92.139h-13.299v-21.702c0-5.523-4.478-10-10-10s-10 4.477-10 10v74.583c0 4.046 2.438 7.694 6.178 9.24l32.518 13.451c5.254 2.174 8.648 7.251 8.648 12.937v19.289c0 6.617-5.383 12-12 12s-12-5.383-12-12v-9.938c0-5.522-4.478-10-10-10h-15.344c-12.131.001-22-9.869-22-21.999zm-76 72c0-16.542 13.458-30 30-30h73.345c.034 17.615 14.375 31.937 31.999 31.937s31.964-14.322 31.999-31.938h49.758c-10.66 6.317-20.527 14.024-29.254 22.997-22.833 23.476-54.71 36.94-87.458 36.94h-72.237c-15.684-.957-28.152-14.016-28.152-29.936zm396 69.937h-412c-13.038 0-24.159-8.359-28.286-20h468.572c-4.127 11.641-15.248 20-28.286 20z"/><path id="XMLID_397_" d="m380 284.06c-2.63 0-5.21 1.07-7.07 2.931-1.86 1.859-2.93 4.439-2.93 7.069s1.069 5.21 2.93 7.07 4.44 2.93 7.07 2.93 5.21-1.069 7.069-2.93c1.86-1.86 2.931-4.44 2.931-7.07s-1.07-5.21-2.931-7.069c-1.859-1.861-4.439-2.931-7.069-2.931z"/></svg>