<svg enable-background="new 0 0 256 256" height="512" viewBox="0 0 256 256" width="512" xmlns="http://www.w3.org/2000/svg"><g id="Layer_63"><g><g><path d="m160.966 80.086c3.168-7.919 3.086-14.006 2.256-18.064-1.865 1.387-4.168 2.217-6.67 2.217-.61 0-1.205-.062-1.789-.156-.63 9.387-6.138 17.494-14.001 21.78v8.137c0 2.84 1.613 5.434 4.16 6.69l6.633 3.271c1.483.731 3.039 1.303 4.642 1.707l13.527 3.415c1.196-12.536-12.354-20.008-8.758-28.997z" fill="#754e34"/></g><g><path d="m99.803 105.667c1.603-.404 3.159-.976 4.642-1.707l6.633-3.271c2.547-1.256 4.16-3.85 4.16-6.69v-8.136c-7.863-4.285-13.371-12.392-14.001-21.78-.584.094-1.179.156-1.789.156-2.502 0-4.805-.831-6.67-2.217-.83 4.058-.912 10.145 2.256 18.064 3.596 8.989-9.955 16.461-8.758 28.996z" fill="#754e34"/></g><g><path d="m156.551 41.836c-.586 0-1.16.049-1.722.136v20.311c0 .605-.028 1.204-.068 1.799.584.094 1.179.156 1.789.156 6.186 0 11.202-5.015 11.202-11.202.001-6.185-5.014-11.2-11.201-11.2z" fill="#f9d0b4"/></g><g><path d="m140.833 33.073c-4.086 4.769-18.576 19.239-39.663 13.233v15.978c0 14.756 12.073 26.83 26.83 26.83 14.756 0 26.83-12.073 26.83-26.83v-21.676c0-.986-.69-1.821-1.65-2.044-2.715-.629-6.011-2.201-9.79-5.635-.748-.678-1.9-.622-2.557.144z" fill="#f9d0b4"/></g><g><path d="m101.17 46.306c-1.842-.525-3.734-1.204-5.675-2.061-1.251-.552-2.713-.298-3.71.637-2.176 2.04-3.539 4.936-3.539 8.155 0 6.186 5.015 11.202 11.202 11.202.611 0 1.205-.062 1.789-.156-.04-.595-.068-1.194-.068-1.799v-15.978z" fill="#f9d0b4"/></g><g><g><path d="m91.786 44.883c.998-.936 2.459-1.19 3.71-.637 1.94.857 3.832 1.536 5.675 2.061 21.087 6.007 35.577-8.463 39.663-13.233.657-.767 1.809-.823 2.556-.144 3.779 3.433 7.075 5.006 9.79 5.635.96.223 1.65 1.058 1.65 2.044v1.365c.562-.087 1.136-.136 1.722-.136 3.099 0 5.904 1.259 7.932 3.293v-6.561c0-20.066-16.418-36.484-36.484-36.484s-36.484 16.418-36.484 36.484v6.593c.092-.093.175-.192.27-.28z" fill="#754e34"/></g></g><g><path d="m72.598 220.212c-.344.412-.671.839-.975 1.286l-9.433 13.856c-3.723 5.468-2.131 12.937 3.498 16.413 5.09 3.143 11.735 1.904 15.351-2.862l6.243-8.229c1.461-1.926 3.587-3.238 5.963-3.68l34.755-6.47z" fill="#5b5d60"/></g><g><path d="m214.847 193.735-21.332-10.024-65.515 18.138 46.567 12.892c3.473.824 6.566 2.753 8.835 5.471l18.658-3.473c8.961-1.668 15.035-10.077 13.803-19.109-.187-1.369-.539-2.668-1.016-3.895z" fill="#5b5d60"/></g><g><path d="m184.377 221.498c-2.313-3.397-5.812-5.807-9.811-6.757l-112.177-31.056-21.196 9.96c-.496 1.254-.864 2.582-1.055 3.986-1.233 9.031 4.841 17.44 13.803 19.109l108.816 20.257c2.376.442 4.502 1.754 5.963 3.68l6.243 8.229c3.616 4.766 10.261 6.005 15.351 2.862 5.629-3.476 7.221-10.945 3.498-16.414z" fill="#818182"/></g><g><g><path d="m233.1 180.159-.834-.384c-1.501-.692-2.111-2.503-1.334-3.962.89-1.671-.484-3.649-2.361-3.397l-4.992.671c-2.005.269-4.044-.08-5.844-1.001l-24.962-12.769c-1.944-1.005-3.297-2.872-3.646-5.032l-5.448-33.718c-.268-4.807-3.63-8.881-8.299-10.057l-19.183-4.842c-1.603-.404-3.159-.976-4.642-1.707l-6.633-3.27c-2.548-1.256-4.161-3.85-4.161-6.69v-8.137c-3.801 2.072-8.15 3.251-12.762 3.251-4.611 0-8.961-1.179-12.762-3.25v8.135c0 2.84-1.613 5.434-4.16 6.69l-6.633 3.271c-1.483.731-3.039 1.303-4.642 1.707l-19.183 4.842c-4.669 1.175-8.031 5.25-8.299 10.057-10.041 60.453-2.908 17.487-5.601 33.718-.349 2.161-1.702 4.027-3.646 5.032l-24.962 12.769c-1.801.921-3.84 1.271-5.844 1.001l-4.992-.671c-1.877-.252-3.251 1.725-2.361 3.397.777 1.458.167 3.27-1.334 3.962l-.834.384c-4.717 2.438-6.716 8.13-4.56 12.982 2.283 5.137 8.342 7.394 13.429 5.004l44.627-20.97c5.642-2.651 9.798-7.692 11.324-13.736 3.686-14.592 4.769-18.268 4.742-18.167 0-.297.419-.361.507-.077l2.492 7.984c1.961 6.282 2.959 12.826 2.959 19.407v21.032l29.734 8.231 29.733-8.232v-21.032c0-6.582.998-13.126 2.959-19.409l2.492-7.983c.089-.284.507-.22.507.077l4.589 18.167c1.526 6.044 5.682 11.085 11.324 13.736l44.627 20.97c5.088 2.391 11.146.133 13.429-5.004 2.156-4.85.157-10.543-4.56-12.98z" fill="#f9d0b4"/></g></g><g><path d="m183.679 120.566c-.268-4.807-3.63-8.881-8.299-10.057l-19.183-4.842c-1.603-.404-3.159-.976-4.642-1.707l-6.633-3.27c-2.548-1.256-4.161-3.85-4.161-6.69v-8.137c-3.801 2.072-8.15 3.251-12.762 3.251-4.611 0-8.961-1.179-12.762-3.25v8.136c0 2.84-1.613 5.434-4.16 6.69l-6.633 3.271c-1.483.731-3.039 1.303-4.642 1.707l-19.183 4.842c-4.669 1.175-8.031 5.25-8.299 10.057-3.402 20.484-4.776 28.751-5.301 31.912l21.06 8.934c3.273-12.904 4.255-16.237 4.229-16.141 0-.297.419-.361.507-.077l2.492 7.984c1.961 6.282 2.959 12.826 2.959 19.407v21.032l29.734 8.231 29.733-8.232v-21.032c0-6.582.998-13.126 2.959-19.409l2.492-7.983c.089-.284.507-.22.507.077l4.092 16.199 21.062-8.935z" fill="#fc657e"/></g><g><path d="m156.197 105.667c-1.603-.404-3.159-.976-4.642-1.707l-6.633-3.27c-2.548-1.256-4.161-3.85-4.161-6.69v-8.137c-3.801 2.072-8.15 3.251-12.762 3.251-4.611 0-8.961-1.179-12.762-3.25v8.136c0 2.84-1.613 5.434-4.16 6.69l-6.633 3.271c-1.483.731-3.039 1.303-4.642 1.707l-5.165 1.304c7.059 11.002 19.391 18.338 33.361 18.338s26.303-7.335 33.361-18.338z" fill="#f9d0b4"/></g><g><path d="m184.377 221.498c-2.313-3.397-5.812-5.807-9.811-6.757l-5.271-1.459-8.29 23.388 1.75.326c2.376.442 4.502 1.755 5.963 3.68l6.243 8.229c3.616 4.766 10.261 6.005 15.351 2.862 5.629-3.476 7.22-10.945 3.498-16.413z" fill="#f9d0b4"/></g><g><path d="m90.331 223.514-17.733-3.301c-.344.412-.671.839-.975 1.286l-9.433 13.856c-3.723 5.468-2.131 12.937 3.498 16.413 5.09 3.143 11.735 1.904 15.351-2.862l6.243-8.229c1.461-1.926 3.587-3.238 5.963-3.68l1.75-.326z" fill="#f9d0b4"/></g><g><path d="m169.786 110.708c-.036 0-.072-.001-.108-.002-1.379-.059-2.45-1.225-2.392-2.604.215-5.062-2.396-9.328-4.92-13.455-2.948-4.818-5.997-9.802-3.722-15.489 2.309-5.77 3.067-11.131 2.258-15.935-.23-1.361.688-2.651 2.049-2.881 1.368-.233 2.651.688 2.881 2.049.966 5.723.109 11.988-2.545 18.624-1.279 3.197.438 6.271 3.344 11.022 2.78 4.544 5.931 9.693 5.651 16.277-.057 1.343-1.164 2.394-2.496 2.394z"/></g><g><path d="m86.216 110.749c-1.329 0-2.435-1.047-2.496-2.388-.297-6.606 2.862-11.77 5.649-16.324 2.907-4.751 4.623-7.825 3.344-11.022-2.625-6.563-3.492-12.77-2.576-18.445.221-1.363 1.503-2.299 2.867-2.069 1.363.22 2.29 1.503 2.07 2.866-.77 4.769-.002 10.081 2.282 15.791 2.275 5.688-.774 10.67-3.722 15.489-2.531 4.136-5.147 8.413-4.919 13.49.062 1.379-1.006 2.548-2.385 2.609-.038.002-.076.003-.114.003z"/></g><g><path d="m156.552 66.739c-.507 0-1.02-.032-1.566-.1-1.37-.168-2.345-1.415-2.177-2.786.168-1.37 1.419-2.342 2.786-2.177.343.042.655.063.957.063 4.798 0 8.701-3.903 8.701-8.701 0-4.799-3.903-8.702-8.701-8.702-.266 0-.527.014-.786.038-1.381.14-2.596-.877-2.727-2.25-.132-1.375.876-2.596 2.25-2.727.415-.04.837-.062 1.263-.062 7.555 0 13.701 6.146 13.701 13.702s-6.147 13.702-13.701 13.702z"/></g><g><path d="m128.39 76.991c-3.855 0-7.484-1.582-9.705-4.231-.887-1.059-.748-2.636.31-3.522 1.059-.887 2.636-.748 3.522.31 1.283 1.53 3.478 2.444 5.873 2.444s4.59-.913 5.873-2.443c.887-1.058 2.464-1.198 3.521-.311 1.059.887 1.197 2.464.311 3.521-2.221 2.65-5.849 4.232-9.705 4.232z"/></g><g><path d="m144.383 59.368c-.714 0-1.423-.305-1.918-.895-.618-.739-1.755-1.198-2.965-1.198s-2.347.459-2.965 1.198c-.889 1.059-2.463 1.197-3.522.312-1.059-.887-1.197-2.464-.312-3.522 1.567-1.87 4.108-2.987 6.799-2.987s5.231 1.117 6.799 2.987c.886 1.059.747 2.636-.312 3.522-.468.392-1.038.583-1.604.583z"/></g><g><path d="m121.384 59.368c-.714 0-1.423-.304-1.917-.895-.62-.739-1.756-1.198-2.966-1.198s-2.347.459-2.966 1.198c-.886 1.059-2.463 1.199-3.521.311-1.059-.887-1.197-2.464-.311-3.521 1.567-1.871 4.109-2.987 6.798-2.987s5.231 1.116 6.798 2.987c.887 1.058.748 2.635-.311 3.521-.468.393-1.038.584-1.604.584z"/></g><g><path d="m128 91.614c-16.172 0-29.33-13.157-29.33-29.33v-15.978c0-.784.368-1.522.994-1.995.626-.472 1.437-.624 2.191-.409 19.698 5.611 33.36-8.113 37.079-12.455.757-.883 1.813-1.409 2.972-1.481 1.15-.069 2.306.333 3.164 1.114 2.98 2.708 5.898 4.407 8.674 5.05 2.111.49 3.586 2.332 3.586 4.479v21.676c0 16.172-13.157 29.329-29.33 29.329zm-24.33-42.13v12.8c0 13.416 10.914 24.33 24.33 24.33s24.33-10.914 24.33-24.33v-21.352c-3.347-.836-6.735-2.742-10.086-5.674-4.582 5.153-18.513 18.264-38.574 14.226z"/></g><g><path d="m99.449 66.739c-7.555 0-13.702-6.146-13.702-13.701 0-3.763 1.578-7.4 4.329-9.979 1.734-1.626 4.259-2.06 6.429-1.101 1.775.784 3.575 1.438 5.351 1.943 1.328.378 2.098 1.761 1.72 3.089-.377 1.328-1.762 2.1-3.089 1.72-1.997-.568-4.016-1.302-6-2.178-.332-.149-.722-.078-.99.174-1.772 1.662-2.749 3.91-2.749 6.332 0 4.798 3.903 8.701 8.702 8.701.301 0 .614-.021.957-.063 1.369-.174 2.618.807 2.786 2.177.168 1.371-.807 2.618-2.177 2.786-.548.068-1.06.1-1.567.1z"/></g><g><g><path d="m91.517 47.394c-1.381 0-2.5-1.119-2.5-2.5v-6.325c0-21.495 17.488-38.983 38.983-38.983s38.983 17.488 38.983 38.983v6.14c0 1.381-1.119 2.5-2.5 2.5s-2.5-1.119-2.5-2.5v-6.14c0-18.738-15.245-33.983-33.983-33.983s-33.983 15.244-33.983 33.982v6.325c0 1.381-1.12 2.501-2.5 2.501z"/></g></g><g><path d="m71.805 256.017c-2.541 0-5.11-.689-7.43-2.122-3.309-2.043-5.577-5.263-6.388-9.066-.81-3.803-.051-7.667 2.137-10.881l9.432-13.856c.776-1.14 2.332-1.436 3.473-.659s1.437 2.332.66 3.474l-9.432 13.856c-1.413 2.074-1.903 4.569-1.379 7.025.523 2.455 1.988 4.534 4.124 5.854 4.016 2.477 9.193 1.513 12.046-2.246l6.243-8.229c1.841-2.427 4.503-4.069 7.497-4.627l34.46-6.415c1.359-.25 2.663.644 2.915 2 .253 1.357-.643 2.663-2 2.916l-34.46 6.415c-1.769.329-3.341 1.3-4.429 2.732l-6.243 8.229c-2.769 3.65-6.956 5.6-11.226 5.6z"/></g><g><path d="m128.203 204.294c-1.096 0-2.101-.727-2.408-1.834-.369-1.331.412-2.708 1.742-3.076l64.646-17.897c1.329-.368 2.708.412 3.076 1.742.368 1.331-.411 2.708-1.742 3.076l-64.646 17.897c-.223.062-.448.092-.668.092z"/></g><g><path d="m184.034 222.594c-1.181 0-2.231-.84-2.455-2.043-.252-1.357.644-2.662 2.001-2.915l18.023-3.354c7.66-1.427 12.836-8.592 11.783-16.313-.13-.943-.358-1.891-.681-2.815-.455-1.304.233-2.729 1.537-3.184 1.303-.452 2.729.233 3.184 1.537.432 1.238.739 2.512.913 3.785 1.415 10.367-5.535 19.989-15.821 21.905l-18.024 3.354c-.154.029-.308.043-.46.043z"/></g><g><path d="m184.195 256.017c-4.271.001-8.457-1.949-11.227-5.601l-6.242-8.229c-1.087-1.433-2.659-2.403-4.429-2.732l-108.815-20.258c-10.288-1.916-17.237-11.538-15.822-21.904.186-1.365.529-2.738 1.021-4.08.475-1.297 1.913-1.961 3.208-1.487 1.296.476 1.962 1.912 1.487 3.208-.368 1.004-.624 2.025-.762 3.034-1.054 7.722 4.122 14.887 11.783 16.313l108.816 20.257c2.994.558 5.656 2.201 7.497 4.627l6.242 8.229c2.85 3.76 8.03 4.726 12.046 2.246 2.136-1.319 3.601-3.397 4.123-5.853.524-2.456.034-4.952-1.379-7.027l-9.433-13.855c-1.967-2.889-4.922-4.924-8.321-5.73l-111.838-30.962c-1.331-.368-2.111-1.745-1.742-3.076.368-1.331 1.745-2.11 3.076-1.742l111.749 30.938c4.526 1.072 8.54 3.836 11.21 7.758l9.433 13.855c2.188 3.215 2.947 7.08 2.137 10.884-.811 3.803-3.079 7.022-6.387 9.064-2.319 1.432-4.891 2.123-7.431 2.123z"/></g><path d="m228.487 201.604c-1.815 0-3.624-.4-5.32-1.197l-44.627-20.971c-6.345-2.98-10.968-8.589-12.685-15.386l-2.656-10.518-.121.39c-1.888 6.047-2.845 12.326-2.845 18.663v20.227c0 1.381-1.119 2.5-2.5 2.5s-2.5-1.119-2.5-2.5v-20.227c0-6.843 1.033-13.624 3.071-20.153l2.492-7.983c.41-1.313 1.689-2.116 3.052-1.905 1.203.184 2.114 1.105 2.306 2.27l4.549 18.013c1.349 5.339 4.979 9.744 9.964 12.085l44.627 20.971c1.847.868 3.918.953 5.83.241 1.912-.713 3.423-2.133 4.252-3.998 1.608-3.62.125-7.88-3.377-9.722l-.778-.357c-1.339-.617-2.376-1.771-2.846-3.167-.435-1.29-.358-2.708.202-3.941l-4.665.626c-2.525.34-5.051-.094-7.316-1.253l-24.962-12.769c-2.646-1.367-4.502-3.93-4.975-6.859l-5.448-33.718c-.014-.086-.023-.173-.028-.26-.208-3.735-2.785-6.858-6.413-7.771l-19.185-4.844c-1.768-.444-3.496-1.08-5.136-1.889l-6.633-3.271c-3.427-1.689-5.555-5.111-5.555-8.932v-7.375c0-1.381 1.119-2.5 2.5-2.5s2.5 1.119 2.5 2.5v7.376c0 1.902 1.06 3.606 2.766 4.447l6.633 3.271c1.323.652 2.719 1.165 4.146 1.524l19.186 4.844c5.715 1.438 9.789 6.333 10.175 12.204l5.428 33.596c.222 1.372 1.091 2.571 2.325 3.21l24.953 12.764c1.354.692 2.868.954 4.373.749l4.991-.67c1.799-.243 3.566.535 4.604 2.028 1.038 1.492 1.151 3.416.296 5.021-.063.117-.048.226-.024.295.023.07.077.165.198.221l.833.383c.035.017.069.033.104.051 5.884 3.042 8.387 10.166 5.696 16.219-1.379 3.104-3.892 5.466-7.075 6.652-1.427.531-2.906.795-4.382.795z"/><g><path d="m74.666 121.707c-.003.02-.007.04-.01.06.003-.02.006-.04.01-.06z"/><path d="m74.637 121.882c.006-.037.013-.075.019-.114-.002.01-.004.023-.006.033-.005.028-.009.056-.013.081z"/><path d="m74.775 121.05c-.002.009-.003.018-.004.027.001-.012.003-.02.004-.027z"/><path d="m74.686 121.587c-.006.038-.013.078-.02.12.014-.087.029-.175.043-.258-.005.028-.009.054-.014.086-.004.019-.006.034-.009.052z"/><path d="m74.568 122.296c.001-.008.007-.044.017-.1-.001.004-.001.008-.002.011-.005.03-.01.058-.015.089z"/><path d="m115.238 84.188c-1.381 0-2.5 1.119-2.5 2.5v7.312c0 1.902-1.06 3.606-2.766 4.447l-6.634 3.271c-1.322.652-2.717 1.165-4.147 1.525l-19.182 4.842c-5.715 1.438-9.788 6.331-10.176 12.199-2.132 12.833-3.546 21.351-5.581 33.602-.222 1.372-1.091 2.571-2.317 3.205l-24.961 12.769c-1.354.692-2.866.954-4.374.749l-4.992-.67c-1.805-.242-3.566.534-4.604 2.027-1.038 1.492-1.151 3.417-.297 5.022.063.117.048.226.025.295-.024.07-.077.165-.197.22l-.834.384c-.035.017-.069.033-.103.051-5.884 3.042-8.387 10.166-5.697 16.219 1.38 3.104 3.893 5.466 7.076 6.652 1.427.531 2.907.796 4.382.796 1.815 0 3.624-.4 5.32-1.197l44.626-20.971c6.344-2.98 10.968-8.589 12.685-15.386 1.161-4.596 2.059-8.093 2.745-10.726l.187.598c1.888 6.049 2.845 12.328 2.845 18.663v20.247c0 1.381 1.119 2.5 2.5 2.5s2.5-1.119 2.5-2.5v-20.247c0-6.841-1.034-13.621-3.072-20.153l-2.492-7.984c-.41-1.312-1.69-2.115-3.051-1.904-1.227.187-2.158 1.146-2.318 2.354-.241.758-.529 1.842-.948 3.412-.666 2.499-1.855 7.045-3.742 14.516-1.349 5.339-4.98 9.744-9.964 12.085l-44.627 20.971c-1.846.867-3.916.954-5.829.241s-3.423-2.133-4.252-3.998c-1.609-3.621-.126-7.88 3.376-9.722l.779-.358c1.338-.616 2.375-1.771 2.845-3.166.435-1.29.358-2.708-.202-3.941l4.666.626c2.518.341 5.05-.094 7.316-1.253l24.971-12.773c2.636-1.362 4.493-3.925 4.964-6.842 3.564-21.455 4.921-29.626 5.382-32.399-.001.008.003-.019.015-.089.001-.005.002-.01.003-.016 0 .001 0 .003-.001.004.011-.066.028-.168.052-.314-.005.033-.011.065-.016.095.01-.063.02-.12.029-.176.011-.064.022-.135.036-.214.003-.017.006-.036.009-.052.006-.037.013-.08.02-.12-.002.011-.004.022-.006.034.007-.041.013-.079.019-.114.013-.08.028-.167.043-.259-.001.007-.003.015-.004.024.004-.025.008-.045.009-.056 0 .001-.001.003-.001.005 0-.003.001-.005.001-.008.002-.012.002-.014.001-.007.003-.021.006-.038.01-.06.015-.089.025-.18.03-.27.208-3.736 2.786-6.859 6.415-7.772l19.182-4.842c1.771-.445 3.499-1.081 5.137-1.89l6.633-3.271c3.426-1.689 5.555-5.111 5.555-8.932v-7.312c-.002-1.378-1.121-2.498-2.502-2.498zm-40.501 37.089c.01-.059.018-.106.024-.143-.007.039-.015.088-.024.143z"/></g><g><g><g><path d="m75.8 45.85c-4.5-.8-8-4.3-8.9-8.7 0-.2-.4-.2-.4 0-.9 4.4-4.4 7.9-8.9 8.7-.2 0-.2.3 0 .4 4.5.8 8 4.3 8.9 8.7 0 .2.4.2.4 0 .9-4.4 4.4-7.9 8.9-8.7.2-.1.2-.4 0-.4z" fill="#f5c84c"/></g></g></g><g><g><g><path d="m47.911 149.625c-2.664-.474-4.735-2.545-5.268-5.15 0-.118-.237-.118-.237 0-.533 2.604-2.604 4.676-5.268 5.15-.118 0-.118.178 0 .237 2.664.474 4.735 2.545 5.268 5.15 0 .118.237.118.237 0 .533-2.604 2.604-4.676 5.268-5.15.119-.06.119-.237 0-.237z" fill="#87d147"/></g></g></g><g><g><g><path d="m212.7 122.5h-2.3v-2.3c0-1.7-1.4-3.2-3.2-3.2s-3.2 1.4-3.2 3.2v2.3h-2.3c-1.7 0-3.2 1.4-3.2 3.2s1.4 3.2 3.2 3.2h2.3v2.3c0 1.7 1.4 3.2 3.2 3.2s3.2-1.4 3.2-3.2v-2.3h2.3c1.7 0 3.2-1.4 3.2-3.2s-1.4-3.2-3.2-3.2z" fill="#70d6f9"/></g></g></g><g><g><g><circle cx="77.8" cy="17.4" fill="#fc657e" r="3.4"/></g></g></g><g><g><g><circle cx="218.8" cy="153.4" fill="#f5c84c" r="3.4"/></g></g></g><g><path d="m168.501 163.668c-.973 0-1.898-.572-2.303-1.524-.539-1.271.055-2.738 1.325-3.278l19.521-8.282c1.27-.536 2.738.055 3.278 1.325.539 1.271-.055 2.738-1.325 3.278l-19.521 8.282c-.318.135-.649.199-.975.199z"/></g><g><path d="m86.155 163.312-19.286-8.182c-1.271-.539-1.864-2.007-1.325-3.278.538-1.271 2.005-1.864 3.278-1.325l19.286 8.182c1.271.539 1.864 2.007 1.325 3.278-.536 1.262-1.995 1.867-3.278 1.325z"/></g><g><path d="m128 127.809c-14.016 0-27.089-7.004-34.972-18.735-.77-1.146-.465-2.699.681-3.47 1.146-.77 2.7-.464 3.469.681 6.952 10.348 18.474 16.524 30.821 16.524 12.441 0 24.012-6.25 30.951-16.718.764-1.152 2.315-1.464 3.465-.703 1.151.763 1.466 2.314.703 3.465-7.867 11.87-20.996 18.956-35.118 18.956z"/></g><g><path d="m161.284 238.386c-.277 0-.559-.047-.835-.145-1.302-.461-1.982-1.891-1.521-3.191l7.766-21.909c.461-1.302 1.89-1.981 3.191-1.521 1.302.461 1.982 1.891 1.521 3.191l-7.766 21.909c-.363 1.025-1.327 1.666-2.356 1.666z"/></g><g><path d="m94.772 238.545c-1.029 0-1.993-.641-2.356-1.666l-4.276-12.063c-.461-1.301.22-2.73 1.521-3.191s2.729.22 3.192 1.521l4.276 12.063c.461 1.301-.22 2.73-1.521 3.191-.276.098-.558.145-.836.145z"/></g></g></g></svg>