<svg id="&#x421;&#x43B;&#x43E;&#x439;_1" enable-background="new 0 0 160 160" viewBox="0 0 160 160" xmlns="http://www.w3.org/2000/svg"><g fill="rgb(0,0,0)"><path d="m95 32c0-9.374-7.626-17-17-17s-17 7.626-17 17 7.626 17 17 17 17-7.626 17-17zm-30 0c0-7.168 5.832-13 13-13s13 5.832 13 13-5.832 13-13 13-13-5.832-13-13z"/><path d="m60.002 124c.907 0 1.728-.621 1.945-1.542.253-1.075-.414-2.152-1.489-2.405l-17-4c-1.075-.253-2.152.414-2.405 1.489s.414 2.152 1.489 2.405l17 4c.154.036.308.053.46.053z"/><path d="m132.07 103.826-20.23-14.953-4.475-26.845c-.968-5.811-5.946-10.028-11.836-10.028h-35.058c-5.89 0-10.869 4.217-11.836 10.027l-4.475 26.846-20.23 14.953c-2.048 1.514-2.496 4.421-.998 6.481 1.524 2.096 3.58 3.619 5.896 4.503-3.036 2.696-4.828 6.576-4.828 10.766 0 7.953 6.471 14.424 14.424 14.424h10.576c1.104 0 2-.896 2-2s-.896-2-2-2h-10.576c-5.748 0-10.424-4.676-10.424-10.424 0-3.921 2.165-7.472 5.65-9.267l25.835-13.309h37.03l25.834 13.309c3.485 1.795 5.65 5.346 5.65 9.267 0 5.748-4.676 10.424-10.424 10.424h-15.575v-12.697l8.191-1.852c1.077-.244 1.753-1.314 1.509-2.392s-1.316-1.753-2.392-1.51l-25.882 5.852c-1.032.233-2.095-.126-2.772-.939-2.434-2.92-6.653-3.533-9.816-1.424l-14.703 9.802c-1.875 1.25-2.665 3.452-2.012 5.609s2.531 3.551 4.785 3.551h58.667c7.954 0 14.424-6.471 14.424-14.424 0-4.183-1.786-8.056-4.812-10.752 2.312-.885 4.358-2.423 5.88-4.517 1.499-2.06 1.051-4.967-.997-6.481zm-74.119 31.464c-.064-.213-.155-.75.402-1.122l14.703-9.802c1.458-.972 3.403-.69 4.525.656 1.644 1.973 4.221 2.847 6.727 2.281l13.692-3.096v11.793h-39.092c-.67 0-.892-.497-.957-.71zm-31.784-27.336c-.211-.29-.147-.699.14-.912l20.881-15.434c.418-.309.699-.768.784-1.28l1.667-9.998 7.361 1.339v18.111l-23.062 11.88c-3.069.151-5.954-1.208-7.771-3.706zm68.833-8.954h-34v-29c0-1.104-.896-2-2-2s-2 .896-2 2v7.604l-6.703-1.219 2.283-13.7c.646-3.873 3.964-6.685 7.891-6.685h35.058c3.927 0 7.246 2.812 7.891 6.685l2.283 13.7-6.703 1.219v-7.604c0-1.104-.896-2-2-2s-2 .896-2 2zm34.833 8.954c-1.817 2.498-4.705 3.856-7.771 3.707l-23.062-11.881v-18.111l7.361-1.338 1.667 9.998c.085.512.366.971.784 1.28l20.881 15.434c.287.212.351.622.14.911z"/></g></svg>