<svg height="512pt" viewBox="0 0 512 511" width="512pt" xmlns="http://www.w3.org/2000/svg"><path d="m504.265625 256.5c0 137.113281-111.152344 248.265625-248.265625 248.265625s-248.265625-111.152344-248.265625-248.265625 111.152344-248.265625 248.265625-248.265625 248.265625 111.152344 248.265625 248.265625zm0 0" fill="#f9f9ed"/><path d="m431.011719 81.320312c-46.796875-46.792968-109.011719-72.5625-175.1875-72.5625-66.816407 0-121.175781 54.894532-121.175781 122.371094 0 67.476563 54.359374 122.371094 121.175781 122.371094 68.746093 0 124.675781 56.476562 124.675781 125.894531 0 37.660157-16.566406 73.0625-45.445312 97.128907l7.132812 12.3125c33.429688-12.40625 63.3125-31.632813 88.824219-57.140626 46.792969-46.796874 72.5625-109.011718 72.5625-175.1875 0-66.179687-25.769531-128.394531-72.5625-175.1875zm0 0" fill="#696867"/><path d="m431.011719 81.320312c-46.796875-46.792968-109.011719-72.5625-175.1875-72.5625-4.265625 0-8.480469.226563-12.636719.660157 59.285156 4.300781 114.433594 29.449219 156.890625 71.902343 46.792969 46.792969 72.5625 109.007813 72.5625 175.1875 0 66.175782-25.769531 128.390626-72.5625 175.183594-19.046875 19.046875-40.535156 34.585938-64.113281 46.402344l6.222656 10.742188c33.429688-12.410157 63.3125-31.632813 88.824219-57.144532 46.792969-46.792968 72.5625-109.007812 72.5625-175.183594 0-66.179687-25.769531-128.394531-72.5625-175.1875zm0 0" fill="#544f4f"/><path d="m296.003906 381.972656c0 16.574219-13.433594 30.011719-30.007812 30.011719-16.574219 0-30.011719-13.4375-30.011719-30.011719 0-16.574218 13.4375-30.007812 30.011719-30.007812 16.574218 0 30.007812 13.433594 30.007812 30.007812zm0 0" fill="#696867"/><path d="m265.996094 351.964844c-5.660156 0-10.949219 1.566406-15.46875 4.289062 8.714844 5.253906 14.542968 14.804688 14.542968 25.71875 0 10.917969-5.828124 20.46875-14.542968 25.71875 4.519531 2.722656 9.808594 4.292969 15.46875 4.292969 16.570312 0 30.007812-13.4375 30.007812-30.011719 0-16.570312-13.4375-30.007812-30.007812-30.007812zm0 0" fill="#544f4f"/><path d="m296.003906 121.488281c0 16.570313-13.433594 30.007813-30.007812 30.007813-16.574219 0-30.011719-13.4375-30.011719-30.007813 0-16.574219 13.4375-30.011719 30.011719-30.011719 16.574218 0 30.007812 13.4375 30.007812 30.011719zm0 0" fill="#f9f9ed"/><path d="m265.996094 91.476562c-5.660156 0-10.949219 1.570313-15.46875 4.292969 8.714844 5.25 14.542968 14.800781 14.542968 25.71875 0 10.914063-5.828124 20.464844-14.542968 25.71875 4.519531 2.722657 9.808594 4.289063 15.46875 4.289063 16.570312 0 30.007812-13.433594 30.007812-30.007813s-13.4375-30.011719-30.007812-30.011719zm0 0" fill="#ececec"/><g fill="#18191b"><path d="m469.984375 115.921875c-2.351563-3.566406-7.144531-4.554687-10.714844-2.207031-3.566406 2.347656-4.554687 7.144531-2.207031 10.710937 25.820312 39.230469 39.46875 84.898438 39.46875 132.074219 0 64.25-25.019531 124.652344-70.449219 170.082031-24.863281 24.867188-54.222656 43.597657-86.230469 55.480469 29.320313-24.433594 48.039063-61.390625 48.039063-102.675781 0-73.398438-59.164063-133.113281-131.890625-133.113281-62.835938 0-113.960938-51.65625-113.960938-115.152344s51.125-115.15625 113.960938-115.15625c70.089844 0 136.546875 30.488281 182.332031 83.648437 2.785157 3.238281 7.667969 3.601563 10.90625.8125 3.234375-2.785156 3.597657-7.667969.8125-10.90625-48.722656-56.574219-119.453125-89.019531-194.050781-89.019531-68.378906 0-132.667969 26.628906-181.019531 74.980469-48.351563 48.351562-74.980469 112.640625-74.980469 181.019531 0 6.148438.21875 12.363281.65625 18.46875.289062 4.074219 3.683594 7.183594 7.707031 7.183594.183594 0 .371094-.003906.558594-.019532 4.257813-.304687 7.464844-4.003906 7.164063-8.261718-.410157-5.742188-.621094-11.585938-.621094-17.371094 0-64.25 25.023437-124.652344 70.453125-170.082031 25.277343-25.28125 55.195312-44.230469 87.828125-56.074219-28.789063 23.976562-47.171875 60.25-47.171875 100.777344 0 72.023437 58.058593 130.617187 129.425781 130.617187 64.199219 0 116.425781 52.777344 116.425781 117.648438 0 64.867187-52.226562 117.644531-116.425781 117.644531-55.90625 0-110.359375-19.601562-153.335938-55.199219-42.421874-35.140625-71.71875-84.058593-82.492187-137.738281-.839844-4.1875-4.917969-6.898438-9.101563-6.0625-4.191406.84375-6.902343 4.917969-6.0625 9.105469 11.46875 57.144531 42.644532 109.210937 87.789063 146.605469 45.746094 37.890624 103.703125 58.753906 163.203125 58.753906 68.378906 0 132.667969-26.625 181.019531-74.980469 48.351563-48.351563 74.980469-112.636719 74.980469-181.015625 0-50.207031-14.53125-98.816406-42.015625-140.578125zm0 0"/><path d="m303.738281 381.972656c0-20.8125-16.933593-37.742187-37.746093-37.742187-20.808594 0-37.742188 16.929687-37.742188 37.742187s16.933594 37.742188 37.742188 37.742188c20.8125 0 37.746093-16.929688 37.746093-37.742188zm-60.019531 0c0-12.28125 9.992188-22.273437 22.277344-22.273437 12.28125 0 22.273437 9.992187 22.273437 22.273437 0 12.285156-9.992187 22.277344-22.273437 22.277344-12.285156 0-22.277344-9.992188-22.277344-22.277344zm0 0"/><path d="m228.253906 121.488281c0 20.808594 16.929688 37.742188 37.742188 37.742188s37.742187-16.933594 37.742187-37.742188c0-20.8125-16.929687-37.746093-37.742187-37.746093s-37.742188 16.933593-37.742188 37.746093zm60.015625 0c0 12.28125-9.992187 22.273438-22.277343 22.273438-12.28125 0-22.273438-9.992188-22.273438-22.273438 0-12.285156 9.992188-22.277343 22.273438-22.277343 12.285156 0 22.277343 9.992187 22.277343 22.277343zm0 0"/></g></svg>