<svg id="Layer_1_1_" enable-background="new 0 0 64 64" height="512" viewBox="0 0 64 64" width="512" xmlns="http://www.w3.org/2000/svg"><path d="m28 40c-.551 0-1-.448-1-1h-2c0 1.654 1.346 3 3 3s3-1.346 3-3h-2c0 .552-.449 1-1 1z"/><path d="m39 39h-2c0 .552-.449 1-1 1s-1-.448-1-1h-2c0 1.654 1.346 3 3 3s3-1.346 3-3z"/><path d="m57.131 51h-3.131c0-.553-.448-1-1-1h-4.247c-2.363 0-4.673-.444-6.951-1.356-1.069-.427-2.193-.644-3.343-.644h-.485c2.438-1.825 4.026-4.727 4.026-8 0-5.514-4.486-10-10-10s-10 4.486-10 10c0 3.273 1.588 6.175 4.026 8h-.485c-1.149 0-2.274.217-3.428.678-2.193.878-4.503 1.322-6.866 1.322h-4.247c-.552 0-1 .447-1 1h-2.999c-.739 0-1.415.405-1.763 1.057s-.311 1.438.1 2.055l.072.107c.743 1.115 1.988 1.781 3.329 1.781h1.261c0 .553.448 1 1 1h4.838c1.747 0 3.478-.222 5.162-.661v5.661h2v-7c0-.321-.154-.623-.415-.812-.261-.188-.598-.24-.901-.137-1.889.63-3.856.949-5.846.949h-3.838v-3h3.247c2.619 0 5.179-.493 7.693-1.499.832-.332 1.706-.501 2.6-.501h4.693l-2.091 3.485c-.176.293-.19.656-.037.962l3 6c.17.339.516.553.895.553s.725-.214.895-.553l3-6c.153-.306.139-.669-.037-.962l-2.092-3.485h4.693c.894 0 1.769.169 2.685.535 2.43.972 4.99 1.465 7.609 1.465h3.247v3h-3.838c-1.99 0-3.957-.319-5.846-.948-.304-.104-.64-.052-.901.137-.261.188-.415.49-.415.811v7h2v-5.661c1.685.439 3.415.661 5.162.661h4.838c.552 0 1-.447 1-1h1.395c1.34 0 2.584-.666 3.329-1.782l.072-.107c.411-.615.449-1.401.1-2.054-.35-.652-1.025-1.057-1.765-1.057zm-48.392 3c-.67 0-1.292-.333-1.665-.893l-.073-.107h2.999v1zm23.261-22c2.701 0 5.088 1.349 6.538 3.404-2.037-.917-4.249-1.404-6.538-1.404s-4.501.487-6.538 1.404c1.45-2.055 3.837-3.404 6.538-3.404zm-8 8c0-.541.055-1.07.158-1.581 2.31-1.578 5.01-2.419 7.842-2.419s5.532.841 7.842 2.419c.103.511.158 1.04.158 1.581 0 4.411-3.589 8-8 8s-8-3.589-8-8zm8 17.764-1.86-3.72 1.86-3.101 1.86 3.101zm25.059-4.655c-.372.558-.994.891-1.664.891h-1.395v-1l3.131.001z"/><path d="m44.799 37.602c2.094-2.787 3.201-6.107 3.201-9.602 0-8.822-7.178-16-16-16s-16 7.178-16 16c0 3.495 1.106 6.814 3.2 9.601l1.599-1.201c-1.831-2.438-2.799-5.342-2.799-8.4 0-7.72 6.28-14 14-14s14 6.28 14 14c0 3.059-.968 5.963-2.799 8.4z"/><path d="m6 28c0 8.255 3.79 15.836 10.397 20.8l1.201-1.6c-6.099-4.582-9.598-11.58-9.598-19.2 0-13.233 10.767-24 24-24s24 10.767 24 24c0 7.62-3.5 14.619-9.601 19.202l1.201 1.6c6.609-4.965 10.4-12.547 10.4-20.802 0-14.337-11.664-26-26-26s-26 11.663-26 26z"/><path d="m31.962 27.991c.013.001.025.009.038.009.006 0 .012-.004.018-.004.014.001.028.003.042.003.052 0 .1-.02.151-.028l1.42-.157c3.276-.365 5.819-2.908 6.183-6.183l.18-1.59c.034-.303-.071-.604-.287-.819s-.517-.325-.82-.286l-1.586.18c-.824.091-1.607.34-2.334.703-.257-.776-.646-1.519-1.184-2.192l-1.001-1.252c-.379-.475-1.183-.475-1.562 0l-1.001 1.252c-.538.673-.928 1.416-1.184 2.192-.727-.362-1.509-.611-2.331-.702l-1.59-.181c-.302-.039-.604.071-.82.286s-.321.517-.287.819l.18 1.588c.364 3.276 2.906 5.819 6.184 6.185l1.459.163c.024.004.052.007.08.009v.001c.017.003.035.003.052.004zm5.561-6.887.342-.038-.039.344c-.228 2.047-1.647 3.695-3.565 4.249.713-1.153 1.075-2.445 1.059-3.744.655-.439 1.403-.723 2.203-.811zm-5.744-2.227.221-.276.221.276c1.471 1.839 1.471 4.407 0 6.246l-.221.276-.221-.276c-1.47-1.839-1.47-4.407 0-6.246zm-5.605 2.53-.039-.342.345.039c.797.087 1.545.372 2.2.81-.016 1.298.346 2.59 1.058 3.743-1.918-.554-3.337-2.201-3.564-4.25z"/><path d="m58 47h2v2h-2z"/><path d="m4 47h2v2h-2z"/></svg>