<svg id="Capa_1" enable-background="new 0 0 512 512" height="512" viewBox="0 0 512 512" width="512" xmlns="http://www.w3.org/2000/svg"><g><g><path d="m472.4 472.4c-21.39 21.4-49.44 32.1-77.49 32.1h-.13c-6.47-.01-12.93-.59-19.32-1.73-5.54-.99-9.92-5.37-10.91-10.91-.75-4.18-1.26-8.39-1.51-12.61-1.9-30.29 8.73-61.2 31.87-84.34 13.12-13.12 28.73-22.22 45.31-27.29 16.75-5.13 34.49-6.16 51.64-3.07 5.54.99 9.92 5.37 10.91 10.91 6.12 34.11-4 70.58-30.37 96.94z" fill="#ade194"/><path d="m400.461 502.771c-5.539-.994-9.917-5.371-10.911-10.909-6.127-34.121 3.991-70.584 30.359-96.952 18.21-18.21 41.228-28.667 64.962-31.38-32.038-3.655-65.38 6.798-89.962 31.38-26.368 26.368-36.485 62.831-30.359 96.952.995 5.538 5.373 9.916 10.911 10.909 10.551 1.892 21.327 2.227 31.959 1.013-2.327-.266-4.649-.599-6.959-1.013z" fill="#97da7b"/><path d="m333.043 504.5h-139.32c-5.523 0-10-4.477-10-10v-356.162c0-5.523 4.477-10 10-10h139.319c5.523 0 10 4.477 10 10v356.162c.001 5.523-4.477 10-9.999 10z" fill="#d8ecfe"/><path d="m208.723 494.5v-356.162c0-5.523 4.477-10 10-10h-25c-5.523 0-10 4.477-10 10v356.162c0 5.523 4.477 10 10 10h25c-5.522 0-10-4.477-10-10z" fill="#c4e2ff"/><path d="m283.569 504.5h-226.298c-27.488 0-49.771-22.283-49.771-49.771 0-27.488 22.283-49.771 49.771-49.771h226.298c27.488 0 49.771 22.283 49.771 49.771 0 27.488-22.283 49.771-49.771 49.771z" fill="#b6c4cf"/><path d="m256.197 404.957h-171.554c-23.275 0-42.143-18.868-42.143-42.143 0-23.275 18.868-42.143 42.143-42.143h171.554c23.275 0 42.143 18.868 42.143 42.143 0 23.275-18.868 42.143-42.143 42.143z" fill="#7a8c98"/><path d="m229.608 320.671h-118.375c-18.63 0-33.733-15.103-33.733-33.733 0-18.63 15.103-33.733 33.733-33.733h118.375c18.63 0 33.733 15.103 33.733 33.733-.001 18.63-15.103 33.733-33.733 33.733z" fill="#b6c4cf"/><path d="m32.5 454.729c0-27.488 22.283-49.771 49.771-49.771h-25c-27.488 0-49.771 22.283-49.771 49.771 0 27.488 22.283 49.771 49.771 49.771h25c-27.488 0-49.771-22.283-49.771-49.771z" fill="#9facba"/><path d="m67.5 362.814c0-23.275 18.868-42.143 42.143-42.143h-25c-23.275 0-42.143 18.868-42.143 42.143 0 23.275 18.868 42.143 42.143 42.143h25c-23.275.001-42.143-18.868-42.143-42.143z" fill="#596c76"/><path d="m102.5 286.938c0-18.63 15.103-33.733 33.733-33.733h-25c-18.63 0-33.733 15.103-33.733 33.733 0 18.63 15.103 33.733 33.733 33.733h25c-18.63 0-33.733-15.103-33.733-33.733z" fill="#9facba"/><path d="m449.61 412.07c0 37.29-18.62 70.22-47.07 90.02-2.28 1.59-4.95 2.39-7.63 2.41h-.13c-2.69-.01-5.37-.81-7.67-2.41-9.14-6.35-17.26-14.06-24.07-22.84-1.9-30.29 8.73-61.2 31.87-84.34 13.12-13.12 28.73-22.22 45.31-27.29 6.04 13.58 9.39 28.62 9.39 44.45z" fill="#97da7b"/><path d="m344.722 394.913c26.368 26.368 36.485 62.829 30.366 96.943-.993 5.539-5.371 9.917-10.909 10.911-34.121 6.127-70.584-3.991-96.952-30.359-26.377-26.377-36.494-62.84-30.361-96.955.996-5.537 5.373-9.913 10.91-10.906 34.114-6.12 70.577 3.997 96.946 30.366z" fill="#ade194"/><path d="m424.615 412.068c0 37.289-18.628 70.226-47.077 90.021-4.619 3.214-10.81 3.214-15.429.001-28.46-19.795-47.089-52.732-47.089-90.023 0-37.302 18.629-70.24 47.09-90.026 4.619-3.211 10.809-3.21 15.427.003 28.449 19.796 47.078 52.734 47.078 90.024z" fill="#ade194"/><path d="m292.226 472.408c-26.377-26.377-36.494-62.84-30.361-96.955.996-5.537 5.373-9.913 10.911-10.906 2.311-.415 4.634-.748 6.962-1.013-10.633-1.215-21.41-.88-31.962 1.013-5.537.993-9.915 5.369-10.911 10.906-6.134 34.115 3.984 70.579 30.361 96.955 24.577 24.577 57.924 35.029 89.971 31.375-23.74-2.711-46.763-13.166-64.971-31.375z" fill="#97da7b"/><path d="m340.02 412.068c0-35.164 16.559-66.445 42.299-86.491-1.562-1.218-3.154-2.399-4.783-3.532-4.618-3.213-10.807-3.214-15.427-.003-28.46 19.786-47.089 52.724-47.089 90.026 0 37.29 18.629 70.227 47.089 90.023 4.619 3.213 10.81 3.213 15.429-.001 1.629-1.133 3.221-2.315 4.784-3.533-25.742-20.054-42.302-51.335-42.302-86.489z" fill="#97da7b"/><path d="m297.611 60.486c0 18.904-15.324 34.228-34.228 34.228s-34.228-15.324-34.228-34.228c0-15.471 22.927-42.392 31.253-51.658 1.592-1.771 4.359-1.771 5.951 0 8.325 9.266 31.252 36.187 31.252 51.658z" fill="#ffe07d"/><path d="m254.155 60.486c0-11.17 11.95-28.305 21.728-40.458-3.765-4.68-7.21-8.623-9.525-11.199-1.592-1.771-4.359-1.771-5.951 0-8.326 9.266-31.253 36.187-31.253 51.658 0 18.904 15.324 34.228 34.228 34.228 4.413 0 8.626-.844 12.5-2.365-12.718-4.995-21.727-17.373-21.727-31.864z" fill="#ffd064"/></g><g><path d="m510.154 374.142c-1.538-8.613-8.358-15.435-16.962-16.973-23.903-4.308-48.581-1.036-70.404 9.164-8.518-20.052-22.572-37.646-40.967-50.445-7.175-4.991-16.814-4.994-23.991-.005-2.514 1.748-4.938 3.595-7.288 5.516v-80.3c0-4.142-3.357-7.5-7.5-7.5s-7.5 3.358-7.5 7.5v94.996c-7.753 9.097-14.053 19.302-18.7 30.246-3.604-1.684-7.28-3.194-11.025-4.497-.486-25.258-19.916-45.958-44.649-48.427 6.026-7.17 9.673-16.403 9.673-26.48 0-22.736-18.497-41.233-41.232-41.233h-38.388v-107.364c0-1.378 1.121-2.5 2.5-2.5h139.32c1.379 0 2.5 1.122 2.5 2.5v67.76c0 4.142 3.357 7.5 7.5 7.5s7.5-3.358 7.5-7.5v-67.76c0-9.649-7.851-17.5-17.5-17.5h-62.16v-19.313c19.442-3.543 34.231-20.592 34.231-41.04 0-17.187-20.785-42.883-33.174-56.67-2.179-2.426-5.296-3.817-8.554-3.817s-6.375 1.391-8.555 3.816c-12.389 13.789-33.173 39.486-33.173 56.67 0 20.447 14.786 37.493 34.225 41.039v19.314h-62.16c-9.649 0-17.5 7.851-17.5 17.5v107.366h-64.986c-22.736 0-41.233 18.497-41.233 41.233 0 10.076 3.649 19.306 9.675 26.476-11.376 1.123-21.933 6.098-30.141 14.295-9.372 9.384-14.533 21.85-14.533 35.1 0 13.733 5.62 26.165 14.66 35.163-12.418 1.638-23.89 7.261-32.88 16.261-10.82 10.809-16.779 25.19-16.779 40.496 0 31.579 25.691 57.27 57.27 57.27h54.82c4.143 0 7.5-3.358 7.5-7.5s-3.357-7.5-7.5-7.5h-54.82c-23.308 0-42.27-18.962-42.27-42.27 0-11.296 4.396-21.909 12.387-29.89 7.975-7.983 18.587-12.38 29.883-12.38h171.696c1.037 6.833 2.678 13.552 4.892 20.079-14.906 18.357-23.717 40.873-25.262 64.461h-61.508c-4.143 0-7.5 3.358-7.5 7.5s3.357 7.5 7.5 7.5h136.48c8.687 0 17.266-1.98 25.016-5.743 11.629 3.77 23.846 5.73 36.205 5.729 5.846 0 11.727-.465 17.589-1.356 2.392.901 4.915 1.361 7.442 1.361 2.52 0 5.037-.458 7.424-1.354 5.858.89 11.729 1.354 17.574 1.354 30.817-.001 60.771-12.167 82.883-34.287 27.094-27.084 39.224-65.801 32.449-103.561zm-273.497-313.656c0-8.084 10.399-25.023 26.728-43.708 16.329 18.683 26.729 35.622 26.729 43.708 0 14.738-11.99 26.728-26.729 26.728-14.738 0-26.728-11.99-26.728-26.728zm129.735 267.714c1.026-.713 2.228-1.07 3.43-1.07s2.405.357 3.432 1.071c27.465 19.11 43.862 50.462 43.862 83.867 0 33.403-16.396 64.755-43.859 83.865-2.052 1.427-4.811 1.43-6.864 0-27.471-19.107-43.871-50.459-43.871-83.865-.001-33.418 16.4-64.771 43.87-83.868zm-75.935 29.462c-14.396-2.901-29.338-3.125-43.994-.495-8.611 1.539-15.433 8.355-16.973 16.955-1.399 7.775-1.983 15.591-1.812 23.338h-69.706c18.644-15.135 31.397-40.359 33.059-69.29h65.17c17.352 0 31.762 12.825 34.256 29.492zm-34.616-70.724c0 14.452-11.747 26.21-26.194 26.231h-88.091c3.675-23.15 16.608-43.076 34.403-52.464h53.65c14.465.001 26.232 11.769 26.232 26.233zm-144.606-26.232h39.888c-13.149 13.257-21.992 31.727-24.733 52.464h-15.194c-14.447-.021-26.195-11.78-26.195-26.231.001-14.465 11.769-26.233 26.234-26.233zm-51.094 77.61c6.552-6.543 15.253-10.146 24.5-10.146h91.356c-2.554 38.751-27.876 69.288-58.655 69.288-.016 0-.032.002-.048.002h-32.653c-19.101 0-34.64-15.544-34.64-34.65.001-9.248 3.604-17.949 10.14-24.494zm223.431 158.684h-59.916c1.315-17.415 7.185-34.117 16.992-48.465 5.476 10.639 12.607 20.505 21.279 29.177 7.568 7.57 16.054 13.973 25.179 19.122-1.174.098-2.351.166-3.534.166zm-11.036-29.893c-23.635-23.634-34.208-57.402-28.281-90.335.439-2.455 2.388-4.399 4.852-4.84 21.357-3.831 43.4-.747 62.736 8.642-2.835 10.138-4.321 20.722-4.321 31.494 0 32.322 13.383 62.964 36.48 84.913-26.597-.205-52.382-10.782-71.466-29.874zm194.561-.009c-19.086 19.093-44.873 29.677-71.459 29.887 23.095-21.95 36.478-52.595 36.478-84.917 0-10.774-1.487-21.362-4.325-31.504 19.351-9.397 41.395-12.477 62.752-8.631 2.459.44 4.406 2.387 4.847 4.852 5.908 32.935-4.667 66.696-28.293 90.313z"/></g></g></svg>