<svg id="Capa_1" enable-background="new 0 0 512 512" viewBox="0 0 512 512" xmlns="http://www.w3.org/2000/svg"><g><g><g><g><path d="m340.38 199.044c5.137-7.397 8.157-16.375 8.157-26.063 0-14.6-6.847-27.593-17.495-35.97-2.453 1.033-5.147 1.607-7.971 1.607h-11.89l-.183.8c-3.88 16.925-15.643 31.369-31.466 38.64l-.6.276v20.132c0 .195-.015.386-.02.58z" fill="#554e56"/></g><g><g><path d="m325.629 231.705c-2.693-5.396-3.123-11.518-1.211-17.237s5.936-10.352 11.332-13.044c3.081-1.537 6.372-2.331 9.783-2.372l-.359-1.024c-.095-.001-.187-.014-.283-.014h-65.96v.452c0 12.644-10.287 22.931-22.931 22.931s-22.931-10.287-22.931-22.931v-.452h-65.96c-.097 0-.191.013-.287.014l-.272 1.027c3.381.053 6.644.844 9.701 2.369 11.138 5.558 15.679 19.142 10.121 30.281l-44.958 90.098h72.54l8.178-25.939c2.978-9.447 11.63-15.794 21.527-15.794 2.296 0 4.582.354 6.793 1.051 1.76.554 3.452 1.326 5.03 2.294l.541.331.609-.294c1.614-.997 3.359-1.791 5.187-2.36 2.186-.68 4.443-1.024 6.709-1.024 9.938 0 18.599 6.382 21.552 15.881l8.037 25.852h72.47z" fill="#ffe177"/></g><g><g><path d="m294.479 210.311c-2.075 6.209-1.608 12.854 1.315 18.711l46.296 92.781h28.495l-44.957-90.098c-2.693-5.396-3.123-11.518-1.211-17.237s5.936-10.352 11.332-13.044c3.081-1.537 6.372-2.331 9.783-2.372l-.359-1.024c-.095-.001-.187-.014-.283-.014h-41.194c-4.297 2.991-7.527 7.241-9.217 12.297z" fill="#ffd15b"/></g></g><g><path d="m281.492 366.956c-9.943 0-18.607-6.379-21.559-15.874l-3.905-12.564-3.988 12.65c-2.978 9.443-11.631 15.788-21.532 15.788h-66.289l-2.645 1.03v34.88h188.852v-34.88l-2.644-1.03z" fill="#ffe177"/></g><g><g><path d="m347.782 366.956h-32.286l2.644 1.03v34.88h32.286v-34.88z" fill="#ffd15b"/></g></g></g><g><path d="m188.93 97.416h10.947c2.302-17.466 17.277-30.995 35.361-30.995h41.523c18.085 0 33.06 13.529 35.361 30.995h10.947c5.076 0 9.722 1.855 13.316 4.91v-21.94c.001-44.396-35.989-80.386-80.385-80.386-44.396 0-80.386 35.99-80.386 80.386v21.94c3.594-3.055 8.24-4.91 13.316-4.91z" fill="#685e68"/></g><g><g><path d="m256 0c-4.431 0-8.774.374-13.01 1.063 22.229 13.678 37.279 37.869 38.252 65.647 16.027 2.019 28.772 14.706 30.881 30.707h10.947c5.076 0 9.722 1.855 13.316 4.91v-21.94c0-44.397-35.99-80.387-80.386-80.387z" fill="#554e56"/></g></g><g><g><path d="m199.56 126.759v-24.659c0-1.945.162-3.852.463-5.714h-11.093c-11.946 0-21.631 9.684-21.631 21.631 0 11.946 9.684 21.631 21.631 21.631h12.115c-.971-4.178-1.485-8.493-1.485-12.889z" fill="#c96e59"/></g></g><g><g><path d="m198.53 126.759c0 31.741 25.732 57.472 57.473 57.47 31.739-.001 57.468-25.731 57.468-57.47v-24.659c0-20.274-16.435-36.708-36.708-36.708h-41.523c-20.274 0-36.708 16.435-36.708 36.708v24.659z" fill="#d78878"/></g></g><g><path d="m256.003 183.199c-8.422 0-16.56-1.835-23.963-5.31v20.577c0 13.233 10.727 23.961 23.961 23.961 13.233 0 23.961-10.728 23.961-23.961v-20.623c-7.279 3.428-15.397 5.355-23.959 5.356z" fill="#bb5d4c"/></g><g><path d="m258.593 183.126v4.901c0 12.712-9.901 23.106-22.412 23.905 4.312 6.333 11.579 10.494 19.819 10.494 13.233 0 23.961-10.728 23.961-23.961v-20.623c-6.539 3.081-13.76 4.936-21.368 5.284z" fill="#a44f3e"/></g><g><path d="m323.07 96.386h-11.093c.301 1.861.463 3.769.463 5.714v24.659c0 4.435-.531 8.746-1.503 12.889h12.133c11.946 0 21.631-9.684 21.631-21.631 0-11.946-9.685-21.631-21.631-21.631z" fill="#bb5d4c"/></g><g><path d="m281.315 65.682v50.433c0 31.739-25.729 57.469-57.468 57.47-.398 0-.79-.022-1.186-.03 9.404 6.712 20.907 10.674 33.342 10.674 31.739-.001 57.468-25.731 57.468-57.47v-24.659c-.001-18.731-14.033-34.174-32.156-36.418z" fill="#c96e59"/></g><g><path d="m417.049 401.836h-322.098c-25.206 0-45.639 20.433-45.639 45.639v23.838h1.03c0-21.876 17.752-39.673 39.571-39.673 2.864 0 5.754.316 8.592.939l168.412 36.984c.286.063.579.095.871.095 1.085 0 2.104-.422 2.871-1.189 6.194-6.194 14.432-9.617 23.195-9.639h.111l118.867-26.105c2.874-.631 5.81-.951 8.726-.951 21.55 0 39.147 16.595 40.062 37.78.025.589.032 1.174.032 1.759h1.036v-23.838c.001-25.205-20.433-45.639-45.639-45.639z" fill="#26a6fe"/></g><g><g><path d="m417.049 401.836h-26.449c11.753 9.565 19.026 20.246 22.709 30.798 2.722-.564 5.494-.86 8.25-.86 21.55 0 39.147 16.595 40.062 37.78.025.589.032 1.174.032 1.759h1.036v-23.838c0-25.205-20.434-45.639-45.64-45.639z" fill="#0593fc"/></g></g><g><path d="m462.65 469.51c-1.093-25.31-25.295-43.225-50.039-37.791l-118.759 26.08c.006 0 .004.411-.002 1.03.029 0 .058-.002.087-.002 8.793 0 17.059 3.424 23.277 9.641l6.107 6.107c1.793 1.793 4.036 3.091 6.485 3.75l30.314 8.169c5.424 1.462 9.211 6.406 9.211 12.023 0 6.866-5.586 12.452-12.451 12.452v1.03h65.122c23.069.001 41.653-19.198 40.648-42.489z" fill="#d78878"/></g><g><g><path d="m462.65 469.51c-1.088-25.191-25.068-43.047-49.69-37.857 11.071 29.923-6.943 59.101-33.958 59.101h-12.405c1.72 2.154 2.734 4.867 2.734 7.765 0 6.866-5.586 12.452-12.451 12.452v1.03h65.122c23.069-.001 41.653-19.2 40.648-42.491z" fill="#c96e59"/></g></g><g><path d="m428.205 333.839-61.253-122.754c-5.822-11.666-19.997-16.404-31.663-10.583s-16.404 19.997-10.583 31.663l44.214 88.608h-70.046l-7.811-25.128c-3.87-12.45-17.101-19.405-29.55-15.535-1.949.606-3.763 1.441-5.423 2.467-.023-.014-.047-.026-.069-.04v59.428l2.929 9.421c3.069 9.872 12.204 16.599 22.543 16.599h125.59c8.178 0 15.774-4.233 20.076-11.188 4.301-6.953 4.697-15.64 1.046-22.958z" fill="#d78878"/></g><g><g><path d="m428.205 333.839-61.253-122.754c-5.128-10.276-16.738-15.172-27.405-12.215l56.701 113.632c3.651 7.318 3.255 16.004-1.047 22.959s-11.897 11.188-20.076 11.188h-117.648l1.473 4.739c3.069 9.872 12.204 16.599 22.543 16.599h125.59c8.178 0 15.773-4.233 20.076-11.188 4.301-6.955 4.697-15.642 1.046-22.96z" fill="#c96e59"/></g></g><g><path d="m250.762 280.139c-12.429-3.92-25.692 2.981-29.613 15.415l-7.951 25.219h-70.118l44.214-88.608c5.821-11.666 1.083-25.842-10.583-31.663-11.666-5.82-25.842-1.082-31.663 10.583l-61.253 122.754c-3.652 7.318-3.255 16.004 1.047 22.959s11.898 11.188 20.076 11.188h125.59c10.303 0 19.416-6.682 22.514-16.508l2.999-9.512v-59.428c-1.614-.991-3.371-1.804-5.259-2.399z" fill="#d78878"/></g><g><g><path d="m250.762 280.139c-5.382-1.697-10.919-1.363-15.787.568v40.187c0 14.224-11.531 25.755-25.755 25.755h-127.792c.342 3.545 1.48 7.023 3.414 10.15 4.302 6.955 11.898 11.188 20.076 11.188h125.59c10.303 0 19.416-6.682 22.514-16.508l2.999-9.512v-59.428c-1.614-.992-3.371-1.805-5.259-2.4z" fill="#c96e59"/></g></g><g><path d="m98.726 431.573 168.412 36.985c1.009.222 2.062-.086 2.793-.817 6.367-6.367 15.002-9.943 24.005-9.943 9.004 0 17.639 3.577 24.005 9.943l6.107 6.107c1.669 1.669 3.746 2.87 6.025 3.484l30.314 8.169c5.885 1.586 9.973 6.922 9.973 13.017 0 7.446-6.036 13.482-13.482 13.482h-266.88c-22.471 0-40.687-18.216-40.687-40.687 0-25.988 24.032-45.314 49.415-39.74z" fill="#c96e59"/></g><g><g><path d="m367.87 490.754h-313.621c6.898 12.657 20.32 21.246 35.749 21.246h266.881c7.446 0 13.482-6.036 13.482-13.482 0-2.864-.921-5.547-2.491-7.764z" fill="#bb5d4c"/></g></g></g></g><g><g><path d="m256 159.631c-10.346 0-19.233-5.938-23.193-15.497-1.585-3.827.232-8.214 4.059-9.799 3.828-1.585 8.213.232 9.799 4.059 2.397 5.787 7.751 6.237 9.334 6.237s6.938-.45 9.334-6.237c1.585-3.827 5.972-5.643 9.799-4.059 3.827 1.585 5.644 5.973 4.059 9.799-3.958 9.559-12.845 15.497-23.191 15.497z" fill="#a44f3e"/></g><g><g><path d="m232.219 121.179c-7.654 0-14.492-4.569-17.421-11.641-1.585-3.827.232-8.214 4.059-9.799 3.828-1.586 8.215.232 9.799 4.059.89 2.149 2.788 2.381 3.562 2.381s2.672-.232 3.562-2.381c1.585-3.827 5.973-5.644 9.799-4.059 3.827 1.585 5.644 5.972 4.059 9.799-2.927 7.072-9.765 11.641-17.419 11.641z" fill="#a44f3e"/></g><g><path d="m279.781 121.179c-7.654 0-14.492-4.569-17.421-11.641-1.585-3.827.232-8.214 4.059-9.799 3.828-1.586 8.214.232 9.799 4.059.89 2.149 2.788 2.381 3.562 2.381s2.672-.232 3.562-2.381c1.585-3.827 5.973-5.644 9.799-4.059s5.644 5.972 4.059 9.799c-2.927 7.072-9.765 11.641-17.419 11.641z" fill="#a44f3e"/></g></g></g></g><g/><g/><g/><g/><g/><g/><g/><g/><g/><g/><g/><g/><g/><g/><g/></svg>