<svg id="Capa_1" enable-background="new 0 0 512 512" viewBox="0 0 512 512" xmlns="http://www.w3.org/2000/svg"><g><g><g><path d="m337.908 200.713c4.987-7.18 7.918-15.895 7.918-25.3 0-14.172-6.646-26.784-16.983-34.916-2.382 1.003-4.996 1.56-7.738 1.56h-11.542l-.178.776c-3.766 16.429-15.185 30.45-30.544 37.508l-.583.268v19.542c0 .189-.014.375-.019.563z" fill="#554e56"/><g><path d="m323.589 232.417c-2.614-5.238-3.031-11.18-1.176-16.732s5.762-10.048 11-12.662c2.991-1.492 6.185-2.263 9.496-2.303l-.348-.994c-.092-.001-.182-.014-.275-.014h-64.027v.439c0 12.273-9.985 22.259-22.259 22.259s-22.259-9.985-22.259-22.259v-.439h-64.027c-.094 0-.185.013-.279.014l-.264.996c3.282.052 6.449.82 9.416 2.3 10.812 5.395 15.22 18.582 9.824 29.394l-43.641 87.458h70.415l7.938-25.179c2.891-9.17 11.289-15.331 20.896-15.331 2.229 0 4.448.343 6.594 1.02 1.708.538 3.351 1.288 4.883 2.227l.525.322.591-.285c1.566-.968 3.26-1.739 5.035-2.291 2.122-.66 4.312-.994 6.512-.994 9.646 0 18.054 6.195 20.92 15.416l7.801 25.095h70.347z" fill="#ffe177"/><g><path d="m293.352 211.649c-2.014 6.027-1.561 12.477 1.276 18.163l44.94 90.063h27.661l-43.64-87.458c-2.614-5.238-3.031-11.18-1.176-16.732s5.762-10.048 11-12.662c2.991-1.492 6.185-2.263 9.496-2.303l-.348-.994c-.092-.001-.182-.014-.275-.014h-39.988c-4.17 2.904-7.306 7.03-8.946 11.937z" fill="#ffd15b"/></g><path d="m280.746 363.705c-9.652 0-18.062-6.192-20.927-15.409l-3.791-12.196-3.872 12.28c-2.891 9.167-11.29 15.325-20.901 15.325h-64.347l-2.568 1v33.858h183.32v-33.858l-2.567-1z" fill="#ffe177"/><g><path d="m345.093 363.705h-31.34l2.567 1v33.858h31.34v-33.858z" fill="#ffd15b"/></g></g><path d="m256.002 185.332c-8.175 0-16.075-1.781-23.261-5.155v19.974c0 12.845 10.413 23.259 23.259 23.259 12.845 0 23.259-10.413 23.259-23.259v-20.018c-7.065 3.327-14.945 5.198-23.257 5.199z" fill="#bb5d4c"/><path d="m258.517 185.261v4.757c0 12.34-9.611 22.429-21.755 23.205 4.186 6.148 11.24 10.187 19.238 10.187 12.845 0 23.259-10.413 23.259-23.259v-20.018c-6.348 2.99-13.357 4.79-20.742 5.128z" fill="#a44f3e"/><path d="m190.895 102.062h10.626c2.234-16.955 16.77-30.087 34.325-30.087h40.307c17.555 0 32.091 13.132 34.325 30.087h10.626c4.928 0 9.437 1.8 12.926 4.766v-21.297c.001-43.095-34.935-78.031-78.03-78.031-43.095 0-78.031 34.936-78.031 78.031v21.298c3.489-2.966 7.998-4.767 12.926-4.767z" fill="#685e68"/><g><path d="m256 7.5c-4.302 0-8.517.363-12.629 1.032 21.578 13.277 36.187 36.759 37.132 63.723 15.557 1.96 27.929 14.276 29.976 29.807h10.626c4.928 0 9.437 1.8 12.926 4.766v-21.297c0-43.095-34.936-78.031-78.031-78.031z" fill="#554e56"/></g><g><path d="m201.213 130.545v-23.937c0-1.888.158-3.739.45-5.546h-10.768c-11.596 0-20.997 9.401-20.997 20.997s9.401 20.997 20.997 20.997h11.76c-.943-4.055-1.442-8.243-1.442-12.511z" fill="#c96e59"/><path d="m321.105 101.062h-10.768c.292 1.807.45 3.658.45 5.546v23.937c0 4.305-.515 8.49-1.459 12.511h11.777c11.596 0 20.997-9.401 20.997-20.997s-9.401-20.997-20.997-20.997z" fill="#bb5d4c"/></g><g><path d="m200.214 130.545c0 30.811 24.978 55.788 55.789 55.786 30.809-.001 55.784-24.977 55.784-55.786v-23.937c0-19.68-15.953-35.633-35.633-35.633h-40.307c-19.68 0-35.633 15.953-35.633 35.633z" fill="#d78878"/></g><path d="m280.573 71.258v48.956c0 30.809-24.975 55.785-55.784 55.786-.386 0-.767-.021-1.152-.029 9.129 6.516 20.295 10.361 32.365 10.361 30.809-.001 55.784-24.977 55.784-55.786v-23.937c.001-18.182-13.62-33.173-31.213-35.351z" fill="#c96e59"/><path d="m412.331 397.563h-312.662c-24.467 0-44.302 19.835-44.302 44.302v23.139h1c0-21.235 17.231-38.511 38.412-38.511 2.78 0 5.585.307 8.34.912l163.479 35.901c.277.061.562.092.846.092 1.053 0 2.042-.41 2.787-1.154 6.013-6.012 14.009-9.335 22.515-9.357h.107l115.385-25.34c2.79-.613 5.64-.923 8.471-.923 20.918 0 38 16.109 38.888 36.673.025.571.031 1.14.031 1.708h1.006v-23.139c-.001-24.468-19.836-44.303-44.303-44.303z" fill="#26a6fe"/><g><path d="m412.331 397.563h-25.675c11.409 9.285 18.469 19.653 22.043 29.895 2.643-.548 5.333-.835 8.008-.835 20.918 0 38 16.109 38.888 36.673.025.571.031 1.14.031 1.708h1.006v-23.139c.001-24.467-19.834-44.302-44.301-44.302z" fill="#0593fc"/></g><path d="m456.595 463.254c-1.061-24.568-24.554-41.958-48.573-36.684l-115.28 25.316c.006 0 .004.399-.002 1 .028 0 .056-.002.085-.002 8.535 0 16.56 3.324 22.595 9.359l5.928 5.928c1.741 1.741 3.917 3 6.295 3.641l29.426 7.93c5.265 1.419 8.941 6.218 8.941 11.67 0 6.665-5.422 12.087-12.086 12.087v1h63.215c22.392.001 40.433-18.636 39.456-41.245z" fill="#d78878"/><g><path d="m456.595 463.254c-1.056-24.453-24.334-41.786-48.234-36.748 10.746 29.047-6.739 57.37-32.963 57.37h-12.042c1.67 2.091 2.654 4.725 2.654 7.537 0 6.665-5.422 12.087-12.086 12.087v1h63.215c22.392 0 40.433-18.637 39.456-41.246z" fill="#c96e59"/></g><path d="m423.16 331.559-59.458-119.158c-5.651-11.324-19.411-15.923-30.735-10.273-11.324 5.651-15.924 19.411-10.273 30.735l42.919 86.012h-67.994l-7.583-24.392c-3.757-12.085-16.6-18.837-28.684-15.08-1.892.588-3.653 1.399-5.264 2.395-.022-.013-.045-.025-.067-.039v57.687l2.843 9.145c2.979 9.583 11.847 16.113 21.882 16.113h121.91c7.939 0 15.311-4.109 19.488-10.86s4.56-15.182 1.016-22.285z" fill="#d78878"/><g><path d="m423.16 331.559-59.458-119.158c-4.978-9.975-16.247-14.728-26.602-11.857l55.039 110.303c3.544 7.103 3.16 15.535-1.016 22.286s-11.549 10.86-19.488 10.86h-114.201l1.43 4.6c2.979 9.583 11.847 16.113 21.882 16.113h121.91c7.939 0 15.311-4.109 19.488-10.86 4.176-6.752 4.56-15.184 1.016-22.287z" fill="#c96e59"/></g><path d="m250.915 279.431c-12.065-3.805-24.939 2.894-28.745 14.964l-7.718 24.48h-68.065l42.919-86.012c5.651-11.324 1.051-25.085-10.273-30.735s-25.085-1.05-30.735 10.273l-59.458 119.158c-3.545 7.103-3.16 15.535 1.016 22.286s11.549 10.86 19.488 10.86h121.91c10.001 0 18.847-6.486 21.855-16.025l2.911-9.233v-57.687c-1.566-.961-3.272-1.751-5.105-2.329z" fill="#d78878"/><g><path d="m250.915 279.431c-5.224-1.647-10.599-1.323-15.324.552v39.01c0 13.807-11.193 25-25 25h-124.048c.332 3.441 1.436 6.817 3.314 9.853 4.176 6.751 11.549 10.86 19.488 10.86h121.91c10.001 0 18.847-6.486 21.855-16.025l2.911-9.233v-57.688c-1.567-.961-3.273-1.751-5.106-2.329z" fill="#c96e59"/></g><path d="m103.333 426.429 163.478 35.901c.98.215 2.002-.084 2.711-.793 6.18-6.18 14.562-9.652 23.302-9.652s17.122 3.472 23.302 9.652l5.928 5.928c1.62 1.62 3.636 2.786 5.848 3.382l29.426 7.93c5.712 1.539 9.681 6.72 9.681 12.636 0 7.228-5.859 13.087-13.087 13.087h-259.06c-21.812 0-39.495-17.682-39.495-39.495 0-25.226 23.327-43.987 47.966-38.576z" fill="#c96e59"/><g><path d="m364.593 483.876h-304.433c6.695 12.286 19.725 20.624 34.702 20.624h259.062c7.228 0 13.087-5.859 13.087-13.087-.001-2.78-.895-5.384-2.418-7.537z" fill="#bb5d4c"/></g></g></g><g><path d="m278.716 147.496c1.585-3.827-.232-8.214-4.059-9.799-3.828-1.585-8.214.232-9.799 4.059-2.275 5.492-7.355 5.919-8.858 5.919s-6.583-.427-8.858-5.919c-1.585-3.827-5.973-5.643-9.799-4.059-3.827 1.585-5.644 5.972-4.059 9.799 3.878 9.362 12.583 15.179 22.716 15.179s18.838-5.817 22.716-15.179z"/><path d="m250.03 113.914c1.585-3.827-.232-8.214-4.059-9.799-3.829-1.585-8.214.232-9.799 4.059-.813 1.963-2.547 2.175-3.255 2.175s-2.442-.212-3.255-2.175c-1.585-3.827-5.972-5.643-9.799-4.059-3.827 1.585-5.644 5.972-4.059 9.799 2.877 6.947 9.595 11.435 17.114 11.435s14.234-4.489 17.112-11.435z"/><path d="m279.084 125.349c7.519 0 14.236-4.488 17.114-11.435 1.585-3.827-.232-8.214-4.059-9.799-3.829-1.585-8.214.232-9.799 4.059-.813 1.963-2.547 2.175-3.255 2.175s-2.442-.212-3.255-2.175c-1.585-3.827-5.972-5.643-9.799-4.059-3.827 1.585-5.644 5.972-4.059 9.799 2.876 6.946 9.593 11.435 17.112 11.435z"/><path d="m412.331 390.063h-57.171v-17.858h47.496c10.613 0 20.283-5.389 25.866-14.414s6.087-20.083 1.349-29.58l-59.458-119.158c-4.178-8.372-11.726-13.968-20.186-15.99 2.038-5.624 3.099-11.582 3.099-17.65 0-12.275-4.325-23.961-12.071-33.221 5.155-5.159 8.347-12.28 8.347-20.132 0-7.708-3.081-14.707-8.071-19.842v-16.687c0-47.162-38.369-85.531-85.531-85.531-17.62 0-34.557 5.335-48.979 15.429-3.394 2.375-4.219 7.051-1.844 10.445 2.375 3.395 7.052 4.22 10.445 1.844 11.888-8.32 25.851-12.718 40.378-12.718 38.891 0 70.531 31.64 70.531 70.531v8.556c-1.758-.34-3.571-.525-5.426-.525h-3.84c-5.543-17.425-21.874-30.086-41.112-30.086h-40.307c-19.237 0-35.569 12.661-41.112 30.086h-3.84c-1.856 0-3.669.184-5.426.525v-8.556c0-11.998 3.08-23.86 8.906-34.302 2.019-3.617.722-8.186-2.895-10.204-3.617-2.019-8.186-.723-10.204 2.895-7.07 12.671-10.807 27.06-10.807 41.611v16.687c-4.989 5.135-8.071 12.134-8.071 19.842 0 15.713 12.784 28.497 28.497 28.497h5.052c3.062 9.219 8.235 17.671 15.304 24.74 4.214 4.214 8.926 7.745 13.991 10.57v6.359h-55.914c-11.342-.177-22.346 6.017-27.74 16.826l-30.203 60.528c-1.85 3.707-.344 8.21 3.362 10.06 3.708 1.85 8.21.344 10.06-3.362l30.203-60.528c3.795-7.605 13.071-10.706 20.676-6.911s10.706 13.07 6.911 20.676l-42.919 86.012c-1.16 2.325-1.034 5.084.333 7.294s3.78 3.555 6.378 3.555h68.064c3.273 0 6.168-2.123 7.153-5.245l7.718-24.48c1.238-3.926 3.932-7.136 7.585-9.038 3.61-1.878 7.728-2.258 11.612-1.072v51.752l-2.564 8.132c-2.033 6.448-7.941 10.78-14.702 10.78h-121.91c-5.378 0-10.279-2.731-13.109-7.306-2.83-4.574-3.086-10.179-.684-14.992l13.599-27.254c1.85-3.707.344-8.21-3.362-10.06-3.708-1.85-8.211-.344-10.06 3.362l-13.599 27.255c-4.739 9.496-4.234 20.555 1.349 29.581 5.583 9.025 15.253 14.414 25.866 14.414h47.496v17.858h-57.171c-28.564 0-51.802 23.238-51.802 51.802v23.139c0 25.913 21.082 46.995 46.995 46.995h322.276c12.938 0 24.992-5.147 33.943-14.493 8.468-8.842 13.052-20.316 13.045-32.503l.007.001v-23.139c0-28.563-23.238-51.802-51.802-51.802zm-221.436-254.506c-7.442 0-13.497-6.055-13.497-13.497s6.055-13.498 13.497-13.498h1.818v21.983c0 1.683.083 3.352.213 5.011h-2.031zm166.096 80.193 59.458 119.158c2.401 4.813 2.146 10.418-.684 14.992s-7.73 7.305-13.109 7.305h-121.91c-6.789 0-12.705-4.356-14.72-10.839l-2.505-8.057v-51.726c.019-.006.039-.012.058-.018 3.932-1.223 8.104-.841 11.749 1.076 3.645 1.916 6.325 5.137 7.547 9.069l7.583 24.392c.975 3.136 3.877 5.273 7.162 5.273h67.994c2.598 0 5.011-1.345 6.378-3.554 1.367-2.21 1.493-4.97.333-7.294l-42.918-86.012c-1.838-3.685-2.132-7.864-.827-11.769s4.053-7.068 7.738-8.906c7.604-3.795 16.878-.695 20.673 6.91zm-37.704-85.205v-21.983h1.818c7.442 0 13.497 6.055 13.497 13.498s-6.055 13.497-13.497 13.497h-2.035c.13-1.656.217-3.323.217-5.012zm-3.262 20.012h5.08c2.338 0 4.609-.289 6.785-.823 6.674 6.865 10.435 16.021 10.435 25.679 0 5.884-1.415 11.615-4.077 16.8h-47.49v-6.385c13.668-7.642 24.23-20.201 29.267-35.271zm-94.168 14.133c-9.121-9.12-14.144-21.247-14.144-34.145v-23.937c0-15.513 12.621-28.133 28.133-28.133h40.307c15.513 0 28.133 12.62 28.133 28.133v23.937c0 26.624-21.66 48.285-48.284 48.287-12.898.001-25.024-5.022-34.145-14.142zm49.902 27.146v8.316c0 8.689-7.069 15.758-15.759 15.758s-15.759-7.069-15.759-15.758v-8.293c5.089 1.298 10.373 1.974 15.762 1.974 5.439-.001 10.716-.7 15.756-1.997zm-41.776 82.472c-7.208 3.751-12.522 10.084-14.965 17.832l-6.065 19.235h-50.44l37.505-75.163c4.763-9.545 4.014-20.419-1.018-29h31.069c3.201 13.567 15.401 23.697 29.931 23.697s26.731-10.131 29.931-23.697h31.046c-1.06 1.811-1.945 3.742-2.626 5.778-2.576 7.705-1.996 15.952 1.631 23.221l37.505 75.163h-50.347l-5.943-19.118c-2.412-7.758-7.7-14.112-14.892-17.893-7.191-3.781-15.424-4.536-23.182-2.123-1.038.323-2.057.701-3.052 1.131-.95-.41-1.916-.783-2.902-1.094-7.744-2.441-15.979-1.721-23.186 2.031zm-130.314 130.755h171.331c4.142 0 7.5-3.358 7.5-7.5s-3.358-7.5-7.5-7.5h-99.16v-17.858h59.415c10.056 0 19.152-4.862 24.742-12.705 5.585 7.846 14.679 12.705 24.749 12.705h59.414v17.858h-34.16c-4.142 0-7.5 3.358-7.5 7.5s3.358 7.5 7.5 7.5h106.331c15.672 0 29.079 9.85 34.376 23.682-.278-.224-.546-.457-.83-.675-11.241-8.647-25.626-11.864-39.463-8.825l-114.579 25.162c-9.585.229-18.614 3.766-25.761 10.082l-161.132-35.386c-13.96-3.066-28.352.307-39.495 9.251 5.398-13.624 18.698-23.291 34.222-23.291zm254.255 91.937h-259.062c-17.554 0-31.845-14.211-31.988-31.731.003-.088.013-.175.013-.264 0-.086-.01-.17-.013-.255.076-9.644 4.413-18.626 11.937-24.677 5.755-4.628 12.786-7.071 19.997-7.071 2.299 0 4.617.249 6.917.753l163.481 35.902c3.493.766 7.091-.287 9.621-2.816 4.808-4.808 11.2-7.455 17.999-7.455s13.191 2.647 17.999 7.455l5.928 5.928c2.544 2.544 5.725 4.384 9.2 5.321l29.426 7.93c2.433.656 4.133 2.874 4.133 5.395-.002 3.079-2.508 5.585-5.588 5.585zm86.325-9.869c-6.095 6.364-14.302 9.869-23.11 9.869h-43.419c.503-1.78.791-3.649.791-5.587 0-9.287-6.263-17.46-15.229-19.877l-29.425-7.93c-.943-.254-1.807-.753-2.497-1.444l-5.928-5.928c-.842-.842-1.72-1.635-2.62-2.393l90.822-19.945c9.501-2.086 19.378.123 27.1 6.063 7.461 5.74 11.97 14.349 12.371 23.619.378 8.829-2.766 17.194-8.856 23.553z"/></g></g><g/><g/><g/><g/><g/><g/><g/><g/><g/><g/><g/><g/><g/><g/><g/></svg>