<svg id="Layer_1" enable-background="new 0 0 500 500" viewBox="0 0 500 500" xmlns="http://www.w3.org/2000/svg"><path clip-rule="evenodd" d="m448.436 276.853c.006-1.505.018-12.021-.851-13.337-1.328-2.012-4.4-1.129-4.796.341-3.685 27.235-13.32 54.923-27.693 78.304-3.325 5.584-12.527 4.888-13.857-3.073-1.812-19.619-13.097-40.657-35.442-33.778-.04.651.381.554.498.91h-.011v.005c37.445 3.043 32.63 50.657-1.519 55-30.138 5.994-38.741-20.473-24.053-38.579 1.35-4.084-4.579-8.467-7.957-3.805-50.818 76.836 42.533 57.419-75.599 95.25 85.763-2.674 201.597-28.595 191.28-137.238zm14.605 3.988c6.759 116.419-115.427 151.419-210.497 134.914.119-.065.255-.119.401-.19-.341.033-.753.19-1.696.444 2.765-1.283 5.009-1.966 7.82-3.067l-1.593.547c.151-.087.704-.364.9-.585-1.073.336-2.395.959-3.561 1.393 18.943-8.974 37.794-19.337 56.729-29.042-11.588-23.346-2.26-66.449 21.09-79.275 11.555-3.496 26.161 10.206 17.013 24.589-16.367 22.922 17.319 24.017 27.417 10.415 7.729-10.401-.495-22.059-12.536-21.871-15.451-1.908-19.427-29.713 10.016-28.317 12.28.582 20.604 4.13 28.533 13.527 62.383-274.622-368.469-275.854-305.987-2.595 10.658-13.168 41.81-19.753 50.498-1.497 3.242 8.734-2.579 18.69-12.303 20.091-9.685-.018-18.156 8.095-13.239 17.809 4.178 9.457 25.54 16.391 31.182 5.593 1.479-4.005-2.469-10.09-4.585-13.609-8.228-13.683 5.891-30.192 20.507-24.625 23.074 16.671 30.893 52.646 21.087 78.867 21.326 10.042 42.26 21.237 62.306 32.462l-7.728-3.528-.022.201c-.412-.141-.824-.276-1.246-.412.363.298 2.016.997 2.666 1.382-20.886-8.921-42.806-16.403-64.008-24.452-1.902-.739-2.569-2.664-1.734-4.699 8.792-21.121 2.386-45.302-10.026-63.563-1.948-3.556-5.818-8.035-10.151-5.012-8.521 6.659 11.638 18.278 3.142 33.258-11.528 20.339-46.898 10.917-53.764-8.887-6.799-16.423 6.684-33.098 23.542-33.633 7.589-4.07-6.809-5.653-9.788-4.536-18.2 1.283-24.096 20.517-25.877 36.195-13.363 29.368-40.677-64.779-40.07-74.527-.605-3.669-5.567-2.67-5.567-.309-11.862 129.463 99.872 141.607 199.336 152.261-80.797 12.817-204.145-9.745-212.226-109.275-.93-16.027-5.12-35.439.355-51.013 7.871-13.855 29.732-10.63 32.388 5.864 3.238 21.277 7.385 36.205 16.355 55.326 1.443-3.908 3.376-7.966 5.799-11.565-89.306-302.39 411.457-292.749 311.764 2.054 2.77 4.235 3.922 7.213 5.598 12.15 8.732-18.017 14.686-38.015 16.973-57.364 2.188-15.636 20.3-19.331 29.552-9.869 7.17 7.677 4.806 18.46 5.235 27.975zm-287.094-1.544c-1.197-4.497-1.615-5.521.791-9.993.341.314.58.65 1.111.715.326.039.15.736.965.927.991.233.842 1.634 2.818 2.455 1.018.423 1.129 2.015 3.197 3.728l4.14 3.783c36.97 24.17 96.538 26.807 128.259-6.715 2.001-1.216 2.206-4.837 4.59-5.322.232.359.067 1.118.033 1.712.474-.416.472-.01.536.087.673 1.018 1.099-1.006 1.252.146-10.219 53.844-128.686 56.44-147.692 8.477zm-10.524-93.717c4.288 52.175 76.337 29.747 54.255-18.734-.472-1.114-1.548-5.176-2.219-4.932-.286.104-.073.768-.883.385-.38-.18-.141-.263-.542.081-.186-.476-.291-.991-.64-1.192-2.183 1.224-.84 3.484-1.815 5.268-.78.366.343 2.112-.06 3.241-.724 2.026-.705 7.108-1.095 7.43-1.186 5.526.486 11.073-2.645 16.306-6.652 10.776-24.804 10.968-29.307-2.872-1.01-4.337-.704-10.717-2.347-15.689-.404-1.032-.723-7.827-1.295-9.327-1.319-1.316-.62-2.211-1.431-2.666-.637-.357-.274-.798-.542-.911-.477-.184-.58-.477-.786-.78-8.193 4.957-8.054 15.764-8.648 24.392zm109.172-1.121c2.683 54.045 78.488 31.337 53.089-20.419-1.137-3.526-1.311-1.599-1.649-1.605-.536-.009-.508-.533-.986-.054-.178-.459-.303-.995-.645-1.192-2.548 1.657-.712 4.749-1.816 5.268-.773.364.34 2.121-.059 3.241-1.309 5.361-1.513 14.061-2.108 19.228-2.909 11.884-17.805 17.063-27.589 7.479-5.476-5.727-3.428-13.99-5.415-20.621-.293-.496-1.037-6.474-1.273-8.069.269-2.917-.985-1.943-1.273-4.124-.116-.878-.829-.588-.873-1.306-.036-.594-.058.138-.916-1.095-7.731 4.753-8.207 14.659-8.487 23.269z" fill="rgb(0,0,0)" fill-rule="evenodd"/></svg>