<svg id="Capa_1" enable-background="new 0 0 512 512" height="512" viewBox="0 0 512 512" width="512" xmlns="http://www.w3.org/2000/svg"><g><path d="m256 7.5v210c57.99 0 105-47.01 105-105s-47.01-105-105-105z" fill="#667d74"/><path d="m331 112.5c0-57.99-32.141-105-75-105l-67.5 157.5c0 28.995 38.505 52.5 67.5 52.5 41.421 0 75-47.01 75-105z" fill="#7b9489"/><path d="m203.5 165c0-28.995 23.505-52.5 52.5-52.5s52.5-23.505 52.5-52.5-23.505-52.5-52.5-52.5c-57.99 0-105 47.01-105 105s47.01 105 105 105c-28.995 0-52.5-23.505-52.5-52.5z" fill="#fff7db"/><circle cx="256" cy="60" fill="#7b9489" r="15"/><path d="m346 249.5h-30v120l30-30c24.853 0 45-20.147 45-45s-20.147-45-45-45z" fill="#afccc1"/><path d="m361 294.5c0-24.853-20.147-45-45-45h-15l-112.5 90v45l127.5-45c24.853 0 45-20.147 45-45z" fill="#c3e0d6"/><path d="m301 249.5h-135c-24.853 0-45 20.147-45 45s20.147 45 45 45l22.5 45 22.5-45c49.746 0 90-40.254 90-90z" fill="#e1f2ed"/><path d="m407 339.5h-30v75l30-30c12.426 0 22.5-10.074 22.5-22.5s-10.074-22.5-22.5-22.5z" fill="#7b9489"/><path d="m399.5 362c0-12.426-10.074-22.5-22.5-22.5h-121l-53 105 174-60c12.426 0 22.5-10.074 22.5-22.5z" fill="#8ea89d"/><path d="m256 339.5h-151c-12.426 0-22.5 10.074-22.5 22.5s10.074 22.5 22.5 22.5l98 60 98-60c0-24.873-20.127-45-45-45z" fill="#9fbaaf"/><path d="m256 384.5h-188.5c-33.137 0-60 26.863-60 60s26.863 60 60 60h68.5z" fill="#c3e0d6"/><path d="m444.5 384.5h-30v120h30c33.137 0 60-26.863 60-60s-26.863-60-60-60z" fill="#9fbaaf"/><path d="m474.5 444.5c0-33.137-26.863-60-60-60h-158.5c-66.328 0-120 53.672-120 120h278.5c33.137 0 60-26.863 60-60z" fill="#afccc1"/><circle cx="256" cy="165" fill="#fff7db" r="15"/><circle cx="151" cy="294.5" r="7.5"/><circle cx="105" cy="414.5" r="7.5"/><circle cx="82.5" cy="474.5" r="7.5"/><circle cx="407" cy="414.5" r="7.5"/><circle cx="377" cy="444.5" r="7.5"/><circle cx="429.5" cy="474.5" r="7.5"/><path d="m256 225c62.033 0 112.5-50.467 112.5-112.5s-50.467-112.5-112.5-112.5-112.5 50.467-112.5 112.5 50.467 112.5 112.5 112.5zm97.5-112.5c0 53.762-43.738 97.5-97.5 97.5-24.813 0-45-20.187-45-45s20.187-45 45-45c33.084 0 60-26.916 60-60 0-10.915-2.944-21.148-8.058-29.975 27.353 17.288 45.558 47.793 45.558 82.475zm-97.5-97.5c24.813 0 45 20.187 45 45s-20.187 45-45 45c-33.084 0-60 26.916-60 60 0 10.915 2.944 21.148 8.058 29.975-27.353-17.288-45.558-47.793-45.558-82.475 0-53.762 43.738-97.5 97.5-97.5z"/><path d="m256 82.5c12.406 0 22.5-10.093 22.5-22.5s-10.094-22.5-22.5-22.5-22.5 10.093-22.5 22.5 10.094 22.5 22.5 22.5zm0-30c4.136 0 7.5 3.364 7.5 7.5s-3.364 7.5-7.5 7.5-7.5-3.364-7.5-7.5 3.364-7.5 7.5-7.5z"/><path d="m256 142.5c-12.406 0-22.5 10.093-22.5 22.5s10.094 22.5 22.5 22.5 22.5-10.093 22.5-22.5-10.094-22.5-22.5-22.5zm0 30c-4.136 0-7.5-3.364-7.5-7.5s3.364-7.5 7.5-7.5 7.5 3.364 7.5 7.5-3.364 7.5-7.5 7.5z"/><path d="m444.5 377h-11.536c2.561-4.416 4.036-9.538 4.036-15 0-16.542-13.458-30-30-30h-24.308c9.745-9.537 15.808-22.821 15.808-37.5 0-28.949-23.552-52.5-52.5-52.5h-45c-4.143 0-7.5 3.358-7.5 7.5 0 45.491-37.01 82.5-82.5 82.5h-45c-20.678 0-37.5-16.822-37.5-37.5s16.822-37.5 37.5-37.5h105c4.143 0 7.5-3.358 7.5-7.5s-3.357-7.5-7.5-7.5h-105c-28.948 0-52.5 23.551-52.5 52.5 0 14.679 6.063 27.963 15.808 37.5h-24.308c-16.542 0-30 13.458-30 30 0 5.462 1.475 10.584 4.036 15h-11.536c-37.22 0-67.5 30.28-67.5 67.5s30.28 67.5 67.5 67.5h68.5c4.143 0 7.5-3.358 7.5-7.5 0-62.033 50.467-112.5 112.5-112.5h188.5c28.948 0 52.5 23.551 52.5 52.5s-23.552 52.5-52.5 52.5h-278.5c-4.143 0-7.5 3.358-7.5 7.5s3.357 7.5 7.5 7.5h278.5c37.22 0 67.5-30.28 67.5-67.5s-30.28-67.5-67.5-67.5zm-136.285-120h37.785c20.678 0 37.5 16.822 37.5 37.5s-16.822 37.5-37.5 37.5h-83.094c25.383-16.027 42.896-43.434 45.309-75zm-179.497 240h-61.218c-28.948 0-52.5-23.551-52.5-52.5s23.552-52.5 52.5-52.5h128.538c-38.079 20.377-64.668 59.529-67.32 105zm-23.718-120c-8.271 0-15-6.729-15-15s6.729-15 15-15h151c18.11 0 33.261 12.904 36.745 30zm202.956 0c-1.678-11.676-7.21-22.118-15.264-30h114.308c8.271 0 15 6.729 15 15s-6.729 15-15 15z"/></g></svg>