<svg id="&#x421;&#x43B;&#x43E;&#x439;_1" enable-background="new 0 0 160 160" viewBox="0 0 160 160" xmlns="http://www.w3.org/2000/svg"><g fill="rgb(0,0,0)"><path d="m63 34c0 9.374 7.626 17 17 17s17-7.626 17-17-7.626-17-17-17-17 7.626-17 17zm17-13c7.168 0 13 5.832 13 13s-5.832 13-13 13-13-5.832-13-13 5.832-13 13-13z"/><path d="m51 143c1.104 0 2-.896 2-2s-.896-2-2-2h-10.576c-5.748 0-10.424-4.676-10.424-10.424 0-3.92 2.165-7.472 5.65-9.267l25.835-13.309h37.03l25.834 13.309c3.485 1.795 5.65 5.347 5.65 9.267 0 5.748-4.676 10.424-10.424 10.424h-15.575v-12.697l8.191-1.852c1.078-.244 1.753-1.314 1.51-2.392-.244-1.078-1.315-1.753-2.392-1.51l-25.883 5.852c-1.031.234-2.094-.126-2.772-.939-2.434-2.92-6.654-3.533-9.816-1.424l-14.703 9.802c-1.875 1.25-2.665 3.452-2.012 5.609s2.531 3.551 4.785 3.551h58.667c7.954 0 14.424-6.471 14.424-14.424 0-5.425-2.996-10.338-7.818-12.823l-25.181-12.973v-8.78h10.519c3.301 0 6.235-1.719 7.85-4.598s1.551-6.279-.17-9.095l-12.567-20.564c-2.166-3.543-6.089-5.743-10.24-5.743h-32.784c-4.151 0-8.075 2.2-10.239 5.743l-12.567 20.564c-1.721 2.816-1.785 6.217-.17 9.096 1.614 2.878 4.549 4.597 7.849 4.597h10.519v8.78l-25.182 12.973c-4.822 2.484-7.818 7.397-7.818 12.823 0 7.953 6.471 14.424 14.424 14.424zm8.951-4.71c-.064-.213-.155-.75.402-1.122l14.703-9.802c1.459-.972 3.403-.689 4.525.656 1.644 1.973 4.221 2.847 6.727 2.281l13.692-3.096v11.793h-39.092c-.67 0-.892-.497-.957-.71zm-3.169-76.461c1.443-2.362 4.059-3.829 6.826-3.829h32.783c2.768 0 5.383 1.467 6.826 3.828l4.504 7.371-6.721 2.801v-5c0-1.104-.896-2-2-2s-2 .896-2 2v7.985.01 5.005h-8.21l-.359-3.233c-.354-3.195-2.555-5.917-5.604-6.933l-2.193-.731c-.021-.007-.042-.004-.062-.01-.183-.055-.372-.093-.571-.093 0 0-.001 0-.002 0-.199 0-.388.038-.569.093-.021.006-.042.003-.062.01l-2.193.731c-3.05 1.017-5.25 3.738-5.604 6.933l-.361 3.233h-8.21v-5.004c0-.003 0-.007 0-.01v-7.986c0-1.104-.896-2-2-2s-2 .896-2 2v5l-6.722-2.801zm-12.662 25.617c-.896-1.599-.861-3.488.095-5.053l5.952-9.74 8.833 3.68v3.667h-3c-1.104 0-2 .896-2 2s.896 2 2 2h17c1.019 0 1.875-.766 1.988-1.779l.557-5.012c.166-1.491 1.113-2.775 2.455-3.397v15.188c0 .551-.448 1-1 1h-28.519c-1.834 0-3.463-.955-4.361-2.554zm32.88 6.554c2.757 0 5-2.243 5-5v-15.188c1.342.622 2.29 1.906 2.455 3.397l.557 5.012c.113 1.013.969 1.779 1.988 1.779h17c1.104 0 2-.896 2-2s-.896-2-2-2h-3v-3.667l8.833-3.681 5.952 9.74c.956 1.565.991 3.454.095 5.053-.897 1.599-2.527 2.554-4.361 2.554h-25.519c-1.104 0-2 .896-2 2s.896 2 2 2h11v8h-34v-8h14z"/><path d="m62.002 127c.907 0 1.728-.622 1.945-1.542.253-1.075-.414-2.152-1.489-2.405l-17-4c-1.076-.253-2.151.414-2.405 1.489-.253 1.075.414 2.152 1.489 2.405l17 4c.154.036.308.053.46.053z"/></g></svg>