<svg id="&#x421;&#x43B;&#x43E;&#x439;_1" enable-background="new 0 0 160 160" viewBox="0 0 160 160" xmlns="http://www.w3.org/2000/svg" xmlns:xlink="http://www.w3.org/1999/xlink"><linearGradient id="lg1"><stop offset=".00000041557" stop-color="#69f4f4"/><stop offset="1" stop-color="#3d7dfc"/></linearGradient><linearGradient id="SVGID_1_" gradientUnits="userSpaceOnUse" x1="67.696" x2="147.815" xlink:href="#lg1" y1="31.804" y2="111.924"/><linearGradient id="SVGID_00000161594700640361743430000000199112817501949326_" gradientUnits="userSpaceOnUse" x1="76.805" x2="156.924" xlink:href="#lg1" y1="22.695" y2="102.815"/><linearGradient id="SVGID_00000152229890772470317550000002072192204793820815_" gradientUnits="userSpaceOnUse" x1="72.25" x2="152.37" xlink:href="#lg1" y1="27.25" y2="107.37"/><linearGradient id="SVGID_00000039845683179355070760000016918331570114753180_" gradientUnits="userSpaceOnUse" x1="58.25" x2="138.37" xlink:href="#lg1" y1="41.25" y2="121.37"/><linearGradient id="SVGID_00000122700803294637171960000009401377655040490138_" gradientUnits="userSpaceOnUse" x1="51.25" x2="131.37" xlink:href="#lg1" y1="48.25" y2="128.369"/><linearGradient id="SVGID_00000088131363779201068850000003235626673748601760_" gradientUnits="userSpaceOnUse" x1="44.25" x2="124.37" xlink:href="#lg1" y1="55.25" y2="135.37"/><linearGradient id="SVGID_00000134220955806479887420000012746570631477318784_" gradientUnits="userSpaceOnUse" x1="37.25" x2="117.37" xlink:href="#lg1" y1="62.25" y2="142.37"/><linearGradient id="SVGID_00000014635996953449382140000011364831560159439010_" gradientUnits="userSpaceOnUse" x1="30.25" x2="110.37" xlink:href="#lg1" y1="69.25" y2="149.37"/><linearGradient id="SVGID_00000127006310598176360980000005778782951441494975_" gradientUnits="userSpaceOnUse" x1="65.25" x2="145.37" xlink:href="#lg1" y1="34.25" y2="114.37"/><linearGradient id="SVGID_00000000918431260097190170000000146661344332686481_" gradientUnits="userSpaceOnUse" x1="79.25" x2="159.37" xlink:href="#lg1" y1="20.25" y2="100.37"/><linearGradient id="SVGID_00000076591597676684484930000013744317790862795690_" gradientUnits="userSpaceOnUse" x1="40.581" x2="120.701" xlink:href="#lg1" y1="58.919" y2="139.038"/><linearGradient id="SVGID_00000160900696304437283800000015715188735533951934_" gradientUnits="userSpaceOnUse" x1="15" x2="95.12" xlink:href="#lg1" y1="84.5" y2="164.62"/><linearGradient id="SVGID_00000085215717765676683880000013755165082592549548_" gradientUnits="userSpaceOnUse" x1="27.072" x2="107.191" xlink:href="#lg1" y1="72.428" y2="152.548"/><g><path d="m72.201 24.598c.883-.663 1.062-1.917.398-2.8-.664-.884-1.917-1.062-2.801-.398-4.319 3.245-6.798 8.202-6.798 13.6 0 5.397 2.478 10.354 6.797 13.599.36.271.782.401 1.2.401.607 0 1.208-.276 1.601-.799.664-.883.485-2.137-.397-2.8-3.305-2.483-5.201-6.274-5.201-10.401 0-4.128 1.896-7.919 5.201-10.402z" fill="url(#SVGID_1_)"/><path d="m87.8 45.401c-.883.663-1.061 1.917-.397 2.8.392.524.993.799 1.6.799.418 0 .84-.131 1.2-.401 4.319-3.245 6.797-8.202 6.797-13.599s-2.478-10.354-6.799-13.6c-.883-.663-2.137-.485-2.8.398-.664.883-.485 2.137.397 2.8 3.306 2.483 5.202 6.274 5.202 10.402 0 4.127-1.896 7.918-5.2 10.401z" fill="url(#SVGID_00000161594700640361743430000000199112817501949326_)"/><circle cx="80" cy="35" fill="url(#SVGID_00000152229890772470317550000002072192204793820815_)" r="4"/><circle cx="80" cy="63" fill="url(#SVGID_00000039845683179355070760000016918331570114753180_)" r="4"/><circle cx="80" cy="77" fill="url(#SVGID_00000122700803294637171960000009401377655040490138_)" r="4"/><circle cx="80" cy="91" fill="url(#SVGID_00000088131363779201068850000003235626673748601760_)" r="4"/><circle cx="80" cy="105" fill="url(#SVGID_00000134220955806479887420000012746570631477318784_)" r="4"/><circle cx="80" cy="119" fill="url(#SVGID_00000014635996953449382140000011364831560159439010_)" r="4"/><circle cx="80" cy="49" fill="url(#SVGID_00000127006310598176360980000005778782951441494975_)" r="4"/><circle cx="80" cy="21" fill="url(#SVGID_00000000918431260097190170000000146661344332686481_)" r="4"/><path d="m60.354 137.168 14.703-9.802c.919-.613 1.168-1.854.555-2.773-.612-.919-1.854-1.167-2.773-.555l-14.703 9.802c-1.875 1.25-2.665 3.452-2.012 5.609s2.531 3.551 4.785 3.551h58.667c7.954 0 14.424-6.471 14.424-14.424 0-4.183-1.786-8.056-4.812-10.752 2.312-.885 4.358-2.423 5.88-4.517 1.498-2.06 1.05-4.967-.998-6.481l-20.23-14.953-4.475-26.845c-.968-5.811-5.946-10.028-11.836-10.028h-9.529c-1.104 0-2 .896-2 2s.896 2 2 2h9.529c3.927 0 7.246 2.812 7.891 6.685l2.283 13.7-6.703 1.219v-7.604c0-1.104-.896-2-2-2s-2 .896-2 2v29h-8c-1.104 0-2 .896-2 2s.896 2 2 2h9.515l24.087 12.408c.008.004.016.008.024.013l1.724.888c3.485 1.795 5.65 5.346 5.65 9.267 0 5.748-4.676 10.424-10.424 10.424h-15.576v-12.697l8.191-1.852c1.077-.244 1.753-1.314 1.509-2.392s-1.313-1.753-2.392-1.51l-9.711 2.196-16.17 3.656c-1.032.233-2.095-.126-2.772-.939-.707-.849-1.968-.963-2.816-.256-.849.707-.963 1.968-.256 2.817 1.312 1.576 3.221 2.45 5.212 2.45.502 0 1.01-.056 1.515-.169l13.69-3.097v11.793h-39.092c-.67 0-.893-.497-.957-.71s-.155-.75.403-1.122zm48.007-53.837 1.667 9.998c.085.512.366.971.784 1.28l20.881 15.434c.288.213.351.622.14.912-1.817 2.498-4.702 3.856-7.771 3.707l-23.062-11.882v-18.111z" fill="url(#SVGID_00000076591597676684484930000013744317790862795690_)"/><path d="m62.002 127c.907 0 1.728-.621 1.945-1.542.253-1.075-.414-2.152-1.489-2.405l-17-4c-1.076-.253-2.151.414-2.405 1.489-.253 1.075.414 2.152 1.489 2.405l17 4c.154.036.308.053.46.053z" fill="url(#SVGID_00000160900696304437283800000015715188735533951934_)"/><path d="m50.635 65.027-4.475 26.846-20.23 14.953c-2.048 1.514-2.496 4.421-.998 6.481 1.522 2.094 3.568 3.632 5.88 4.517-3.026 2.696-4.812 6.569-4.812 10.752 0 7.953 6.471 14.424 14.424 14.424h10.576c1.104 0 2-.896 2-2s-.896-2-2-2h-10.576c-5.748 0-10.424-4.676-10.424-10.424 0-3.921 2.165-7.472 5.65-9.267l1.723-.888c.009-.004.017-.008.026-.013l24.086-12.408h9.515c1.104 0 2-.896 2-2s-.896-2-2-2h-8v-29c0-1.104-.896-2-2-2s-2 .896-2 2v7.604l-6.703-1.219 2.283-13.7c.646-3.873 3.964-6.685 7.891-6.685h9.529c1.104 0 2-.896 2-2s-.896-2-2-2h-9.529c-5.89 0-10.868 4.217-11.836 10.027zm8.365 19.642v18.111l-23.062 11.881c-3.071.15-5.955-1.209-7.771-3.707-.211-.29-.147-.699.14-.912l20.881-15.434c.418-.309.699-.768.784-1.28l1.667-9.998z" fill="url(#SVGID_00000085215717765676683880000013755165082592549548_)"/></g></svg>