<svg id="Layer_1" enable-background="new 0 0 512 512" viewBox="0 0 512 512" xmlns="http://www.w3.org/2000/svg" xmlns:xlink="http://www.w3.org/1999/xlink"><linearGradient id="SVGID_1_" gradientUnits="userSpaceOnUse" x1="420.669" x2="91.331" y1="152.648" y2="481.987"><stop offset="0" stop-color="#e93528"/><stop offset="1" stop-color="#f8bc16"/></linearGradient><path d="m496 359.608h-116.657c6.402-7.895 9.684-17.964 9.047-28.069-.699-11.103-6.03-21.549-14.624-28.66-8.01-6.626-17.89-9.587-27.828-8.331l-15.817 1.996v-28.641c16.141-1.554 28.805-15.191 28.805-31.733v-17.258c0-.042 0-.083-.001-.125-.483-27.106-11.403-52.512-30.749-71.539-19.371-19.051-45.003-29.543-72.176-29.543-27.172 0-52.805 10.492-72.176 29.543-19.346 19.026-30.266 44.433-30.749 71.539-.001.042-.001.083-.001.125v17.258c0 16.542 12.664 30.179 28.806 31.733v28.639l-15.817-1.996c-9.936-1.247-19.818 1.707-27.827 8.332-8.594 7.111-13.925 17.558-14.624 28.661-.637 10.106 2.644 20.173 9.043 28.068h-116.655c-3.866 0-7 3.134-7 7v30.148c0 3.866 3.134 7 7 7h202.791c-11.883 10.387-19.412 25.638-19.412 42.623 0 31.221 25.4 56.62 56.621 56.62s56.621-25.399 56.621-56.62c0-16.985-7.528-32.236-19.412-42.623h202.791c3.866 0 7-3.134 7-7v-30.148c0-3.865-3.134-6.999-7-6.999zm-197.379 86.772c0 23.501-19.12 42.62-42.621 42.62s-42.621-19.119-42.621-42.62 19.12-42.62 42.621-42.62 42.621 19.119 42.621 42.62zm49.069-137.942c6.06-.769 12.151 1.092 17.151 5.229 5.628 4.656 9.119 11.492 9.577 18.754.449 7.129-2.245 14.543-7.206 19.831-4.422 4.714-10.212 7.313-16.302 7.318v.039h-31.103c2.971-4.458 4.842-9.726 5.2-15.421.839-13.312-6.857-25.348-18.488-30.555zm-180.616-72.268v-17.192c.892-48.126 40.771-87.272 88.926-87.272 48.156 0 88.035 39.146 88.926 87.272v17.192c0 9.861-8.023 17.885-17.884 17.885h-64.042v-28.143h41.188c3.866 0 7-3.134 7-7s-3.134-7-7-7h-96.375c-3.866 0-7 3.134-7 7s3.134 7 7 7h41.187v28.143h-64.042c-9.861 0-17.884-8.024-17.884-17.885zm28.805 31.885h120.242v30.255l-60.119 7.586-60.123-7.587zm-51.086 84.206c-4.964-5.29-7.66-12.706-7.21-19.84.458-7.263 3.948-14.099 9.577-18.755 5-4.137 11.091-5.994 17.15-5.229l131.618 16.607c9.045 1.143 15.682 9.164 15.108 18.263-.582 9.231-7.905 16.197-17.073 16.302h-132.876v-.039c-6.086-.003-11.872-2.598-16.294-7.309zm344.207 37.496h-466v-16.148h270.744v.01h.012c.134 0 .266-.008.399-.01h194.845zm-233-279.092c28.029 0 50.832-22.804 50.832-50.833s-22.803-50.832-50.832-50.832-50.832 22.804-50.832 50.833 22.803 50.832 50.832 50.832zm0-87.665c20.31 0 36.832 16.523 36.832 36.833s-16.522 36.832-36.832 36.832-36.832-16.523-36.832-36.833 16.522-36.832 36.832-36.832zm0 398.996c-13.445 0-24.383 10.938-24.383 24.384 0 13.444 10.938 24.383 24.383 24.383s24.383-10.938 24.383-24.383-10.938-24.384-24.383-24.384zm0 34.767c-5.726 0-10.383-4.657-10.383-10.383s4.658-10.384 10.383-10.384 10.383 4.658 10.383 10.384-4.657 10.383-10.383 10.383z" fill="url(#SVGID_1_)"/></svg>